<svg width="47" height="42" viewBox="0 0 47 42" fill="none" xmlns="http://www.w3.org/2000/svg">
<path d="M5.75476 23.6477C5.77404 23.6888 5.80124 23.7257 5.83481 23.7564L23.0707 40.8921C23.1315 40.951 23.2103 40.9883 23.2948 40.9981C23.3258 41.0006 23.3571 41.0006 23.3882 40.9981C23.4937 41.0015 23.5963 40.9634 23.6736 40.8921L40.9122 23.7696C40.9424 23.7398 40.9668 23.7048 40.9842 23.6663L42.1849 22.4737C43.3813 21.3186 44.3347 19.9389 44.9896 18.4146C45.6445 16.8903 45.9878 15.252 45.9997 13.5948C46.0115 11.9376 45.6917 10.2945 45.0586 8.76119C44.4256 7.22784 43.4921 5.83476 42.3123 4.6629C41.1325 3.49105 39.7299 2.56379 38.1862 1.93503C36.6424 1.30627 34.9883 0.988541 33.3198 1.00032C31.6514 1.01209 30.0019 1.35313 28.4673 2.00362C26.9327 2.6541 25.5436 3.60106 24.3807 4.78945L23.3748 5.78855L22.3663 4.78945C19.994 2.49915 16.8094 1.22828 13.5013 1.25163C10.1931 1.27498 7.02704 2.59066 4.68773 4.91421C2.34843 7.23776 1.02382 10.3825 1.00032 13.6684C0.976813 16.9543 2.25629 20.1174 4.56212 22.4737L5.75476 23.6477ZM5.12509 5.33803C7.33754 3.14473 10.3357 1.91291 13.4615 1.91291C16.5874 1.91291 19.5855 3.14473 21.798 5.33803L23.0893 6.62068C23.166 6.69204 23.2671 6.73176 23.3722 6.73176C23.4772 6.73176 23.5783 6.69204 23.655 6.62068L24.9463 5.33803C27.1569 3.1423 30.1552 1.90876 33.2814 1.90876C36.4077 1.90876 39.4059 3.1423 41.6166 5.33803C43.8272 7.53375 45.0691 10.5118 45.0691 13.617C45.0691 16.7222 43.8272 19.7003 41.6166 21.896L40.3252 23.1786C40.2958 23.2085 40.2723 23.2436 40.2558 23.282L23.3722 40.052L6.49382 23.2899C6.47462 23.2487 6.44845 23.2111 6.41645 23.1786L5.12509 21.896C4.03051 20.8088 3.16223 19.5181 2.56985 18.0976C1.97746 16.677 1.67257 15.1546 1.67257 13.617C1.67257 12.0795 1.97746 10.557 2.56985 9.13645C3.16223 7.71594 4.03051 6.42524 5.12509 5.33803Z" fill="#C89A7D" stroke="#C89A7D"/>
</svg>
