<svg width="100" height="100" viewBox="0 0 100 100" fill="none" xmlns="http://www.w3.org/2000/svg">
<path d="M0 15C0 6.71573 6.71573 0 15 0H85C93.2843 0 100 6.71573 100 15V85C100 93.2843 93.2843 100 85 100H15C6.71573 100 0 93.2843 0 85V15Z" fill="#191919"/>
<path fill-rule="evenodd" clip-rule="evenodd" d="M56.3182 61.9777C57.6357 64.4055 59.0002 65.5803 60.9848 67.5768C63.5092 70.1166 66.3555 72.9994 66.4359 77.5696C66.4829 80.3199 63.878 82.3776 61.3637 82.6934C60.1869 83.8206 58.3397 84.4522 56.8345 83.6169C54.3067 84.3571 53.3613 82.6492 53.5424 80.2962C53.7971 76.955 52.8886 72.2863 50.3642 69.4579C53.3848 71.6887 54.6587 77.3829 54.4576 80.3675C54.3335 82.2316 54.7861 83.1076 56.3886 82.7579C56.64 80.8972 56.5093 79.0602 55.9964 77.2505C57.0692 79.0059 57.3776 80.9481 57.2904 82.7918C58.5644 83.4268 59.8115 82.8937 60.8105 81.9362C60.9077 79.8887 60.0696 77.5934 58.7688 76.0485C60.3747 77.1452 61.5313 79.5831 61.6989 81.6781C63.64 81.2197 65.5509 79.7325 65.514 77.5866C65.4436 73.3898 62.6443 70.7108 60.4015 68.1473C58.6549 66.1473 57.2737 64.6703 56.3182 61.9777ZM59.3321 29.3747C67.3277 23.6262 73.4761 25.0964 79.3563 16C74.4349 25.66 69.49 23.9012 59.7679 30.3458C53.3379 34.607 55.2622 49.0445 50.2838 53.6012C54.4006 48.4435 52.3422 34.4033 59.3321 29.3747ZM50.495 51.1768C50.1128 48.3179 52.4863 43.1228 50.5318 40.6543C49.4456 39.1807 46.8978 38.1213 45.5803 39.5814C45.0506 39.4456 44.5443 39.6832 44.1923 39.9141C43.7364 39.9956 43.2939 40.1179 42.7139 40.3284C43.1397 40.7358 44.0817 41.4862 44.0046 42.0804C43.9476 42.5184 43.5118 43.0787 42.8245 44.0532C39.5257 48.7457 38.6373 53.7608 40.9505 59.5092C41.2388 60.2291 41.6042 60.9421 42.0401 61.6382C42.0233 61.6382 42.0099 61.6416 41.9965 61.645C40.8365 61.9302 41.0209 63.7536 42.6904 63.8826C42.1775 63.5193 41.7182 62.4056 42.3954 62.1849C45.4998 66.7314 51.4806 70.4426 57.981 70.9078C50.3944 69.6514 44.2795 65.4105 41.6512 59.2138C39.462 54.046 40.2599 48.9494 43.5621 44.6134C44.3834 43.5337 44.8628 42.8648 44.95 42.2094C45.017 41.6967 44.8796 41.2689 44.5242 40.8071C44.9802 40.5593 45.4562 40.4981 45.9524 40.6611C47.0352 39.2792 48.7953 40.0024 49.7641 41.3164C51.5376 43.717 49.4591 48.4774 50.495 51.1768ZM48.8523 62.4701C47.642 62.4497 48.2086 63.9641 48.8556 64.4225C46.9749 64.2765 46.767 62.2222 48.0745 61.903C48.4299 61.8148 48.8355 62.083 48.8523 62.4701ZM47.7359 41.072C47.8231 41.3945 47.6387 41.7273 47.3235 41.819C47.0051 41.9073 46.6765 41.7205 46.5894 41.4013C46.4988 41.0788 46.6832 40.746 47.0017 40.6543C47.3168 40.5661 47.6454 40.7528 47.7359 41.072ZM22.3812 17.4872C28.8448 31.7345 41.2891 23.8842 41.792 44.6881C39.6766 24.5837 27.0545 31.4255 22.3812 17.4872ZM34.9027 45.4996C28.6302 44.9869 24.9425 41.0856 22.4214 34.6987C23.6283 35.3574 24.6508 35.5408 26.0622 35.4559C24.3223 34.9602 22.5622 34.0875 21 33.2149C24.1614 41.7307 28.9051 46.4605 34.9027 45.4996ZM35.7877 51.4213C31.2451 50.8271 26.5684 49.3908 22.9612 43.3979C24.329 43.6186 25.318 43.3775 26.5416 42.9055C24.7983 42.9564 23.273 42.9361 21.4291 42.4064C26.3304 50.9901 32.1503 51.8797 35.7877 51.4213ZM38.1881 56.2632C34.839 57.4652 31.5133 57.5467 24.7883 52.2192C26.612 52.0121 27.9999 51.4315 29.5588 50.6947C28.5933 51.6386 27.772 52.2634 26.4679 52.5859C31.3558 56.4771 34.6881 56.5756 38.1881 56.2632ZM39.9414 57.9677C38.3155 59.6111 36.4012 60.5958 31.0239 59.3836C32.0296 58.7487 32.6766 58.022 33.3874 57.1528C33.0789 57.9745 32.7739 58.5687 32.1034 59.1222C36.0157 60.0152 37.9869 59.1357 39.9414 57.9677ZM50.6592 58.2122C52.8685 60.881 55.6041 62.6025 63.7908 61.5058C62.3694 60.4226 61.4944 59.2512 60.549 57.8591C60.8977 59.129 61.2798 60.0559 62.2118 60.9727C56.2512 61.7876 53.425 60.2155 50.6592 58.2122ZM55.9494 56.3175C59.4494 58.2054 63.1036 58.8539 71.3875 54.1071C69.4096 53.5706 67.9781 52.698 66.3756 51.625C67.2875 52.827 68.0921 53.6555 69.4766 54.2293C63.4489 57.6995 59.7578 57.2513 55.9494 56.3175ZM59.9959 51.2108C63.935 52.3279 70.4958 52.3245 77.308 43.6797C75.1859 43.9547 73.4996 43.7204 71.5853 43.3707C72.8593 44.0973 73.9086 44.5319 75.4574 44.515C70.4958 50.5215 65.105 51.3194 59.9959 51.2108ZM62.6577 44.0769C69.1146 46.1448 75.1188 41.7273 80 32.8652C78.1327 33.5612 76.0508 34.2301 74.0494 34.4848C75.5949 34.8176 76.7481 34.7836 78.1897 34.2607C74.3645 40.8818 69.661 44.5659 62.6577 44.0769ZM69.3626 35.3676C77.0264 35.9381 81.3008 24.2238 79.4033 16.5433C80.0201 24.6414 77.1437 33.7174 69.3626 35.3676ZM28.6973 36.006C22.0158 33.4933 20.658 25.059 22.2672 17.9626C19.5786 24.5158 21.8281 35.4763 28.6973 36.006Z" fill="#AC8A74"/>
<path fill-rule="evenodd" clip-rule="evenodd" d="M25.831 30.261C26.2199 29.3883 30.4976 31.137 31.2251 32.4374C29.7869 32.8619 25.4455 31.1336 25.831 30.261ZM36.1934 37.1707C36.294 36.7089 38.5469 37.1299 39.0296 37.6868C38.3692 38.0399 36.0895 37.6325 36.1934 37.1707ZM29.1365 33.4663C28.9622 34.2846 32.9885 34.9806 34.1451 34.3525C33.2936 33.3712 29.3142 32.648 29.1365 33.4663ZM33.2131 35.7107C33.3036 35.0757 36.3812 35.4017 37.0886 36.1011C36.2404 36.6478 33.1226 36.3456 33.2131 35.7107ZM36.9712 33.1607C36.532 33.3678 37.6451 35.5239 38.3457 35.8499C38.4932 35.0927 37.4104 32.9536 36.9712 33.1607ZM34.8122 31.6803C35.2749 31.4324 36.5622 33.6734 36.4415 34.4951C35.6671 34.1861 34.3496 31.9281 34.8122 31.6803ZM32.5761 30.1489C33.1259 29.8297 34.7686 32.4918 34.6547 33.4866C33.7093 33.1403 32.0263 30.4647 32.5761 30.1489ZM29.1365 29.0726C28.5498 29.6634 31.567 32.4578 32.8779 32.5665C32.6834 31.2694 29.7198 28.4851 29.1365 29.0726ZM42.8783 40.2707C39.8778 37.2013 35.2916 33.5953 31.386 32.5054C37.8127 34.6954 48.3495 44.8037 48.5137 51.7813C48.5305 52.3755 49.4591 52.3042 49.3921 51.6319C49.0032 47.5675 46.3112 44.3317 43.9175 41.2486L43.7734 41.415C43.4817 40.9974 42.9888 40.5898 42.7139 40.3284C42.7709 40.308 42.8246 40.2877 42.8783 40.2707Z" fill="#AC8A74"/>
</svg>
