<svg width="100" height="100" viewBox="0 0 100 100" fill="none" xmlns="http://www.w3.org/2000/svg">
<rect width="100" height="100" rx="15" fill="#191919"/>
<mask id="path-2-outside-1_201_8" maskUnits="userSpaceOnUse" x="19" y="15" width="64" height="71" fill="black">
<rect fill="white" x="19" y="15" width="64" height="71"/>
<path fill-rule="evenodd" clip-rule="evenodd" d="M56.3182 61.9777C57.6357 64.4055 59.0002 65.5803 60.9848 67.5768C63.5092 70.1166 66.3555 72.9993 66.4359 77.5696C66.4829 80.3199 63.878 82.3776 61.3637 82.6934C60.1869 83.8206 58.3397 84.4522 56.8345 83.6169C54.3067 84.3571 53.3613 82.6492 53.5424 80.2962C53.7971 76.955 52.8886 72.2863 50.3642 69.4579C53.3848 71.6887 54.6587 77.3829 54.4576 80.3675C54.3335 82.2316 54.7861 83.1076 56.3886 82.7579C56.64 80.8972 56.5093 79.0602 55.9964 77.2504C57.0692 79.0059 57.3776 80.9481 57.2904 82.7918C58.5644 83.4268 59.8115 82.8937 60.8105 81.9362C60.9077 79.8887 60.0696 77.5934 58.7688 76.0485C60.3747 77.1452 61.5313 79.5831 61.6989 81.6781C63.64 81.2197 65.5509 79.7325 65.514 77.5866C65.4436 73.3898 62.6443 70.7108 60.4015 68.1473C58.6549 66.1473 57.2737 64.6703 56.3182 61.9777ZM59.3321 29.3747C67.3277 23.6262 73.4761 25.0964 79.3563 16C74.4349 25.66 69.49 23.9012 59.7679 30.3458C53.3379 34.607 55.2622 49.0445 50.2838 53.6012C54.4006 48.4435 52.3422 34.4033 59.3321 29.3747ZM50.495 51.1768C50.1128 48.3179 52.4863 43.1228 50.5318 40.6543C49.4456 39.1807 46.8978 38.1213 45.5803 39.5814C45.0506 39.4456 44.5443 39.6832 44.1923 39.9141C43.7364 39.9956 43.2939 40.1179 42.7139 40.3284C43.1397 40.7358 44.0817 41.4862 44.0046 42.0804C43.9476 42.5184 43.5118 43.0787 42.8245 44.0532C39.5257 48.7457 38.6373 53.7608 40.9505 59.5092C41.2388 60.2291 41.6042 60.9421 42.0401 61.6382C42.0233 61.6382 42.0099 61.6416 41.9965 61.645C40.8365 61.9302 41.0209 63.7536 42.6904 63.8826C42.1775 63.5193 41.7182 62.4056 42.3954 62.1849C45.4998 66.7314 51.4806 70.4426 57.981 70.9078C50.3944 69.6514 44.2795 65.4105 41.6512 59.2138C39.462 54.046 40.2599 48.9494 43.5621 44.6134C44.3834 43.5337 44.8628 42.8648 44.95 42.2094C45.017 41.6967 44.8796 41.2689 44.5242 40.8071C44.9802 40.5593 45.4562 40.4981 45.9524 40.6611C47.0352 39.2792 48.7953 40.0024 49.7641 41.3164C51.5376 43.717 49.4591 48.4774 50.495 51.1768ZM48.8523 62.4701C47.642 62.4497 48.2086 63.9641 48.8556 64.4225C46.9749 64.2764 46.767 62.2222 48.0745 61.903C48.4299 61.8148 48.8355 62.083 48.8523 62.4701ZM47.7359 41.072C47.8231 41.3945 47.6387 41.7273 47.3235 41.819C47.0051 41.9073 46.6765 41.7205 46.5894 41.4013C46.4988 41.0788 46.6832 40.746 47.0017 40.6543C47.3168 40.5661 47.6454 40.7528 47.7359 41.072ZM22.3812 17.4872C28.8448 31.7345 41.2891 23.8842 41.792 44.6881C39.6766 24.5837 27.0545 31.4255 22.3812 17.4872ZM34.9027 45.4996C28.6302 44.9869 24.9425 41.0856 22.4214 34.6987C23.6283 35.3574 24.6508 35.5408 26.0622 35.4559C24.3223 34.9602 22.5622 34.0875 21 33.2149C24.1614 41.7307 28.9051 46.4605 34.9027 45.4996ZM35.7877 51.4213C31.2451 50.8271 26.5684 49.3908 22.9612 43.3979C24.329 43.6186 25.318 43.3775 26.5416 42.9055C24.7983 42.9564 23.273 42.9361 21.4291 42.4064C26.3304 50.9901 32.1503 51.8797 35.7877 51.4213ZM38.1881 56.2632C34.839 57.4652 31.5133 57.5467 24.7883 52.2192C26.612 52.0121 27.9999 51.4315 29.5588 50.6947C28.5933 51.6386 27.772 52.2634 26.4679 52.5859C31.3558 56.4771 34.6881 56.5756 38.1881 56.2632ZM39.9414 57.9677C38.3155 59.6111 36.4012 60.5958 31.0239 59.3836C32.0296 58.7487 32.6766 58.022 33.3874 57.1528C33.0789 57.9745 32.7739 58.5687 32.1034 59.1222C36.0157 60.0152 37.9869 59.1357 39.9414 57.9677ZM50.6592 58.2122C52.8685 60.881 55.6041 62.6025 63.7908 61.5058C62.3694 60.4226 61.4944 59.2512 60.549 57.8591C60.8977 59.129 61.2798 60.0559 62.2118 60.9727C56.2512 61.7876 53.425 60.2155 50.6592 58.2122ZM55.9494 56.3175C59.4494 58.2054 63.1036 58.8539 71.3875 54.1071C69.4096 53.5706 67.9781 52.698 66.3756 51.625C67.2875 52.827 68.0921 53.6555 69.4766 54.2293C63.4489 57.6995 59.7578 57.2513 55.9494 56.3175ZM59.9959 51.2108C63.935 52.3279 70.4958 52.3245 77.308 43.6797C75.1859 43.9547 73.4996 43.7204 71.5853 43.3707C72.8593 44.0973 73.9086 44.5319 75.4574 44.515C70.4958 50.5215 65.105 51.3194 59.9959 51.2108ZM62.6577 44.0769C69.1146 46.1448 75.1188 41.7273 80 32.8652C78.1327 33.5612 76.0508 34.2301 74.0494 34.4848C75.5949 34.8176 76.7481 34.7836 78.1897 34.2607C74.3645 40.8818 69.661 44.5659 62.6577 44.0769ZM69.3626 35.3676C77.0264 35.9381 81.3008 24.2238 79.4033 16.5433C80.0201 24.6414 77.1437 33.7174 69.3626 35.3676ZM28.6973 36.006C22.0158 33.4933 20.658 25.059 22.2672 17.9626C19.5786 24.5158 21.8281 35.4763 28.6973 36.006Z"/>
<path fill-rule="evenodd" clip-rule="evenodd" d="M25.831 30.261C26.2199 29.3883 30.4976 31.137 31.2251 32.4374C29.7869 32.8619 25.4455 31.1336 25.831 30.261ZM36.1934 37.1707C36.294 36.7089 38.5469 37.1299 39.0296 37.6868C38.3692 38.0399 36.0895 37.6325 36.1934 37.1707ZM29.1365 33.4663C28.9622 34.2846 32.9885 34.9806 34.1451 34.3525C33.2936 33.3712 29.3142 32.648 29.1365 33.4663ZM33.2131 35.7107C33.3036 35.0757 36.3812 35.4017 37.0886 36.1011C36.2404 36.6478 33.1226 36.3456 33.2131 35.7107ZM36.9712 33.1607C36.532 33.3678 37.6451 35.5239 38.3457 35.8499C38.4932 35.0927 37.4104 32.9536 36.9712 33.1607ZM34.8122 31.6803C35.2749 31.4324 36.5622 33.6734 36.4415 34.4951C35.6671 34.1861 34.3496 31.9281 34.8122 31.6803ZM32.5761 30.1489C33.1259 29.8297 34.7686 32.4918 34.6547 33.4866C33.7093 33.1403 32.0263 30.4647 32.5761 30.1489ZM29.1365 29.0726C28.5498 29.6634 31.567 32.4578 32.8779 32.5665C32.6834 31.2694 29.7198 28.4851 29.1365 29.0726ZM42.8783 40.2707C39.8778 37.2013 35.2916 33.5953 31.386 32.5054C37.8127 34.6954 48.3495 44.8037 48.5137 51.7813C48.5305 52.3755 49.4591 52.3042 49.3921 51.6319C49.0032 47.5675 46.3112 44.3317 43.9175 41.2486L43.7734 41.415C43.4817 40.9974 42.9888 40.5898 42.7139 40.3284C42.7709 40.308 42.8246 40.2877 42.8783 40.2707Z"/>
</mask>
<path fill-rule="evenodd" clip-rule="evenodd" d="M56.3182 61.9777C57.6357 64.4055 59.0002 65.5803 60.9848 67.5768C63.5092 70.1166 66.3555 72.9993 66.4359 77.5696C66.4829 80.3199 63.878 82.3776 61.3637 82.6934C60.1869 83.8206 58.3397 84.4522 56.8345 83.6169C54.3067 84.3571 53.3613 82.6492 53.5424 80.2962C53.7971 76.955 52.8886 72.2863 50.3642 69.4579C53.3848 71.6887 54.6587 77.3829 54.4576 80.3675C54.3335 82.2316 54.7861 83.1076 56.3886 82.7579C56.64 80.8972 56.5093 79.0602 55.9964 77.2504C57.0692 79.0059 57.3776 80.9481 57.2904 82.7918C58.5644 83.4268 59.8115 82.8937 60.8105 81.9362C60.9077 79.8887 60.0696 77.5934 58.7688 76.0485C60.3747 77.1452 61.5313 79.5831 61.6989 81.6781C63.64 81.2197 65.5509 79.7325 65.514 77.5866C65.4436 73.3898 62.6443 70.7108 60.4015 68.1473C58.6549 66.1473 57.2737 64.6703 56.3182 61.9777ZM59.3321 29.3747C67.3277 23.6262 73.4761 25.0964 79.3563 16C74.4349 25.66 69.49 23.9012 59.7679 30.3458C53.3379 34.607 55.2622 49.0445 50.2838 53.6012C54.4006 48.4435 52.3422 34.4033 59.3321 29.3747ZM50.495 51.1768C50.1128 48.3179 52.4863 43.1228 50.5318 40.6543C49.4456 39.1807 46.8978 38.1213 45.5803 39.5814C45.0506 39.4456 44.5443 39.6832 44.1923 39.9141C43.7364 39.9956 43.2939 40.1179 42.7139 40.3284C43.1397 40.7358 44.0817 41.4862 44.0046 42.0804C43.9476 42.5184 43.5118 43.0787 42.8245 44.0532C39.5257 48.7457 38.6373 53.7608 40.9505 59.5092C41.2388 60.2291 41.6042 60.9421 42.0401 61.6382C42.0233 61.6382 42.0099 61.6416 41.9965 61.645C40.8365 61.9302 41.0209 63.7536 42.6904 63.8826C42.1775 63.5193 41.7182 62.4056 42.3954 62.1849C45.4998 66.7314 51.4806 70.4426 57.981 70.9078C50.3944 69.6514 44.2795 65.4105 41.6512 59.2138C39.462 54.046 40.2599 48.9494 43.5621 44.6134C44.3834 43.5337 44.8628 42.8648 44.95 42.2094C45.017 41.6967 44.8796 41.2689 44.5242 40.8071C44.9802 40.5593 45.4562 40.4981 45.9524 40.6611C47.0352 39.2792 48.7953 40.0024 49.7641 41.3164C51.5376 43.717 49.4591 48.4774 50.495 51.1768ZM48.8523 62.4701C47.642 62.4497 48.2086 63.9641 48.8556 64.4225C46.9749 64.2764 46.767 62.2222 48.0745 61.903C48.4299 61.8148 48.8355 62.083 48.8523 62.4701ZM47.7359 41.072C47.8231 41.3945 47.6387 41.7273 47.3235 41.819C47.0051 41.9073 46.6765 41.7205 46.5894 41.4013C46.4988 41.0788 46.6832 40.746 47.0017 40.6543C47.3168 40.5661 47.6454 40.7528 47.7359 41.072ZM22.3812 17.4872C28.8448 31.7345 41.2891 23.8842 41.792 44.6881C39.6766 24.5837 27.0545 31.4255 22.3812 17.4872ZM34.9027 45.4996C28.6302 44.9869 24.9425 41.0856 22.4214 34.6987C23.6283 35.3574 24.6508 35.5408 26.0622 35.4559C24.3223 34.9602 22.5622 34.0875 21 33.2149C24.1614 41.7307 28.9051 46.4605 34.9027 45.4996ZM35.7877 51.4213C31.2451 50.8271 26.5684 49.3908 22.9612 43.3979C24.329 43.6186 25.318 43.3775 26.5416 42.9055C24.7983 42.9564 23.273 42.9361 21.4291 42.4064C26.3304 50.9901 32.1503 51.8797 35.7877 51.4213ZM38.1881 56.2632C34.839 57.4652 31.5133 57.5467 24.7883 52.2192C26.612 52.0121 27.9999 51.4315 29.5588 50.6947C28.5933 51.6386 27.772 52.2634 26.4679 52.5859C31.3558 56.4771 34.6881 56.5756 38.1881 56.2632ZM39.9414 57.9677C38.3155 59.6111 36.4012 60.5958 31.0239 59.3836C32.0296 58.7487 32.6766 58.022 33.3874 57.1528C33.0789 57.9745 32.7739 58.5687 32.1034 59.1222C36.0157 60.0152 37.9869 59.1357 39.9414 57.9677ZM50.6592 58.2122C52.8685 60.881 55.6041 62.6025 63.7908 61.5058C62.3694 60.4226 61.4944 59.2512 60.549 57.8591C60.8977 59.129 61.2798 60.0559 62.2118 60.9727C56.2512 61.7876 53.425 60.2155 50.6592 58.2122ZM55.9494 56.3175C59.4494 58.2054 63.1036 58.8539 71.3875 54.1071C69.4096 53.5706 67.9781 52.698 66.3756 51.625C67.2875 52.827 68.0921 53.6555 69.4766 54.2293C63.4489 57.6995 59.7578 57.2513 55.9494 56.3175ZM59.9959 51.2108C63.935 52.3279 70.4958 52.3245 77.308 43.6797C75.1859 43.9547 73.4996 43.7204 71.5853 43.3707C72.8593 44.0973 73.9086 44.5319 75.4574 44.515C70.4958 50.5215 65.105 51.3194 59.9959 51.2108ZM62.6577 44.0769C69.1146 46.1448 75.1188 41.7273 80 32.8652C78.1327 33.5612 76.0508 34.2301 74.0494 34.4848C75.5949 34.8176 76.7481 34.7836 78.1897 34.2607C74.3645 40.8818 69.661 44.5659 62.6577 44.0769ZM69.3626 35.3676C77.0264 35.9381 81.3008 24.2238 79.4033 16.5433C80.0201 24.6414 77.1437 33.7174 69.3626 35.3676ZM28.6973 36.006C22.0158 33.4933 20.658 25.059 22.2672 17.9626C19.5786 24.5158 21.8281 35.4763 28.6973 36.006Z" fill="#AC8A74"/>
<path fill-rule="evenodd" clip-rule="evenodd" d="M25.831 30.261C26.2199 29.3883 30.4976 31.137 31.2251 32.4374C29.7869 32.8619 25.4455 31.1336 25.831 30.261ZM36.1934 37.1707C36.294 36.7089 38.5469 37.1299 39.0296 37.6868C38.3692 38.0399 36.0895 37.6325 36.1934 37.1707ZM29.1365 33.4663C28.9622 34.2846 32.9885 34.9806 34.1451 34.3525C33.2936 33.3712 29.3142 32.648 29.1365 33.4663ZM33.2131 35.7107C33.3036 35.0757 36.3812 35.4017 37.0886 36.1011C36.2404 36.6478 33.1226 36.3456 33.2131 35.7107ZM36.9712 33.1607C36.532 33.3678 37.6451 35.5239 38.3457 35.8499C38.4932 35.0927 37.4104 32.9536 36.9712 33.1607ZM34.8122 31.6803C35.2749 31.4324 36.5622 33.6734 36.4415 34.4951C35.6671 34.1861 34.3496 31.9281 34.8122 31.6803ZM32.5761 30.1489C33.1259 29.8297 34.7686 32.4918 34.6547 33.4866C33.7093 33.1403 32.0263 30.4647 32.5761 30.1489ZM29.1365 29.0726C28.5498 29.6634 31.567 32.4578 32.8779 32.5665C32.6834 31.2694 29.7198 28.4851 29.1365 29.0726ZM42.8783 40.2707C39.8778 37.2013 35.2916 33.5953 31.386 32.5054C37.8127 34.6954 48.3495 44.8037 48.5137 51.7813C48.5305 52.3755 49.4591 52.3042 49.3921 51.6319C49.0032 47.5675 46.3112 44.3317 43.9175 41.2486L43.7734 41.415C43.4817 40.9974 42.9888 40.5898 42.7139 40.3284C42.7709 40.308 42.8246 40.2877 42.8783 40.2707Z" fill="#AC8A74"/>
<path d="M56.3182 61.9777L57.1971 61.5008L55.3758 62.3121L56.3182 61.9777ZM60.9848 67.5768L61.6941 66.8719L61.694 66.8718L60.9848 67.5768ZM66.4359 77.5696L67.4358 77.5526L67.4358 77.552L66.4359 77.5696ZM61.3637 82.6934L61.239 81.7011L60.9108 81.7424L60.6719 81.9712L61.3637 82.6934ZM56.8345 83.6169L57.3197 82.7425L56.9544 82.5398L56.5534 82.6572L56.8345 83.6169ZM53.5424 80.2962L54.5394 80.3729L54.5395 80.3722L53.5424 80.2962ZM50.3642 69.4579L50.9583 68.6535L49.6182 70.1238L50.3642 69.4579ZM54.4576 80.3675L53.4598 80.3002L53.4598 80.3011L54.4576 80.3675ZM56.3886 82.7579L56.6018 83.7349L57.2858 83.5856L57.3796 82.8918L56.3886 82.7579ZM55.9964 77.2504L56.8496 76.729L55.0343 77.5231L55.9964 77.2504ZM57.2904 82.7918L56.2915 82.7446L56.2607 83.3959L56.8443 83.6868L57.2904 82.7918ZM60.8105 81.9362L61.5024 82.6581L61.7905 82.3821L61.8094 81.9836L60.8105 81.9362ZM58.7688 76.0485L59.3328 75.2227L58.0039 76.6925L58.7688 76.0485ZM61.6989 81.6781L60.7021 81.7579L60.795 82.9191L61.9287 82.6513L61.6989 81.6781ZM65.514 77.5866L64.5141 77.6034L64.5142 77.6038L65.514 77.5866ZM60.4015 68.1473L59.6483 68.8051L59.6489 68.8057L60.4015 68.1473ZM59.3321 29.3747L58.7483 28.5627L58.7481 28.5629L59.3321 29.3747ZM79.3563 16L80.2474 16.4539L78.5165 15.4571L79.3563 16ZM59.7679 30.3458L60.3203 31.1793L60.3204 31.1793L59.7679 30.3458ZM50.2838 53.6012L49.5022 52.9773L50.9589 54.3388L50.2838 53.6012ZM50.495 51.1768L49.5614 51.5351L51.4862 51.0443L50.495 51.1768ZM50.5318 40.6543L49.7269 41.2477L49.7371 41.2616L49.7478 41.2751L50.5318 40.6543ZM45.5803 39.5814L45.3319 40.55L45.9176 40.7002L46.3227 40.2513L45.5803 39.5814ZM44.1923 39.9141L44.3683 40.8985L44.5697 40.8625L44.7408 40.7503L44.1923 39.9141ZM42.7139 40.3284L42.3727 39.3884L40.8593 39.9377L42.0225 41.0508L42.7139 40.3284ZM44.0046 42.0804L44.9962 42.2094L44.9963 42.2091L44.0046 42.0804ZM42.8245 44.0532L42.0073 43.4768L42.0065 43.4781L42.8245 44.0532ZM40.9505 59.5092L41.8788 59.1374L41.8782 59.1359L40.9505 59.5092ZM42.0401 61.6382V62.6382H43.846L42.8876 61.1075L42.0401 61.6382ZM41.9965 61.645L42.2353 62.6161L42.2419 62.6144L41.9965 61.645ZM42.6904 63.8826L42.6134 64.8796L46.2218 65.1585L43.2684 63.0665L42.6904 63.8826ZM42.3954 62.1849L43.2213 61.621L42.7985 61.0017L42.0856 61.2341L42.3954 62.1849ZM57.981 70.9078L57.9096 71.9052L58.1444 69.9212L57.981 70.9078ZM41.6512 59.2138L40.7304 59.6039L40.7306 59.6043L41.6512 59.2138ZM43.5621 44.6134L44.3576 45.2193L44.358 45.2189L43.5621 44.6134ZM44.95 42.2094L45.9413 42.3413L45.9416 42.3391L44.95 42.2094ZM44.5242 40.8071L44.0466 39.9286L43.017 40.4883L43.7317 41.417L44.5242 40.8071ZM45.9524 40.6611L45.6403 41.6112L46.3068 41.8301L46.7395 41.2779L45.9524 40.6611ZM49.7641 41.3164L48.9593 41.9099L48.9598 41.9106L49.7641 41.3164ZM48.8523 62.4701L48.8354 63.4699L49.8973 63.4878L49.8513 62.4268L48.8523 62.4701ZM48.8556 64.4225L48.7782 65.4195L52.3884 65.6997L49.4337 63.6065L48.8556 64.4225ZM48.0745 61.903L48.3116 62.8745L48.3156 62.8735L48.0745 61.903ZM47.7359 41.072L48.7013 40.8111L48.698 40.7991L47.7359 41.072ZM47.3235 41.819L47.5907 42.7827L47.6029 42.7792L47.3235 41.819ZM46.5894 41.4013L47.5541 41.1379L47.5522 41.1312L46.5894 41.4013ZM47.0017 40.6543L46.7319 39.6914L46.7251 39.6934L47.0017 40.6543ZM22.3812 17.4872L23.2919 17.0741L21.4331 17.8051L22.3812 17.4872ZM41.792 44.6881L40.7975 44.7928L42.7917 44.664L41.792 44.6881ZM34.9027 45.4996L35.0609 46.487L34.9841 44.503L34.9027 45.4996ZM22.4214 34.6987L22.9005 33.821L20.478 32.4987L21.4913 35.0659L22.4214 34.6987ZM26.0622 35.4559L26.1223 36.4541L26.3362 34.4942L26.0622 35.4559ZM21 33.2149L21.4877 32.3419L19.1178 31.0181L20.0625 33.5629L21 33.2149ZM35.7877 51.4213L35.9127 52.4134L35.9174 50.4297L35.7877 51.4213ZM22.9612 43.3979L23.1205 42.4106L20.9932 42.0674L22.1044 43.9136L22.9612 43.3979ZM26.5416 42.9055L26.9015 43.8385L26.5124 41.9059L26.5416 42.9055ZM21.4291 42.4064L21.7052 41.4453L19.341 40.7661L20.5607 42.9022L21.4291 42.4064ZM38.1881 56.2632L38.5259 57.2044L38.0992 55.2672L38.1881 56.2632ZM24.7883 52.2192L24.6754 51.2256L22.2686 51.499L24.1673 53.0031L24.7883 52.2192ZM29.5588 50.6947L30.2579 51.4097L29.1315 49.7906L29.5588 50.6947ZM26.4679 52.5859L26.2278 51.6152L24.2556 52.103L25.845 53.3683L26.4679 52.5859ZM39.9414 57.9677L40.6523 58.671L39.4284 57.1093L39.9414 57.9677ZM31.0239 59.3836L30.49 58.538L28.447 59.8278L30.804 60.3591L31.0239 59.3836ZM33.3874 57.1528L34.3236 57.5042L32.6132 56.5198L33.3874 57.1528ZM32.1034 59.1222L31.4668 58.351L29.8993 59.6448L31.8808 60.0971L32.1034 59.1222ZM50.6592 58.2122L51.2458 57.4023L49.8889 58.8499L50.6592 58.2122ZM63.7908 61.5058L63.9236 62.4969L66.3201 62.1759L64.3969 60.7104L63.7908 61.5058ZM60.549 57.8591L61.3763 57.2973L59.5847 58.1238L60.549 57.8591ZM62.2118 60.9727L62.3473 61.9635L64.3647 61.6877L62.9131 60.2598L62.2118 60.9727ZM55.9494 56.3175L56.1876 55.3463L55.4747 57.1977L55.9494 56.3175ZM71.3875 54.1071L71.8847 54.9747L73.98 53.7741L71.6493 53.142L71.3875 54.1071ZM66.3756 51.625L66.932 50.7941L65.5789 52.2294L66.3756 51.625ZM69.4766 54.2293L69.9755 55.096L71.7352 54.0829L69.8595 53.3055L69.4766 54.2293ZM59.9959 51.2108L60.0171 50.211L59.723 52.1728L59.9959 51.2108ZM77.308 43.6797L78.0934 44.2986L79.6109 42.3728L77.1794 42.688L77.308 43.6797ZM71.5853 43.3707L71.765 42.387L71.0899 44.2393L71.5853 43.3707ZM75.4574 44.515L76.2284 45.1518L77.6 43.4914L75.4465 43.515L75.4574 44.515ZM62.6577 44.0769L62.7274 43.0794L62.3527 45.0293L62.6577 44.0769ZM80 32.8652L80.8759 33.3476L82.1763 30.9867L79.6507 31.9282L80 32.8652ZM74.0494 34.4848L73.9232 33.4928L73.8389 35.4624L74.0494 34.4848ZM78.1897 34.2607L79.0556 34.7609L80.4282 32.385L77.8487 33.3206L78.1897 34.2607ZM69.3626 35.3676L69.1552 34.3894L69.2884 36.3649L69.3626 35.3676ZM79.4033 16.5433L80.3741 16.3034L78.4062 16.6192L79.4033 16.5433ZM28.6973 36.006L28.6204 37.003L29.0492 35.07L28.6973 36.006ZM22.2672 17.9626L23.2425 18.1837L21.3421 17.583L22.2672 17.9626ZM25.831 30.261L24.9176 29.8539L24.9163 29.8568L25.831 30.261ZM31.2251 32.4374L31.5081 33.3966L32.7092 33.0421L32.0978 31.9492L31.2251 32.4374ZM36.1934 37.1707L37.1691 37.3903L37.1705 37.3835L36.1934 37.1707ZM39.0296 37.6868L39.5011 38.5687L40.6056 37.9781L39.7852 37.0318L39.0296 37.6868ZM29.1365 33.4663L28.1593 33.2541L28.1585 33.2579L29.1365 33.4663ZM34.1451 34.3525L34.6224 35.2312L35.7162 34.6372L34.9004 33.6971L34.1451 34.3525ZM33.2131 35.7107L34.2031 35.8518L34.2031 35.8518L33.2131 35.7107ZM37.0886 36.1011L37.6303 36.9417L38.678 36.2664L37.7917 35.3901L37.0886 36.1011ZM36.9712 33.1607L37.3978 34.0651L37.3978 34.0651L36.9712 33.1607ZM38.3457 35.8499L37.9239 36.7566L39.0829 37.2957L39.3273 36.0411L38.3457 35.8499ZM34.8122 31.6803L35.2845 32.5617L35.2845 32.5617L34.8122 31.6803ZM36.4415 34.4951L36.0709 35.4239L37.2469 35.8931L37.4309 34.6404L36.4415 34.4951ZM32.5761 30.1489L33.0742 31.0161L33.0782 31.0137L32.5761 30.1489ZM34.6547 33.4866L34.3107 34.4256L35.5036 34.8626L35.6482 33.6005L34.6547 33.4866ZM29.1365 29.0726L28.4269 28.3679L28.4269 28.3679L29.1365 29.0726ZM32.8779 32.5665L32.7953 33.5631L34.0541 33.6674L33.8668 32.4182L32.8779 32.5665ZM42.8783 40.2707L43.18 41.2241L44.7293 40.7338L43.5934 39.5717L42.8783 40.2707ZM31.386 32.5054L31.6548 31.5422L31.0635 33.4519L31.386 32.5054ZM48.5137 51.7813L47.514 51.8048L47.5141 51.8095L48.5137 51.7813ZM49.3921 51.6319L48.3966 51.7271L48.397 51.7311L49.3921 51.6319ZM43.9175 41.2486L44.7074 40.6354L43.9599 39.6726L43.1617 40.5938L43.9175 41.2486ZM43.7734 41.415L42.9535 41.9876L43.6885 43.04L44.5291 42.0698L43.7734 41.415ZM55.4393 62.4547C56.8413 65.0381 58.3323 66.3269 60.2756 68.2818L61.694 66.8718C59.668 64.8337 58.4302 63.7728 57.1971 61.5008L55.4393 62.4547ZM60.2756 68.2818C62.8293 70.8511 65.3636 73.4686 65.4361 77.5872L67.4358 77.552C67.3474 72.5301 64.1892 69.3822 61.6941 66.8719L60.2756 68.2818ZM65.4361 77.5867C65.4537 78.6215 64.9766 79.5663 64.1771 80.3141C63.371 81.0682 62.2865 81.5696 61.239 81.7011L61.4883 83.6856C62.9551 83.5013 64.4303 82.816 65.5434 81.7747C66.6633 80.7272 67.4651 79.2681 67.4358 77.5526L65.4361 77.5867ZM60.6719 81.9712C59.6698 82.9312 58.2938 83.2831 57.3197 82.7425L56.3493 84.4913C58.3856 85.6213 60.704 84.7101 62.0554 83.4155L60.6719 81.9712ZM56.5534 82.6572C55.5307 82.9567 55.1298 82.7005 54.9373 82.4721C54.6585 82.1413 54.4565 81.4502 54.5394 80.3729L52.5453 80.2195C52.4472 81.4952 52.6273 82.8346 53.4079 83.7609C54.2749 84.7897 55.6105 85.0173 57.1155 84.5766L56.5534 82.6572ZM54.5395 80.3722C54.8068 76.867 53.8766 71.8914 51.1103 68.792L49.6182 70.1238C51.9007 72.6812 52.7875 77.0431 52.5453 80.2201L54.5395 80.3722ZM49.7701 70.2623C51.0339 71.1956 52.0225 72.9421 52.6675 74.9376C53.3065 76.9143 53.5504 78.9559 53.4598 80.3002L55.4553 80.4347C55.5659 78.7944 55.2734 76.4967 54.5706 74.3224C53.8738 72.167 52.7151 69.951 50.9583 68.6535L49.7701 70.2623ZM53.4598 80.3011C53.3973 81.2406 53.4398 82.2587 53.9679 82.9823C54.6113 83.8641 55.6415 83.9445 56.6018 83.7349L56.1754 81.7809C55.8576 81.8502 55.6903 81.8365 55.6208 81.8202C55.5795 81.8106 55.5861 81.807 55.5834 81.8034C55.5635 81.776 55.5072 81.6766 55.4709 81.4305C55.4351 81.1883 55.4269 80.8615 55.4554 80.4339L53.4598 80.3011ZM57.3796 82.8918C57.6494 80.8948 57.5088 78.9194 56.9585 76.9778L55.0343 77.5231C55.5098 79.201 55.6306 80.8995 55.3976 82.624L57.3796 82.8918ZM55.1431 77.7719C56.0845 79.3124 56.372 81.0418 56.2915 82.7446L58.2893 82.839C58.3831 80.8543 58.0538 78.6994 56.8496 76.729L55.1431 77.7719ZM56.8443 83.6868C58.6708 84.5971 60.3689 83.7446 61.5024 82.6581L60.1186 81.2142C59.254 82.0428 58.4579 82.2564 57.7365 81.8968L56.8443 83.6868ZM61.8094 81.9836C61.9194 79.6672 60.9855 77.1285 59.5338 75.4044L58.0039 76.6925C59.1538 78.0582 59.8961 80.1102 59.8116 81.8887L61.8094 81.9836ZM58.2049 76.8742C58.8277 77.2996 59.4203 78.0312 59.8811 78.9408C60.3386 79.8439 60.6296 80.8514 60.7021 81.7579L62.6957 81.5984C62.6006 80.4098 62.2295 79.1509 61.6653 78.0371C61.1044 76.9298 60.3158 75.894 59.3328 75.2227L58.2049 76.8742ZM61.9287 82.6513C64.0794 82.1435 66.5625 80.4001 66.5139 77.5694L64.5142 77.6038C64.5393 79.0649 63.2006 80.296 61.4691 80.7049L61.9287 82.6513ZM66.5139 77.5698C66.436 72.9255 63.3007 69.9424 61.1541 67.4888L59.6489 68.8057C61.9879 71.4793 64.4513 73.8541 64.5141 77.6034L66.5139 77.5698ZM61.1547 67.4895C59.3904 65.4693 58.1425 64.1286 57.2606 61.6433L55.3758 62.3121C56.4048 65.212 57.9194 66.8254 59.6483 68.8051L61.1547 67.4895ZM59.9158 30.1866C63.8069 27.3891 67.1573 26.3969 70.5515 24.8531C73.9521 23.3063 77.1282 21.2889 80.1961 16.5429L78.5165 15.4571C75.7043 19.8075 72.866 21.6032 69.7234 23.0325C66.5745 24.4648 62.8528 25.6118 58.7483 28.5627L59.9158 30.1866ZM78.4653 15.5461C76.1041 20.1807 73.7937 22.0073 70.9059 23.489C68.0061 24.9767 64.125 26.2578 59.2154 29.5123L60.3204 31.1793C65.1329 27.9892 68.5853 26.9274 71.8189 25.2684C75.0643 23.6033 77.6871 21.4794 80.2474 16.4539L78.4653 15.5461ZM59.2155 29.5122C57.368 30.7366 56.1825 32.6503 55.3437 34.7681C54.5052 36.8851 53.973 39.3125 53.501 41.666C53.0219 44.0547 52.6067 46.3538 52.0041 48.3562C51.3987 50.3682 50.6496 51.9107 49.6086 52.8635L50.9589 54.3388C52.4071 53.0133 53.2844 51.0423 53.9193 48.9326C54.557 46.8133 54.996 44.3823 55.4619 42.0593C55.9349 39.7013 56.4384 37.4355 57.2031 35.5046C57.9676 33.5745 58.9528 32.0856 60.3203 31.1793L59.2155 29.5122ZM51.0653 54.225C52.2403 52.753 52.9232 50.7239 53.4252 48.5745C53.9274 46.4242 54.2872 43.9574 54.7142 41.6192C55.1488 39.24 55.6611 36.9366 56.4749 34.9324C57.2864 32.9338 58.3725 31.2969 59.9161 30.1864L58.7481 28.5629C56.7967 29.9668 55.5189 31.9706 54.6218 34.18C53.727 36.3839 53.1859 38.8557 52.7468 41.2598C52.3001 43.705 51.9657 46.0296 51.4776 48.1196C50.9893 50.2104 50.3857 51.8705 49.5022 52.9773L51.0653 54.225ZM51.4862 51.0443C51.4105 50.478 51.4671 49.7356 51.6034 48.8211C51.6703 48.3727 51.7524 47.9051 51.8388 47.4158C51.9244 46.931 52.0141 46.4252 52.0915 45.9207C52.245 44.9194 52.3604 43.8622 52.2947 42.8716C52.2289 41.8791 51.976 40.8673 51.3159 40.0336L49.7478 41.2751C50.065 41.6756 50.2483 42.2389 50.2991 43.004C50.35 43.7712 50.2623 44.6542 50.1146 45.6176C50.0413 46.0955 49.9558 46.5781 49.8693 47.068C49.7836 47.5535 49.6967 48.0471 49.6253 48.5263C49.4851 49.4671 49.3884 50.4461 49.5038 51.3093L51.4862 51.0443ZM51.3368 40.061C50.6594 39.142 49.5621 38.3816 48.4163 38.0559C47.2646 37.7284 45.8431 37.7974 44.8378 38.9114L46.3227 40.2513C46.6349 39.9053 47.1462 39.774 47.8693 39.9796C48.5984 40.1869 49.3181 40.6931 49.7269 41.2477L51.3368 40.061ZM45.8286 38.6127C44.8727 38.3676 44.0533 38.8094 43.6439 39.078L44.7408 40.7503C44.8699 40.6656 44.9952 40.6017 45.108 40.5678C45.2158 40.5353 45.2846 40.5379 45.3319 40.55L45.8286 38.6127ZM44.0164 38.9297C43.492 39.0234 42.9934 39.1631 42.3727 39.3884L43.0551 41.2684C43.5944 41.0726 43.9808 40.9678 44.3683 40.8985L44.0164 38.9297ZM42.0225 41.0508C42.3014 41.3178 42.5556 41.5243 42.8017 41.8001C42.9146 41.9267 42.9793 42.0197 43.0099 42.078C43.044 42.143 42.9954 42.0867 43.0129 41.9517L44.9963 42.2091C45.0524 41.777 44.9149 41.4041 44.7808 41.1485C44.6431 40.8863 44.4601 40.6548 44.294 40.4686C43.9819 40.1188 43.5521 39.7464 43.4053 39.6059L42.0225 41.0508ZM43.013 41.9514C43.0153 41.9333 43.0034 42.0212 42.8079 42.3278C42.6225 42.6184 42.3682 42.9652 42.0073 43.4768L43.6417 44.6295C43.9682 44.1667 44.2754 43.7461 44.494 43.4034C44.7024 43.0767 44.9369 42.6655 44.9962 42.2094L43.013 41.9514ZM42.0065 43.4781C38.5297 48.4237 37.5725 53.7934 40.0228 59.8826L41.8782 59.1359C39.7021 53.7281 40.5217 49.0677 43.6426 44.6283L42.0065 43.4781ZM40.0222 59.8811C40.3341 60.6598 40.7272 61.4258 41.1925 62.1689L42.8876 61.1075C42.4812 60.4584 42.1435 59.7984 41.8788 59.1374L40.0222 59.8811ZM42.0401 60.6382C41.8846 60.6382 41.7612 60.673 41.751 60.6756L42.2419 62.6144C42.2585 62.6102 42.162 62.6382 42.0401 62.6382V60.6382ZM41.7577 60.6739C40.5704 60.9658 40.0994 62.0832 40.305 63.0338C40.5173 64.0154 41.3822 64.7845 42.6134 64.8796L42.7675 62.8856C42.5334 62.8675 42.4105 62.7965 42.352 62.7481C42.2902 62.697 42.2671 62.6448 42.2598 62.6109C42.2515 62.5728 42.2636 62.567 42.2525 62.5867C42.2339 62.6198 42.2079 62.6228 42.2353 62.6161L41.7577 60.6739ZM43.2684 63.0665C43.2719 63.069 43.2608 63.0614 43.2391 63.0378C43.2181 63.015 43.1934 62.9838 43.1681 62.9453C43.1146 62.8641 43.0786 62.7811 43.0625 62.7211C43.0427 62.6475 43.0713 62.6846 43.0381 62.7908C43.0185 62.8534 42.9785 62.9331 42.9068 63.0063C42.8344 63.0801 42.758 63.1185 42.7053 63.1356L42.0856 61.2341C41.6027 61.3914 41.2683 61.7494 41.1293 62.1935C41.0078 62.5819 41.0562 62.9615 41.1308 63.2394C41.2755 63.7787 41.6365 64.3615 42.1124 64.6986L43.2684 63.0665ZM41.5696 62.7487C44.8449 67.5456 51.1026 71.4181 57.9096 71.9052L58.0524 69.9103C51.8586 69.4671 46.1547 65.9171 43.2213 61.621L41.5696 62.7487ZM58.1444 69.9212C50.818 68.708 45.0383 64.6386 42.5718 58.8234L40.7306 59.6043C43.5207 66.1824 49.9708 70.5949 57.8177 71.8943L58.1444 69.9212ZM42.572 58.8238C40.5297 54.0026 41.2619 49.2842 44.3576 45.2193L42.7665 44.0075C39.2579 48.6147 38.3944 54.0894 40.7304 59.6039L42.572 58.8238ZM44.358 45.2189C44.7638 44.6854 45.121 44.2075 45.3859 43.7716C45.6533 43.3315 45.8718 42.8636 45.9413 42.3413L43.9587 42.0776C43.941 42.2106 43.8762 42.4048 43.6768 42.733C43.4749 43.0652 43.1817 43.4617 42.7662 44.008L44.358 45.2189ZM45.9416 42.3391C46.0494 41.5145 45.8013 40.8269 45.3167 40.1973L43.7317 41.417C43.9579 41.7109 43.9847 41.879 43.9584 42.0798L45.9416 42.3391ZM45.0019 41.6857C45.2392 41.5567 45.4304 41.5422 45.6403 41.6112L46.2645 39.7111C45.4821 39.4541 44.7212 39.5618 44.0466 39.9286L45.0019 41.6857ZM46.7395 41.2779C47.0158 40.9253 47.3103 40.8618 47.6608 40.9485C48.0801 41.0523 48.5787 41.3938 48.9593 41.9099L50.569 40.723C49.9807 39.925 49.1149 39.248 48.1412 39.0071C47.0987 38.7491 45.9718 39.015 45.1652 40.0443L46.7395 41.2779ZM48.9598 41.9106C49.2519 42.306 49.4223 42.8488 49.4845 43.5756C49.5469 44.3052 49.4943 45.132 49.4104 46.0428C49.3293 46.9218 49.216 47.9022 49.1935 48.81C49.1708 49.7194 49.2325 50.6781 49.5614 51.5351L51.4286 50.8185C51.2395 50.3258 51.1725 49.6773 51.1928 48.8598C51.2132 48.0408 51.3145 47.175 51.4019 46.2264C51.4864 45.3095 51.5562 44.3274 51.4772 43.405C51.398 42.4797 51.1631 41.5272 50.5685 40.7222L48.9598 41.9106ZM48.8691 61.4702C48.3614 61.4617 47.804 61.6195 47.444 62.1118C47.1144 62.5626 47.1132 63.0788 47.1707 63.4289C47.2313 63.7973 47.3804 64.1491 47.5572 64.4403C47.7321 64.7282 47.9751 65.0241 48.2775 65.2384L49.4337 63.6065C49.4127 63.5916 49.3422 63.5264 49.2666 63.402C49.1931 63.2809 49.1549 63.1695 49.1442 63.1045C49.1305 63.0213 49.1741 63.1341 49.0584 63.2924C48.9963 63.3773 48.9183 63.4299 48.8556 63.4554C48.801 63.4777 48.7843 63.4691 48.8354 63.4699L48.8691 61.4702ZM48.933 63.4255C48.6461 63.4032 48.4821 63.3147 48.3938 63.2417C48.3024 63.166 48.2611 63.0821 48.2469 63.0163C48.2317 62.9462 48.2481 62.9081 48.2519 62.9014C48.2533 62.8989 48.254 62.8981 48.2563 62.8964C48.2583 62.8948 48.273 62.8839 48.3116 62.8745L47.8373 60.9316C46.5752 61.2397 46.0726 62.424 46.2921 63.439C46.5182 64.4847 47.4416 65.3157 48.7782 65.4195L48.933 63.4255ZM48.3156 62.8735C48.1779 62.9077 48.0735 62.8675 48.0137 62.8253C47.9479 62.7789 47.8602 62.6743 47.8532 62.5133L49.8513 62.4268C49.8047 61.3511 48.7457 60.7059 47.8334 60.9325L48.3156 62.8735ZM46.7705 41.3328C46.719 41.1421 46.8237 40.9229 47.0442 40.8588L47.6029 42.7792C48.4536 42.5317 48.9271 41.6469 48.7013 40.8111L46.7705 41.3328ZM47.0564 40.8553C47.272 40.7956 47.4954 40.9232 47.554 41.1379L45.6247 41.6648C45.8576 42.5178 46.7382 43.0189 47.5907 42.7826L47.0564 40.8553ZM47.5522 41.1312C47.6083 41.3313 47.4945 41.5531 47.2783 41.6153L46.7251 39.6934C45.8719 39.9389 45.3893 40.8262 45.6265 41.6715L47.5522 41.1312ZM47.2715 41.6173C47.0444 41.6809 46.8303 41.5441 46.7738 41.3448L48.698 40.7991C48.4604 39.9615 47.5893 39.4512 46.7319 39.6914L47.2715 41.6173ZM21.4705 17.9003C24.8613 25.3744 29.9488 27.1425 33.8027 29.4836C35.7183 30.6472 37.3609 31.9503 38.5814 34.15C39.8133 36.3703 40.6688 39.6028 40.7923 44.7123L42.7917 44.664C42.6638 39.3715 41.7751 35.7839 40.3303 33.1797C38.874 30.5551 36.9073 29.0295 34.841 27.7743C30.7311 25.2777 26.3647 23.8473 23.2919 17.0741L21.4705 17.9003ZM42.7865 44.5835C42.2464 39.4503 41.026 35.9451 39.3636 33.3736C37.6972 30.7958 35.6379 29.2379 33.5822 27.9314C29.4857 25.3278 25.5311 23.736 23.3293 17.1693L21.4331 17.8051C23.9047 25.1767 28.5977 27.1332 32.5094 29.6193C34.4579 30.8577 36.2428 32.23 37.684 34.4594C39.1292 36.695 40.2799 39.8737 40.7975 44.7928L42.7865 44.5835ZM34.9841 44.503C32.0559 44.2636 29.7771 43.2434 27.928 41.5621C26.0604 39.8639 24.5801 37.4439 23.3516 34.3316L21.4913 35.0659C22.7838 38.3404 24.4079 41.0645 26.5825 43.0418C28.7757 45.0361 31.477 46.223 34.8212 46.4963L34.9841 44.503ZM21.9424 35.5765C23.3384 36.3385 24.5532 36.5485 26.1223 36.4541L26.0022 34.4577C24.7485 34.5331 23.9182 34.3764 22.9005 33.821L21.9424 35.5765ZM26.3362 34.4942C24.7088 34.0305 23.029 33.2028 21.4877 32.3419L20.5123 34.0879C22.0955 34.9722 23.9358 35.8898 25.7882 36.4176L26.3362 34.4942ZM20.0625 33.5629C21.6726 37.9 23.7202 41.3744 26.2137 43.6497C28.7377 45.9528 31.7211 47.0221 35.0609 46.487L34.7445 44.5122C32.0867 44.938 29.6994 44.1229 27.5618 42.1723C25.3937 40.194 23.4888 37.0456 21.9375 32.8669L20.0625 33.5629ZM35.9174 50.4297C33.7005 50.1398 31.5331 49.6536 29.4992 48.5544C27.4785 47.4623 25.5353 45.7352 23.818 42.8822L22.1044 43.9136C23.9944 47.0534 26.1931 49.041 28.5482 50.3138C30.8901 51.5795 33.3323 52.1086 35.658 52.4128L35.9174 50.4297ZM22.8019 44.3851C24.4119 44.6449 25.5908 44.3441 26.9015 43.8385L26.1818 41.9725C25.0451 42.4109 24.2461 42.5922 23.1205 42.4106L22.8019 44.3851ZM26.5124 41.9059C24.7991 41.956 23.398 41.9316 21.7052 41.4453L21.153 43.3675C23.1479 43.9406 24.7976 43.9569 26.5708 43.9051L26.5124 41.9059ZM20.5607 42.9022C23.0903 47.3323 25.9064 49.8597 28.6417 51.2023C31.3764 52.5446 33.9457 52.6613 35.9127 52.4134L35.6627 50.4291C33.9923 50.6396 31.833 50.5408 29.523 49.4069C27.2137 48.2734 24.6692 46.0641 22.2975 41.9105L20.5607 42.9022ZM37.8503 55.322C36.2889 55.8824 34.8262 56.153 32.9847 55.7167C31.0984 55.2698 28.7204 54.0584 25.4092 51.4354L24.1673 53.0031C27.5812 55.7075 30.2286 57.1191 32.5236 57.6628C34.8635 58.2172 36.7382 57.846 38.5259 57.2044L37.8503 55.322ZM24.9011 53.2128C26.8928 52.9866 28.4017 52.3477 29.9862 51.5988L29.1315 49.7906C27.5982 50.5153 26.3312 51.0376 24.6754 51.2256L24.9011 53.2128ZM28.8598 49.9796C27.952 50.8671 27.2839 51.3539 26.2278 51.6152L26.708 53.5567C28.26 53.1728 29.2346 52.4101 30.2579 51.4097L28.8598 49.9796ZM25.845 53.3683C28.375 55.3823 30.5565 56.457 32.6051 56.9709C34.6499 57.4838 36.4907 57.4187 38.277 57.2592L38.0992 55.2672C36.3855 55.4201 34.8101 55.462 33.0917 55.0309C31.3773 54.6009 29.4487 53.6807 27.0907 51.8036L25.845 53.3683ZM39.2305 57.2644C38.5002 58.0026 37.7777 58.5254 36.673 58.7702C35.5248 59.0247 33.8674 58.9995 31.2438 58.4081L30.804 60.3591C33.5577 60.9799 35.5461 61.0685 37.1058 60.7228C38.7091 60.3675 39.7567 59.5762 40.6523 58.671L39.2305 57.2644ZM31.5577 60.2292C32.7045 59.5052 33.4345 58.675 34.1615 57.7858L32.6132 56.5198C31.9188 57.3691 31.3547 57.9922 30.49 58.538L31.5577 60.2292ZM32.4511 56.8014C32.1688 57.5535 31.9417 57.9589 31.4668 58.351L32.7399 59.8934C33.606 59.1785 33.989 58.3955 34.3236 57.5042L32.4511 56.8014ZM31.8808 60.0971C33.9454 60.5683 35.5644 60.5863 36.9596 60.297C38.3503 60.0087 39.446 59.4287 40.4544 58.8261L39.4284 57.1093C38.4823 57.6747 37.6152 58.1185 36.5536 58.3387C35.4964 58.5578 34.1736 58.569 32.3259 58.1472L31.8808 60.0971ZM49.8889 58.8499C51.069 60.2754 52.4556 61.5208 54.6821 62.2246C56.8662 62.9149 59.7641 63.0541 63.9236 62.4969L63.6581 60.5146C59.6308 61.0541 57.0677 60.881 55.2849 60.3175C53.5446 59.7675 52.4587 58.8177 51.4296 57.5745L49.8889 58.8499ZM64.3969 60.7104C63.1076 59.7279 62.3058 58.666 61.3763 57.2973L59.7217 58.4209C60.683 59.8363 61.6312 61.1174 63.1847 62.3012L64.3969 60.7104ZM59.5847 58.1238C59.9546 59.4712 60.3988 60.5919 61.5106 61.6856L62.9131 60.2598C62.1609 59.5199 61.8407 58.7867 61.5133 57.5943L59.5847 58.1238ZM62.0764 59.9819C59.206 60.3743 57.1581 60.1836 55.526 59.6918C53.8895 59.1987 52.5993 58.3827 51.2458 57.4023L50.0726 59.0221C51.4849 60.045 52.9908 61.0167 54.9489 61.6067C56.9115 62.1981 59.2569 62.386 62.3473 61.9635L62.0764 59.9819ZM55.4747 57.1977C57.3297 58.1982 59.3142 58.9131 61.956 58.697C64.5524 58.4846 67.6855 57.3809 71.8847 54.9747L70.8903 53.2394C66.8056 55.5801 63.9696 56.5256 61.793 56.7037C59.6617 56.878 58.0691 56.3247 56.4242 55.4374L55.4747 57.1977ZM71.6493 53.142C69.8337 52.6495 68.5127 51.8525 66.932 50.7941L65.8192 52.456C67.4435 53.5435 68.9854 54.4917 71.1258 55.0722L71.6493 53.142ZM65.5789 52.2294C66.5385 53.4944 67.4737 54.4817 69.0938 55.1531L69.8595 53.3055C68.7104 52.8293 68.0364 52.1596 67.1723 51.0206L65.5789 52.2294ZM68.9777 53.3627C66.0593 55.0428 63.7665 55.7408 61.786 55.9294C59.8014 56.1184 58.0561 55.8044 56.1876 55.3463L55.7113 57.2888C57.6512 57.7644 59.6556 58.1414 61.9756 57.9204C64.2997 57.699 66.8662 56.886 69.9755 55.096L68.9777 53.3627ZM59.723 52.1728C61.8359 52.772 64.6652 53.0728 67.8755 52.0596C71.0867 51.0461 74.5885 48.7465 78.0934 44.2986L76.5225 43.0607C73.2153 47.2577 70.0305 49.2822 67.2735 50.1523C64.5156 51.0227 62.095 50.7666 60.2687 50.2487L59.723 52.1728ZM77.1794 42.688C75.2135 42.9428 73.6498 42.7313 71.765 42.387L71.4056 44.3544C73.3493 44.7095 75.1582 44.9667 77.4365 44.6714L77.1794 42.688ZM71.0899 44.2393C72.4428 45.011 73.6719 45.5346 75.4684 45.5149L75.4465 43.515C74.1452 43.5293 73.2757 43.1836 72.0808 42.5021L71.0899 44.2393ZM74.6864 43.8781C72.3126 46.7519 69.8707 48.3428 67.4438 49.215C65.0024 50.0923 62.5169 50.2642 60.0171 50.211L59.9746 52.2105C62.5839 52.266 65.3484 52.0932 68.1201 51.0971C70.9062 50.0959 73.6406 48.2845 76.2284 45.1518L74.6864 43.8781ZM62.3527 45.0293C65.9096 46.1684 69.3391 45.5007 72.476 43.4008C75.5782 41.3241 78.3945 37.8528 80.8759 33.3476L79.1241 32.3827C76.7243 36.7397 74.0979 39.9082 71.3634 41.7388C68.6637 43.5461 65.8627 44.0533 62.9627 43.1246L62.3527 45.0293ZM79.6507 31.9282C77.8033 32.6168 75.808 33.253 73.9232 33.4928L74.1756 35.4768C76.2936 35.2073 78.4621 34.5057 80.3493 33.8022L79.6507 31.9282ZM73.8389 35.4624C75.5411 35.8289 76.8882 35.7965 78.5307 35.2008L77.8487 33.3206C76.608 33.7707 75.6486 33.8062 74.2599 33.5072L73.8389 35.4624ZM77.3238 33.7605C75.4549 36.9954 73.4167 39.4313 71.0605 41.0032C68.7254 42.5611 66.0208 43.3093 62.7274 43.0794L62.5881 45.0745C66.2979 45.3335 69.4467 44.4842 72.1705 42.667C74.8732 40.8638 77.0993 38.1471 79.0556 34.7609L77.3238 33.7605ZM69.2884 36.3649C73.7323 36.6956 77.0114 33.4473 78.8739 29.474C80.7492 25.4733 81.3838 20.3906 80.3741 16.3034L78.4325 16.7831C79.3202 20.3765 78.7664 24.9911 77.0629 28.6251C75.3467 32.2865 72.6567 34.61 69.4369 34.3704L69.2884 36.3649ZM78.4062 16.6192C78.7048 20.5398 78.1518 24.6548 76.6247 27.9533C75.1055 31.2347 72.6605 33.646 69.1552 34.3894L69.5701 36.3459C73.8458 35.4391 76.7296 32.4872 78.4396 28.7936C80.1418 25.117 80.7186 20.6449 80.4004 16.4673L78.4062 16.6192ZM29.0492 35.07C26.0757 33.9517 24.2422 31.5136 23.3326 28.421C22.4178 25.3107 22.4664 21.6061 23.2425 18.1837L21.292 17.7414C20.4589 21.4155 20.3818 25.4763 21.4139 28.9854C22.4512 32.5122 24.6373 35.5476 28.3453 36.942L29.0492 35.07ZM21.3421 17.583C19.9011 21.0952 19.7972 25.711 20.94 29.5298C22.0741 33.3194 24.5757 36.6911 28.6204 37.003L28.7741 35.0089C25.9496 34.7911 23.8919 32.4177 22.8561 28.9564C21.829 25.5242 21.9447 21.3831 23.1924 18.3421L21.3421 17.583ZM26.7444 30.668C26.6819 30.8082 26.5847 30.9052 26.4976 30.9625C26.4188 31.0144 26.3597 31.0272 26.353 31.0286C26.3494 31.0294 26.4228 31.0175 26.6049 31.0415C26.956 31.0877 27.4626 31.2327 28.025 31.4609C28.5794 31.6859 29.1355 31.9704 29.5827 32.2629C30.0661 32.5791 30.2947 32.8226 30.3524 32.9257L32.0978 31.9492C31.7917 31.402 31.2128 30.9393 30.6774 30.5891C30.1058 30.2153 29.4317 29.8734 28.7771 29.6077C28.1305 29.3453 27.4493 29.1354 26.8662 29.0586C26.5813 29.021 26.251 29.0055 25.9362 29.0726C25.6256 29.1387 25.1505 29.3313 24.9176 29.8539L26.7444 30.668ZM30.9421 31.4783C30.8246 31.513 30.4839 31.5274 29.9101 31.4171C29.3788 31.315 28.775 31.1315 28.2164 30.9075C27.649 30.6799 27.1841 30.4328 26.9043 30.2254C26.758 30.117 26.722 30.0629 26.7311 30.0767C26.7418 30.0933 26.8891 30.3406 26.7457 30.6651L24.9163 29.8568C24.6765 30.3995 24.8751 30.8917 25.0551 31.1681C25.2334 31.4419 25.4846 31.6626 25.7135 31.8323C26.1843 32.1812 26.8223 32.5032 27.4719 32.7637C28.1302 33.0278 28.8573 33.2513 29.5325 33.3812C30.1651 33.5028 30.9065 33.5741 31.5081 33.3966L30.9421 31.4783ZM37.1705 37.3835C37.0865 37.7695 36.7982 37.9217 36.7254 37.9535C36.6485 37.9872 36.618 37.9803 36.6829 37.9756C36.7993 37.9673 37.0136 37.9799 37.2871 38.0302C37.5521 38.079 37.8187 38.1533 38.0304 38.2367C38.1359 38.2783 38.2134 38.3164 38.264 38.3464C38.3219 38.3807 38.3106 38.384 38.274 38.3418L39.7852 37.0318C39.4978 36.7002 39.0727 36.4977 38.7635 36.3759C38.4138 36.2382 38.0205 36.1316 37.6493 36.0633C37.2867 35.9965 36.8887 35.9556 36.5393 35.9808C36.3713 35.9929 36.1447 36.0245 35.9234 36.1214C35.7063 36.2164 35.3256 36.4564 35.2164 36.9579L37.1705 37.3835ZM38.5581 36.8049C38.6152 36.7744 38.5534 36.8164 38.2793 36.8202C38.048 36.8234 37.7692 36.7984 37.5026 36.7502C37.2266 36.7004 37.0235 36.6366 36.9224 36.5894C36.8644 36.5624 36.9043 36.5705 36.9718 36.6392C37.0424 36.7111 37.2604 36.9845 37.169 37.3903L35.2178 36.9511C35.1005 37.4724 35.367 37.8595 35.545 38.0407C35.7198 38.2186 35.9259 38.3316 36.0774 38.4022C36.3951 38.5503 36.7838 38.6528 37.1472 38.7184C37.5201 38.7857 37.9285 38.8252 38.3072 38.82C38.6431 38.8153 39.1138 38.7757 39.5011 38.5687L38.5581 36.8049ZM28.1585 33.2579C28.0381 33.8227 28.3256 34.2496 28.5455 34.4705C28.7625 34.6886 29.0329 34.8401 29.2653 34.9469C29.7448 35.1673 30.3607 35.3302 30.9692 35.4368C31.5871 35.545 32.2581 35.6056 32.8692 35.5939C33.4371 35.583 34.111 35.509 34.6224 35.2312L33.6678 33.4737C33.6009 33.51 33.3378 33.5846 32.8309 33.5943C32.3672 33.6031 31.8257 33.5564 31.3142 33.4668C30.7934 33.3756 30.3631 33.2503 30.1005 33.1297C29.9619 33.066 29.9373 33.0337 29.963 33.0596C29.9916 33.0883 30.1913 33.3144 30.1146 33.6746L28.1585 33.2579ZM34.9004 33.6971C34.5194 33.2581 33.9154 32.9573 33.3912 32.7531C32.8261 32.533 32.1795 32.3603 31.5644 32.2502C30.9578 32.1416 30.3249 32.0835 29.7969 32.1245C29.5395 32.1445 29.2379 32.1927 28.9619 32.3152C28.69 32.436 28.2773 32.7107 28.1593 33.2541L30.1137 33.6785C30.0402 34.0172 29.7906 34.1356 29.7737 34.1431C29.7527 34.1524 29.7978 34.1305 29.9517 34.1185C30.2464 34.0956 30.6949 34.1263 31.2118 34.2189C31.7203 34.3099 32.2393 34.4508 32.6653 34.6168C33.1323 34.7986 33.345 34.9562 33.3898 35.0079L34.9004 33.6971ZM34.2031 35.8518C34.1508 36.2183 33.8938 36.3738 33.849 36.3978C33.8002 36.424 33.8038 36.41 33.9087 36.3939C34.1053 36.3638 34.4277 36.3601 34.817 36.4002C35.1977 36.4394 35.5868 36.5148 35.9051 36.6121C36.265 36.7221 36.3903 36.817 36.3854 36.8122L37.7917 35.3901C37.4331 35.0355 36.9084 34.8274 36.4896 34.6994C36.029 34.5586 35.5104 34.4611 35.022 34.4108C34.5422 34.3613 34.034 34.3514 33.6061 34.4169C33.3986 34.4487 33.1414 34.5079 32.9042 34.6351C32.6711 34.76 32.298 35.0442 32.2231 35.5695L34.2031 35.8518ZM36.5468 35.2606C36.5475 35.2602 36.3984 35.3287 36.0187 35.3644C35.682 35.3961 35.2807 35.3918 34.8974 35.3539C34.5046 35.315 34.191 35.2466 34.0103 35.1793C33.9123 35.1428 33.9222 35.1317 33.9746 35.1772C34.0307 35.2259 34.2587 35.4616 34.2031 35.8518L32.2231 35.5695C32.1449 36.1185 32.4505 36.5024 32.6631 36.6871C32.872 36.8685 33.1173 36.9809 33.3121 37.0535C33.717 37.2043 34.2189 37.2965 34.7003 37.3441C35.1911 37.3927 35.7227 37.4012 36.2062 37.3556C36.6468 37.3141 37.2056 37.2154 37.6303 36.9417L36.5468 35.2606ZM36.5447 32.2562C36.0525 32.4883 35.9155 32.9475 35.8836 33.1946C35.8518 33.4421 35.889 33.6763 35.9269 33.8433C36.0062 34.1934 36.1661 34.576 36.3414 34.9174C36.521 35.2671 36.7448 35.6284 36.9852 35.9365C37.1987 36.2101 37.5214 36.5693 37.9239 36.7566L38.7675 34.9432C38.8197 34.9675 38.7405 34.9349 38.562 34.7061C38.4104 34.5118 38.252 34.2599 38.1206 34.004C37.985 33.7398 37.9052 33.5241 37.8775 33.4015C37.8618 33.3322 37.8787 33.3613 37.8673 33.4501C37.8559 33.5384 37.7802 33.8848 37.3978 34.0651L36.5447 32.2562ZM39.3273 36.0411C39.412 35.6062 39.3117 35.1366 39.2158 34.8039C39.1079 34.4301 38.9474 34.0391 38.7697 33.6901C38.5959 33.3487 38.3802 32.9967 38.1433 32.727C38.0295 32.5974 37.865 32.4336 37.6528 32.3142C37.4469 32.1984 37.018 32.033 36.5447 32.2562L37.3978 34.0651C37.0342 34.2366 36.7352 34.0927 36.672 34.0572C36.6026 34.0181 36.5936 33.9933 36.6407 34.047C36.7258 34.1438 36.8538 34.3351 36.9873 34.5972C37.1168 34.8517 37.2267 35.1245 37.2941 35.3583C37.3734 35.6332 37.3532 35.715 37.3642 35.6586L39.3273 36.0411ZM35.2845 32.5617C34.9359 32.7485 34.6363 32.6222 34.577 32.5928C34.5113 32.5604 34.5074 32.5413 34.5639 32.599C34.6671 32.7046 34.8195 32.9091 34.9794 33.1863C35.1351 33.4561 35.2705 33.7474 35.3575 33.9997C35.4587 34.293 35.4456 34.3945 35.4521 34.3498L37.4309 34.6404C37.4978 34.1848 37.3691 33.6981 37.2483 33.3478C37.1134 32.9566 36.9208 32.5491 36.7118 32.1869C36.5072 31.8321 36.2585 31.4714 35.994 31.2009C35.8666 31.0706 35.6872 30.9106 35.4631 30.7998C35.2452 30.6922 34.8042 30.5501 34.34 30.7988L35.2845 32.5617ZM36.8121 33.5663C36.8527 33.5825 36.7561 33.5409 36.5498 33.3036C36.3723 33.0995 36.1852 32.8337 36.0277 32.5624C35.8654 32.2832 35.7644 32.0496 35.7255 31.9109C35.7038 31.8337 35.7211 31.8544 35.7146 31.9377C35.7081 32.0213 35.6515 32.3651 35.2845 32.5617L34.34 30.7988C33.8573 31.0574 33.7407 31.5259 33.7207 31.7817C33.7007 32.0371 33.7511 32.2773 33.7999 32.4514C33.9021 32.8155 34.0922 33.2122 34.2983 33.5671C34.5091 33.9299 34.7677 34.3021 35.0405 34.6159C35.2846 34.8966 35.6432 35.2532 36.0709 35.4239L36.8121 33.5663ZM33.0782 31.0137C32.748 31.2055 32.4588 31.0905 32.4145 31.0704C32.3643 31.0476 32.3784 31.0425 32.4566 31.1175C32.6028 31.2578 32.8055 31.5151 33.0145 31.8521C33.219 32.1818 33.4005 32.5408 33.5209 32.8567C33.6569 33.2135 33.6608 33.3757 33.6612 33.3728L35.6482 33.6005C35.7055 33.1001 35.5468 32.5565 35.3897 32.1443C35.217 31.6913 34.9748 31.2182 34.7141 30.7979C34.458 30.385 34.1541 29.9744 33.8412 29.6743C33.6898 29.529 33.4862 29.3605 33.2414 29.2494C33.0026 29.1409 32.5418 29.0126 32.0741 29.2841L33.0782 31.0137ZM34.9986 32.5477C35.0177 32.5546 34.9822 32.5438 34.8911 32.4719C34.8067 32.4053 34.7035 32.3092 34.5873 32.1837C34.3541 31.9322 34.1096 31.6071 33.9025 31.276C33.6904 30.937 33.5492 30.6421 33.4893 30.453C33.4569 30.3505 33.4708 30.3483 33.4678 30.4144C33.4647 30.4812 33.4246 30.8148 33.0742 31.0161L32.0781 29.2818C31.5903 29.5619 31.4824 30.0483 31.4699 30.3232C31.4573 30.5974 31.5199 30.8587 31.5827 31.0569C31.7133 31.4691 31.9488 31.924 32.2069 32.3366C32.47 32.7572 32.7891 33.1857 33.1202 33.5431C33.4217 33.8685 33.8391 34.2529 34.3107 34.4256L34.9986 32.5477ZM28.4269 28.3679C28.0171 28.7806 28.0324 29.2989 28.0978 29.6C28.1629 29.8998 28.308 30.1733 28.4458 30.3896C28.7299 30.8358 29.1598 31.3095 29.6144 31.7324C30.0759 32.1618 30.6076 32.5804 31.1275 32.9056C31.6104 33.2077 32.2161 33.515 32.7953 33.5631L32.9605 31.5699C32.8842 31.5636 32.6212 31.4809 32.1881 31.21C31.7919 30.9622 31.3602 30.6249 30.9768 30.2682C30.5866 29.9051 30.2903 29.5626 30.1327 29.3153C30.0496 29.1848 30.045 29.1422 30.0523 29.1757C30.0599 29.2105 30.1093 29.5122 29.8461 29.7772L28.4269 28.3679ZM33.8668 32.4182C33.7808 31.8443 33.4356 31.2635 33.1034 30.8044C32.7459 30.3105 32.2946 29.8118 31.8365 29.3829C31.3847 28.9598 30.8845 28.5654 30.4201 28.3111C30.1939 28.1873 29.9154 28.0626 29.6182 28.0139C29.3273 27.9664 28.8243 27.9678 28.4269 28.3679L29.8461 29.7772C29.5946 30.0304 29.3118 29.9904 29.2954 29.9877C29.2726 29.984 29.3229 29.9905 29.4596 30.0654C29.721 30.2085 30.0832 30.4811 30.4695 30.8428C30.8495 31.1986 31.2121 31.6025 31.4832 31.9771C31.7795 32.3865 31.8777 32.6401 31.8889 32.7147L33.8668 32.4182ZM43.5934 39.5717C42.0558 37.9988 40.1136 36.2894 38.049 34.8293C35.9949 33.3765 33.7643 32.1309 31.6548 31.5422L31.1172 33.4685C32.9133 33.9698 34.9287 35.0721 36.8941 36.4622C38.8492 37.8448 40.7002 39.4732 42.1632 40.9698L43.5934 39.5717ZM31.0635 33.4519C34.0615 34.4736 38.1695 37.4214 41.5702 41.0335C43.2587 42.8269 44.739 44.7491 45.8018 46.6264C46.8713 48.5157 47.4784 50.2898 47.514 51.8048L49.5135 51.7578C49.467 49.784 48.6953 47.6779 47.5422 45.6411C46.3823 43.5921 44.796 41.5421 43.0264 39.6625C39.5109 35.9285 35.1372 32.7272 31.7086 31.5588L31.0635 33.4519ZM47.5141 51.8095C47.5264 52.2433 47.72 52.6422 48.0669 52.9028C48.3897 53.1452 48.7729 53.2148 49.1056 53.1742C49.4421 53.133 49.7916 52.9721 50.0485 52.6688C50.3179 52.3508 50.4282 51.9443 50.3872 51.5327L48.397 51.7311C48.3895 51.6556 48.4089 51.5101 48.5225 51.376C48.6236 51.2566 48.7524 51.2024 48.8631 51.1889C48.9699 51.1759 49.122 51.1939 49.268 51.3036C49.4382 51.4314 49.5095 51.6164 49.5133 51.7531L47.5141 51.8095ZM50.3875 51.5366C49.9652 47.1229 47.0411 43.6411 44.7074 40.6354L43.1276 41.8619C45.5813 45.0222 48.0412 48.0122 48.3966 51.7271L50.3875 51.5366ZM43.1617 40.5938L43.0176 40.7602L44.5291 42.0698L44.6733 41.9035L43.1617 40.5938ZM44.5932 40.8424C44.2248 40.3148 43.592 39.7834 43.4031 39.6038L42.0247 41.053C42.1034 41.1278 42.1968 41.2123 42.2808 41.2888C42.3693 41.3694 42.4573 41.4502 42.5439 41.5336C42.7232 41.7062 42.8638 41.8592 42.9535 41.9876L44.5932 40.8424ZM43.0505 41.27C43.1302 41.2415 43.1498 41.2337 43.18 41.2241L42.5765 39.3173C42.4995 39.3417 42.4116 39.3745 42.3773 39.3867L43.0505 41.27Z" fill="#AC8A74" mask="url(#path-2-outside-1_201_8)"/>
</svg>
