<svg width="316" height="42" viewBox="0 0 316 42" fill="none" xmlns="http://www.w3.org/2000/svg">
<path fill-rule="evenodd" clip-rule="evenodd" d="M10.9485 18.8498C10.2391 19.0247 9.5788 19.2507 8.96766 19.5179C9.52967 19.29 10.1231 19.0856 10.7559 18.9127L10.9485 18.8498ZM4.98443 34.767C4.97264 34.71 4.96478 34.6746 4.96478 34.6746C4.96478 34.6746 4.97264 34.71 4.98443 34.767ZM5.01195 35.0421C3.88006 33.3384 3.75429 32.9512 3.26695 31.0549C3.43005 31.6602 3.57547 32.1574 3.76019 32.629C3.59709 32.177 3.45953 31.6641 3.26695 30.9154C3.67962 32.4502 3.9901 33.3069 5.08662 34.765C5.39514 34.9694 5.57986 34.9655 5.68793 34.8711C5.68597 34.9183 5.68007 34.9694 5.67025 35.0244C5.67614 35.0205 5.684 35.0166 5.68793 35.0126C5.67811 35.2602 5.59165 35.7004 5.09448 35.4783C5.04142 35.158 4.98247 34.8986 4.96871 34.8338C4.97461 34.8652 4.9923 34.9419 5.01195 35.0421ZM2.93092 39.0273C2.93092 39.0293 2.93092 39.0332 2.93092 39.0371C2.92503 39.0607 2.92306 39.0902 2.92699 39.1334C2.92699 39.1334 2.93289 39.2041 2.93485 39.3162C2.93289 39.3613 2.93289 39.4085 2.93092 39.4596C2.93289 39.4596 2.93289 39.4616 2.93485 39.4635C2.93289 39.5068 2.93289 39.552 2.93092 39.5991C3.43398 40.2948 3.73268 39.8939 3.73268 39.8939C3.80342 39.776 3.83683 39.607 3.84665 39.4124C3.84469 39.4144 3.83879 39.4164 3.8329 39.4203C3.84076 39.3731 3.84469 39.3221 3.84665 39.271C3.72678 39.3515 3.4615 39.4144 3.0783 38.8367C2.23332 36.6338 2.18026 34.3504 2.08987 33.1301C2.09183 33.2205 2.09576 33.3069 2.09773 33.3954C2.09576 33.3541 2.09183 33.3089 2.08987 33.2696C2.15078 35.274 2.20384 36.8539 2.91127 39.0725C2.91324 39.0528 2.9211 39.0391 2.93092 39.0273ZM23.018 13.1236C23.3422 13.1039 23.6449 13.0882 23.9337 13.0744C23.6056 13.0823 23.297 13.1019 23.018 13.1236ZM31.4305 4.39663C31.3637 4.42021 31.2871 4.44576 31.1986 4.46737C31.232 4.49881 31.2596 4.52829 31.289 4.5558C31.3676 4.50471 31.4109 4.45165 31.4305 4.39663ZM31.1259 3.69116C31.1829 3.70688 31.2379 3.7226 31.2949 3.7344C31.2419 3.71867 31.1829 3.70492 31.1259 3.69116ZM31.234 3.8582C31.1986 3.85033 31.1633 3.84051 31.1259 3.83068C31.1652 3.84247 31.2026 3.8582 31.2438 3.86802C31.2399 3.86409 31.236 3.86213 31.234 3.8582ZM30.9117 4.6403C30.8941 4.62065 30.8783 4.60296 30.8567 4.58135C30.8705 4.60296 30.8921 4.62261 30.9117 4.6403ZM30.9117 4.78178C30.8941 4.76213 30.8783 4.74445 30.8567 4.72283C30.8705 4.74445 30.8921 4.7641 30.9117 4.78178ZM28.0211 4.08615C29.041 4.14903 29.994 4.34357 30.9589 4.68746C30.953 4.68157 30.9451 4.6737 30.9373 4.66584C29.9744 4.31999 29.0351 4.07632 28.0211 3.94466C29.0429 4.00754 29.9999 4.20405 30.9687 4.5499C31.2596 4.46541 31.3932 4.36322 31.4305 4.25514C31.3971 4.15689 31.3107 4.06256 31.2124 3.98003C29.9547 3.34138 29.2414 3.3512 28.2412 3.21365C29.2512 3.25295 29.939 3.2726 31.1751 3.82282C29.941 3.20382 29.2316 3.20775 28.2412 3.07216C29.2847 3.11343 29.9803 3.12718 31.3008 3.7344C31.4187 3.76191 31.5386 3.78352 31.6585 3.79335C31.7587 3.89553 31.8235 4.01344 31.7842 4.12741C31.8334 4.28265 31.7351 4.44772 31.3107 4.57742C31.5288 4.80733 31.5956 4.98419 31.5622 5.12371C31.6192 5.40275 31.346 5.55996 30.9786 5.64839C31.0847 5.59336 31.1593 5.52459 31.1986 5.44009C31.1318 5.46563 31.0591 5.48725 30.9786 5.5069C31.1043 5.44009 31.1908 5.35559 31.2183 5.24554C31.1947 5.12567 31.1063 4.98026 30.9373 4.80733C29.9744 4.46344 29.0351 4.21781 28.0211 4.08615ZM34.2878 1.42346C34.4253 1.60031 34.5 1.75752 34.5177 1.89901C34.4961 2.04049 34.4174 2.16036 34.2917 2.24879C34.3546 2.23504 34.4116 2.21932 34.4685 2.1977C34.4273 2.27237 34.3664 2.33722 34.2917 2.39028C34.6985 2.30381 34.9696 2.06801 34.9244 1.71822C34.948 1.5394 34.8792 1.32127 34.6788 1.07171C34.5805 1.10118 34.4725 1.12869 34.3585 1.15424C32.9495 0.780875 31.4816 1.12477 30.1454 1.56101C30.7211 1.44311 31.3617 1.31145 32.0063 1.22891C31.3696 1.3311 30.7447 1.50599 30.1454 1.7025C31.4246 1.43918 33.0124 1.09332 34.2878 1.42346ZM32.7766 2.38045C32.7609 2.35294 32.7471 2.32543 32.7294 2.29792C32.7373 2.32543 32.755 2.35294 32.7766 2.38045ZM32.7766 2.52194C32.7609 2.49443 32.7471 2.46692 32.7294 2.43744C32.7373 2.46692 32.755 2.49443 32.7766 2.52194ZM30.1807 2.24093C30.6622 2.15643 31.1417 2.09355 31.6133 2.11517C31.1377 2.07783 30.6523 2.10338 30.1807 2.09748C31.1633 1.92652 32.136 1.84202 33.0537 2.39224C33.0163 2.38438 32.981 2.37456 32.9476 2.3667C33.0498 2.39617 33.1539 2.41779 33.2581 2.43155C33.3524 2.63984 33.3818 2.81474 33.3681 2.96801C33.4074 3.39837 33.1185 3.65383 32.696 3.75208C32.7884 3.69509 32.8631 3.62239 32.9181 3.53789C32.8493 3.56736 32.7766 3.59291 32.696 3.6106C32.869 3.50252 32.981 3.34727 33.0046 3.13897C32.9928 2.97391 32.9259 2.77936 32.7982 2.55731C31.9749 2.14661 31.0552 2.24683 30.1807 2.24093ZM9.80085 10.6633C9.82836 10.5591 9.79889 10.451 9.72225 10.3705C9.60435 10.2762 9.40194 10.2938 9.2919 10.4393C9.21919 10.512 9.19757 10.62 9.22115 10.7163C9.19561 10.8166 9.21722 10.9286 9.30369 10.9895C9.42552 11.0976 9.62596 11.0818 9.73011 10.9443C9.80675 10.8578 9.82444 10.7556 9.80085 10.6633ZM7.59406 31.5501C7.59406 31.5501 7.62551 31.6464 7.65891 31.786C7.69625 31.786 7.72573 31.7919 7.72573 31.7919C8.20324 32.6526 8.92836 32.3244 8.86547 31.784C8.87333 31.725 8.87333 31.6622 8.85958 31.5953C8.66307 31.8587 8.19342 31.8822 7.85935 31.2632C7.85935 31.2632 7.82398 31.2515 7.77682 31.2515C7.77878 31.2515 7.78271 31.2495 7.78468 31.2495C7.35826 30.2807 7.03991 29.0663 6.6351 27.9953C6.69406 28.2036 6.75497 28.4158 6.81196 28.632C6.75497 28.465 6.69602 28.2979 6.6351 28.1368C6.94166 29.1901 7.20301 30.3554 7.61765 31.3497C7.60979 31.3674 7.59996 31.3851 7.59406 31.4087C7.59406 31.4087 7.60389 31.4401 7.61765 31.4912C7.60979 31.5089 7.59996 31.5266 7.59406 31.5501ZM8.85958 31.1277C8.92639 31.2377 8.94408 31.3438 8.94801 31.4421C9.01679 31.4578 9.07967 31.4971 9.07967 31.4971C9.56111 31.9491 9.83426 31.8312 9.83426 31.8312C10.3255 31.6779 10.4041 31.3713 10.3806 31.1218C10.3845 31.0667 10.3845 31.0137 10.3786 30.9626C10.3039 31.0982 10.1703 31.222 9.91679 31.3006C9.91679 31.3006 9.63972 31.4263 9.15827 30.9685C9.15827 30.9685 9.09735 30.9233 9.02465 30.9135C8.27398 29.9211 7.99494 29.0447 7.38773 27.9816C7.82988 28.8698 8.04407 29.4062 8.37617 30.0429C8.04014 29.4259 7.78271 28.8128 7.38773 28.123C8.01852 29.3886 8.18359 29.9368 8.89495 31.0903C8.88316 31.1001 8.87137 31.11 8.85958 31.1277ZM11.9723 30.1982H11.9703V30.206C11.9703 30.2041 11.9703 30.2001 11.9723 30.1982ZM10.353 30.2905C10.3511 30.2866 10.3491 30.2866 10.3471 30.2827C10.3413 30.2945 10.3373 30.3062 10.3314 30.3259C9.93055 29.7187 9.06198 28.2881 8.84779 27.9383C9.26046 28.5161 9.77334 29.3512 10.1762 29.9447C9.73797 29.2628 9.0384 28.1073 8.84779 27.7968C9.33513 28.4807 9.96396 29.5241 10.3806 30.1019C10.3629 30.1097 10.3471 30.1314 10.3354 30.1746C10.3373 30.1785 10.3393 30.1805 10.3393 30.1824C10.412 29.9958 10.5771 30.1353 10.5771 30.1353C10.8561 30.6226 11.1646 30.658 11.1646 30.658C11.6795 30.8054 11.8701 30.5873 11.9408 30.3593C11.9408 30.3691 11.9448 30.4183 11.9448 30.4851C11.9526 30.4517 11.9605 30.4183 11.9644 30.3849C11.9644 30.3829 11.9644 30.3829 11.9624 30.3809L11.9565 30.3829L11.9585 30.4025C11.9565 30.3927 11.9546 30.3809 11.9526 30.3711C11.9487 30.3652 11.9448 30.3613 11.9408 30.3573C11.9428 30.3495 11.9448 30.3416 11.9467 30.3318C11.8033 29.3689 10.807 27.9776 10.2666 27.2093C10.4965 27.4922 10.7578 27.8126 11.0133 28.1623C10.7461 27.7457 10.4729 27.3626 10.2666 27.0698C10.9131 27.8578 11.8033 28.9562 12.0882 30.1176C12.5166 30.5912 12.8428 30.7052 13.0609 30.5912C13.1906 30.5224 13.283 30.3691 13.3341 30.1648C13.3419 30.1235 13.3518 30.0803 13.3577 30.0351C13.3655 29.9899 13.3714 29.9427 13.3734 29.8955C13.3793 29.9604 13.3812 30.0213 13.3812 30.0842C13.3812 30.1078 13.3793 30.1294 13.3773 30.1549C13.4048 31.1159 12.9057 31.6484 11.9428 30.5028C11.9428 30.5106 11.9428 30.5185 11.9428 30.5283C11.9526 30.6816 11.9644 31.4146 11.1096 31.1748C11.1096 31.1748 10.7952 31.1473 10.5063 30.6305C10.5063 30.6305 10.4611 30.5951 10.41 30.5814C10.3707 30.4595 10.3236 30.3731 10.3236 30.3731C10.3314 30.3377 10.3413 30.3121 10.353 30.2905ZM6.81 32.8157C7.50957 33.474 7.66284 33.2165 7.63926 32.8137C7.64319 32.7646 7.64123 32.7115 7.63926 32.6526C7.51546 32.7017 7.28751 32.5975 6.8945 32.2104C6.59777 30.9724 6.65672 31.053 6.13204 29.589C6.25977 29.9879 6.35606 30.3062 6.43663 30.601C6.36196 30.3809 6.26567 30.1058 6.13204 29.7305C6.50344 30.8761 6.60366 31.3556 6.80017 32.5386C6.8041 32.4757 6.80803 32.4266 6.81 32.3833C6.81 32.456 6.81 32.5405 6.81 32.6368C6.81 32.6919 6.81 32.7508 6.81 32.8157ZM13.3498 29.1979L13.3518 29.1999C13.3812 29.2313 13.4127 29.2608 13.4422 29.2903C13.4146 29.2569 13.3852 29.2294 13.3498 29.1979ZM13.3282 29.3198C13.3321 29.3237 13.3341 29.3257 13.338 29.3296C13.338 29.3296 13.338 29.3276 13.336 29.3276C13.3341 29.3237 13.3321 29.3217 13.3282 29.3198ZM13.3498 29.4966C12.8408 28.3726 12.3221 27.4844 11.6952 26.4154C11.8897 26.6905 12.0607 26.9361 12.2159 27.168C12.0509 26.8791 11.8779 26.5844 11.6952 26.2759C12.5048 27.4117 12.9135 28.0877 13.4697 29.3158C14.1221 29.9152 14.3441 29.6165 14.3441 29.6165C14.5328 29.5045 14.5957 29.2805 14.5976 29.0447C14.6192 29.1724 14.631 29.308 14.6232 29.4377C14.635 29.7108 14.5819 29.98 14.3697 30.1137C14.3697 30.1137 14.1044 30.4497 13.3773 29.7108C13.3714 29.642 13.3596 29.5693 13.3498 29.4966ZM3.80342 37.3432C4.19251 37.8443 4.67985 37.5849 4.67985 37.5849C4.87636 37.5476 4.96282 37.3177 4.9864 37.0209C4.97854 37.0268 4.97264 37.0308 4.96478 37.0367C4.97264 36.9875 4.9805 36.9345 4.9864 36.8795C4.94906 36.9129 4.9078 36.9404 4.85474 36.9522C4.85474 36.9522 4.23181 37.2843 3.86041 36.4904C3.90167 36.5513 3.93508 36.6122 3.96849 36.6672C3.31608 35.0657 3.17263 34.4703 2.92699 32.063C2.92896 32.1181 2.93092 32.1731 2.93092 32.2261C2.93092 32.2183 2.92896 32.2124 2.92699 32.2045C2.93878 33.808 3.14708 34.9321 3.64818 36.8067C3.64818 36.8067 3.71892 37.0288 3.80342 37.3432ZM8.32704 12.762C8.84582 13.2906 9.66133 13.6423 10.7637 13.5775C10.75 13.55 10.7402 13.5225 10.7264 13.493C9.66526 13.5539 8.86351 13.2454 8.32704 12.762ZM10.9799 18.7339L10.9485 18.7083C10.9465 18.7083 10.9426 18.7083 10.9406 18.7083C11.2373 17.8928 11.3926 17.1539 11.4063 16.4308C11.4004 15.5229 11.1764 14.6327 10.7264 13.6345C9.40391 13.7111 8.48228 13.212 7.97922 12.5164L5.91195 12.6402L6.20475 12.481L5.91195 12.4987L7.57245 11.5967C7.53511 11.4139 7.51939 11.2312 7.52725 11.0504C7.52725 11.0445 7.52725 11.0406 7.52725 11.0327C7.52725 10.9914 7.52529 10.9502 7.52725 10.9109C7.60389 8.83379 10.6635 7.10648 16.9105 12.7993L16.8791 12.8111C12.1943 8.50169 9.32923 8.47811 8.19931 9.62572C9.4157 8.58029 12.2906 8.7316 16.9105 12.9408L16.8791 12.9526C10.7736 7.33443 7.75324 8.99689 7.64909 11.0484C7.6707 12.2629 8.73381 13.5677 10.7873 13.438C11.4613 14.1768 11.6795 15.2969 11.6716 16.3286C11.6873 17.545 11.3827 18.6651 11.1312 18.9245C12.043 18.7614 12.664 18.8891 12.664 18.8891C12.326 18.8872 11.99 18.9245 11.6618 18.9952C12.2749 18.9481 12.664 19.0326 12.664 19.0326C9.13469 18.9893 6.0161 23.4638 6.0161 23.4638C6.10257 23.2948 6.191 23.1317 6.27942 22.9726C6.11043 23.1907 6.0161 23.3243 6.0161 23.3243C7.60389 20.1841 9.65347 19.2114 11.0546 18.9382L10.9485 18.8498C10.9465 18.8498 10.9426 18.8498 10.9406 18.8498C10.9544 18.8105 10.9661 18.7732 10.9799 18.7339ZM36.188 0.189385C36.1782 0.189385 36.1644 0.189385 36.1546 0.189385C36.1919 0.104887 36.188 0.0498645 36.188 0.0498645C31.3775 -0.242933 25.9204 0.727818 22.3813 3.6499C19.9957 5.54031 18.4551 8.30125 18.5435 12.1489C18.5455 12.196 18.5415 12.2432 18.5435 12.2904C19.8267 12.3768 18.0404 4.26104 27.1663 1.68481C30.9176 0.4193 35.005 0.572577 35.005 0.572577L35.6555 0.393754C35.5061 0.385894 35.3548 0.381964 35.2054 0.376068L35.2094 0.374103C35.3764 0.381964 35.5454 0.385894 35.7105 0.395719C35.6633 0.499868 35.5572 0.65118 35.3116 0.802491C35.4373 0.759259 35.5434 0.712097 35.6338 0.66297C35.569 0.747469 35.4707 0.845723 35.3116 0.943977C36.2096 0.619739 36.188 0.189385 36.188 0.189385ZM14.4267 28.2665L14.4679 28.3058L14.464 28.2979L14.4267 28.2665ZM14.4836 28.3137C14.4836 28.3176 14.4836 28.3196 14.4856 28.3215L14.4895 28.3254C14.4895 28.3235 14.4895 28.3196 14.4876 28.3176L14.4836 28.3137ZM14.4758 28.4158C14.4817 28.4375 14.4856 28.4591 14.4915 28.4846L12.4282 24.7981L13.4225 26.4311L12.4282 24.6566L14.6487 28.3117L14.4738 28.1643L14.4797 28.1741L14.7332 28.4139C15.8435 29.1881 16.1677 28.4296 16.2601 28.0268C15.8199 26.6748 15.3601 25.7885 14.7037 24.582C15.0968 25.2776 15.3522 25.7138 15.5585 26.099C15.307 25.5625 15.0299 25.0418 14.7037 24.4405C15.647 26.1128 15.7963 26.2877 16.3996 27.8597C17.05 28.1663 17.3409 27.9698 17.3409 27.9698C17.5413 27.8853 17.6121 27.7084 17.6258 27.5198C17.6258 27.4981 17.6238 27.4785 17.6219 27.4569C17.6238 27.4628 17.6258 27.4726 17.6278 27.4785C17.6297 27.4254 17.6278 27.3704 17.6219 27.3154C17.6612 27.449 17.7083 27.6514 17.6946 27.842C17.7103 28.0818 17.6573 28.3353 17.4077 28.4394C17.4077 28.4394 17.0893 28.6654 16.3406 28.2704C16.3406 28.2704 16.2444 29.9191 14.7607 28.8934L14.5446 28.6851C14.521 28.5809 14.4974 28.4885 14.4758 28.4158ZM33.7631 35.1404C33.8083 35.1679 33.8495 35.1855 33.8928 35.2072C31.401 32.5366 28.9172 29.868 26.4038 27.2171C26.4038 27.2171 26.3842 27.2191 26.3508 27.225C28.8071 29.8641 31.2792 32.5052 33.7631 35.1404ZM39.5679 28.4866C39.5326 28.5003 39.5011 28.5161 39.4618 28.5318C39.6839 28.7047 39.9806 28.8914 40.2557 29.1017C40.0808 28.8757 39.8254 28.6733 39.5679 28.4866ZM39.6269 33.136C39.6249 33.136 39.623 33.1379 39.619 33.1379C39.623 33.1379 39.6249 33.136 39.6269 33.136ZM37.3828 34.0065C37.3828 34.0065 37.371 34.0281 37.3592 34.0694C37.3749 34.032 37.3828 34.0065 37.3828 34.0065C37.4535 34.032 37.5184 34.0537 37.5832 34.0753C37.5242 34.0497 37.4614 34.0242 37.3828 34.0065ZM35.2467 34.4585L35.2546 34.4644C35.2782 34.4192 35.2919 34.3897 35.2919 34.3897C35.2919 34.3897 35.2801 34.4192 35.2467 34.4585ZM18.2822 24.9141C18.2841 24.9141 18.2841 24.916 18.2841 24.918C18.2723 24.8689 18.2645 24.8394 18.2645 24.8394C18.2645 24.8394 18.2723 24.8669 18.2822 24.9141ZM18.3057 25.1577C18.288 25.0654 18.2723 25.0064 18.2684 24.9907C18.2684 24.9907 18.2684 24.9907 18.2684 24.9887C18.2704 25.0045 18.2841 25.0634 18.3057 25.1577ZM17.5059 26.999C17.5158 26.9951 17.5217 26.9912 17.5295 26.9872C17.5217 26.9912 17.5138 26.9951 17.5059 26.999ZM17.5551 27.1405C17.557 27.1523 17.561 27.1601 17.5629 27.1719C16.4114 25.6097 15.6489 24.4837 14.7823 22.5245C14.9572 22.8605 15.1321 23.1828 15.309 23.4972C15.1341 23.1553 14.9612 22.7859 14.7823 22.383C15.6293 24.0023 16.435 25.3503 17.7339 26.7357C17.7103 26.7514 17.6808 26.7671 17.6514 26.7829C17.6514 26.7848 17.6533 26.7868 17.6553 26.7868C18.1918 26.5136 18.3352 25.9968 18.347 25.5625C18.345 25.4289 18.3313 25.309 18.3156 25.2147C17.6592 24.0455 17.0383 23.0512 16.2326 22.0175C16.6983 22.5579 17.052 23.0237 17.3762 23.4972C17.0245 22.947 16.6531 22.4164 16.2326 21.876C17.1719 22.9647 17.6514 23.7507 18.3686 24.9101C18.4826 24.9907 18.5946 25.0673 18.7066 25.142C19.752 25.7394 22.7154 26.9204 25.9204 26.9381C26.0875 26.9184 26.1779 26.9008 26.1779 26.9008C28.6932 29.6027 31.2222 32.3028 33.7631 34.9989C34.5354 35.4626 35.0089 34.8849 35.1976 34.5685L31.8314 32.0237L35.0836 34.3425L31.8314 31.8822L35.4295 34.4486C35.4039 34.4427 35.3784 34.4349 35.3568 34.4251C36.5731 35.1168 37.1096 34.5233 37.2963 34.1932L30.0039 29.7737L36.7677 33.7294L30.0039 29.6322L37.6146 34.0851C39.3596 34.6334 39.6053 33.6901 39.6269 33.2283C39.6249 33.2106 39.6249 33.1949 39.623 33.1831L30.5934 28.8934L39.0472 32.7665L30.5934 28.7519L39.7526 32.9493C39.7016 32.9591 39.6642 32.9886 39.619 32.9984C40.4738 32.7508 40.8511 32.3283 40.8806 31.7958C40.859 31.4008 40.6664 30.9528 40.3422 30.4694C40.35 30.4831 40.3599 30.4969 40.3677 30.5067L28.3591 26.437L40.2891 30.3416V30.3397L28.3591 26.2955L40.2891 30.1982C40.3972 30.037 40.4542 29.8857 40.4679 29.7423C40.4188 29.2038 39.7939 28.7853 39.285 28.4276C36.2666 27.6239 33.2463 26.8123 30.222 25.987C32.0888 26.4586 33.938 26.9224 35.791 27.3508C33.936 26.8536 32.081 26.3525 30.222 25.8455C33.2305 26.608 36.1919 27.3567 39.2123 27.9521C39.4893 27.8165 39.6171 27.677 39.6485 27.5355C39.6171 27.394 39.505 27.2604 39.3675 27.1425C39.4363 27.1778 39.5188 27.223 39.6013 27.2722C39.5502 27.1778 39.4657 27.0855 39.3675 27.001C39.676 27.1582 40.2262 27.4942 40.1496 27.8519C40.1928 28.0562 40.0592 28.2763 39.5817 28.4807C40.1594 28.8992 41.0555 29.4062 40.9887 30.1019C41.0044 30.2768 40.9572 30.4654 40.8295 30.6678C41.2186 31.2338 41.4328 31.7545 41.4073 32.2006C41.4407 32.8098 41.0693 33.2912 40.1319 33.5683C40.1339 33.5958 40.1339 33.6312 40.1319 33.6685C40.1496 34.0497 40.0631 35.4017 37.8426 34.5803C37.8426 34.5803 37.3945 35.9794 35.7105 34.9674C35.7105 34.9674 35.2133 36.2487 34.1384 35.61C31.5641 32.855 28.9997 30.096 26.4038 27.3586C26.4038 27.3586 22.3479 28.1191 18.3804 25.2717C18.4079 25.4093 18.4374 25.6176 18.4295 25.8494C18.4453 26.3446 18.3175 27.0069 17.5963 27.2879C17.5826 27.2329 17.5688 27.1837 17.5551 27.1405ZM29.3633 5.8842C29.4045 5.88223 29.4595 5.88027 29.5126 5.8783C29.5087 5.87634 29.5028 5.87437 29.4988 5.87044L29.3633 5.8842ZM29.5087 6.95713C29.6777 6.89621 29.8054 6.81368 29.8644 6.70953C29.7602 6.7508 29.6403 6.78813 29.5087 6.81761C29.7111 6.74294 29.8545 6.64272 29.8899 6.50516C29.8604 6.37743 29.7543 6.22612 29.5519 6.0414C28.5084 5.43026 27.7656 5.21607 26.337 5.04904C27.9622 5.19838 28.3689 5.34773 29.3633 5.79577C28.4161 5.26716 27.6752 5.06279 26.337 4.90755C28.0486 5.06672 28.4063 5.22196 29.5264 5.72699L29.3633 5.74271C29.4694 5.73878 29.6168 5.73681 29.7838 5.72895C30.1336 6.02765 30.2436 6.24774 30.2004 6.4128C30.2652 6.70167 29.9469 6.85888 29.5087 6.95713ZM39.0059 26.8988C38.835 26.7986 38.6974 26.7396 38.6974 26.7396C38.6974 26.7396 38.8291 26.8045 39.0059 26.8988ZM39.1946 27.0167C39.169 26.999 39.1454 26.9833 39.1219 26.9676C38.8487 26.9184 35.3902 26.0794 31.0847 25.3523C32.2834 25.5016 33.4722 25.6765 34.6552 25.8691C33.5823 25.6549 32.3718 25.4289 31.0847 25.2108C33.6786 25.5331 36.2332 25.9732 38.774 26.4586C38.833 26.3348 38.8625 26.213 38.8703 26.0951C38.8448 25.7374 38.6247 25.4387 38.4439 25.254L38.5874 25.2776C38.5382 25.2167 38.4911 25.1597 38.4439 25.1106L38.6758 25.1518C38.6758 25.1518 39.4009 25.6726 39.3478 26.3898C39.3616 26.5844 39.3223 26.7946 39.1946 27.0167ZM10.7559 18.7712L10.9485 18.7083C10.2391 18.8832 9.5788 19.1092 8.96766 19.3765C9.52967 19.1485 10.1231 18.9461 10.7559 18.7712ZM23.018 12.9821C23.3422 12.9644 23.6449 12.9467 23.9337 12.9329C23.6056 12.9408 23.297 12.9605 23.018 12.9821ZM11.9408 30.3593V30.3573C11.9408 30.3573 11.9408 30.3573 11.9389 30.3554L11.9408 30.3593ZM3.40254 23.7272C3.40254 23.7252 3.40647 23.7232 3.40844 23.7193C3.40647 23.7232 3.40254 23.7252 3.40254 23.7272ZM3.66586 23.3616C3.70124 23.3145 3.73464 23.2673 3.77198 23.2221C3.73464 23.2673 3.70124 23.3145 3.66586 23.3616ZM4.08246 22.8311C4.02547 22.9018 3.97045 22.9726 3.91346 23.0433C5.14557 21.5164 6.8041 20.2509 8.96766 19.3765C8.14625 19.7341 7.40935 20.1664 6.74908 20.6557C7.4231 20.2273 8.15804 19.8441 8.96766 19.5179C1.69685 22.6798 1.12894 31.7132 1.11912 34.3032C1.11912 34.3661 1.12108 34.4251 1.12108 34.4781C1.31956 36.5984 1.79903 38.7423 2.48681 40.788C2.5497 40.729 2.59686 40.6622 2.64206 40.5876C2.62437 40.6701 2.60079 40.7507 2.57524 40.8293C2.59882 40.7978 2.62044 40.7644 2.64206 40.729C2.57917 41.0179 2.4652 41.3048 2.26476 41.5033C1.31366 38.6716 0.751646 35.6493 0.771297 32.7567C0.773262 29.0172 1.73615 25.4839 4.08246 22.8311ZM5.84318 34.3013C5.84514 34.3052 5.84711 34.3091 5.84907 34.3111C5.84711 34.2836 5.84711 34.2659 5.84711 34.2659C5.84711 34.2659 5.84514 34.2816 5.84318 34.3013ZM5.84318 34.4899C5.84318 34.484 5.84318 34.4762 5.84514 34.4683C5.84318 34.4683 5.84318 34.4663 5.84318 34.4644C5.84318 34.4722 5.84318 34.4821 5.84318 34.4899ZM5.84711 34.4329C5.84711 34.4172 5.84711 34.4054 5.84711 34.4054C5.84711 34.4054 5.84514 34.4192 5.84318 34.4349C5.84514 34.4447 5.84514 34.4526 5.84514 34.4604C5.84711 34.4506 5.84711 34.4427 5.84711 34.4329ZM5.82942 34.5764C5.36763 33.4465 4.90583 32.291 4.46565 31.1532C4.78007 31.9078 5.08465 32.6722 5.41872 33.417C5.09644 32.6172 4.77417 31.8115 4.46565 31.0117C4.92941 32.124 5.3637 33.2657 5.92374 34.3189C6.33445 34.6117 6.60956 34.5764 6.77266 34.4899C6.78445 34.596 6.79624 34.6962 6.81589 34.8063C6.81589 34.8063 6.81 34.8141 6.80017 34.8279C6.8041 34.8672 6.80803 34.9065 6.81589 34.9497C6.81589 34.9497 6.50541 35.4253 5.7685 34.9104C5.78815 34.8751 5.79994 34.8377 5.81173 34.7984C5.79798 34.7886 5.78226 34.7807 5.7685 34.769C5.79994 34.712 5.8196 34.6432 5.82942 34.5764ZM24.2816 18.4902C24.2816 18.4902 25.4115 19.1741 26.561 20.6302C25.9224 19.7577 25.2641 19.1308 24.7826 18.7358C24.6333 18.673 24.4682 18.5944 24.2816 18.4902ZM25.4822 18.7869C25.2268 18.7692 24.8455 18.6631 24.2816 18.3487C24.2816 18.3487 24.4545 18.4548 24.7316 18.6651C25.0971 18.8007 25.3329 18.8125 25.4822 18.7869ZM25.946 17.6157C25.83 17.6197 25.7023 17.6138 25.5569 17.5882C25.5569 17.5882 25.5726 17.6059 25.6001 17.6393C25.7318 17.6472 25.8458 17.6374 25.946 17.6157ZM27.5141 15.0041C27.4886 15.01 27.4689 15.0159 27.4414 15.0199C27.4414 15.0199 27.4473 15.0258 27.4493 15.0297C27.4728 15.0218 27.4925 15.012 27.5141 15.0041ZM27.9464 13.6089C27.9327 13.6129 27.9248 13.6148 27.913 13.6188L27.915 13.6227C27.9268 13.6188 27.9366 13.6129 27.9464 13.6089ZM28.6971 11.9681C28.5969 11.9995 28.479 12.031 28.3375 12.0546C28.3375 12.0546 28.3414 12.0624 28.3512 12.0722C28.3689 12.0781 28.3866 12.086 28.4043 12.0919C28.3945 12.0958 28.3846 12.0998 28.3748 12.1057C28.3768 12.1076 28.3787 12.1096 28.3807 12.1115C28.5183 12.0703 28.6205 12.0212 28.6971 11.9681ZM28.9034 9.25824C28.8071 9.29951 28.701 9.33881 28.5694 9.37025C28.5694 9.37025 28.6126 9.38794 28.6755 9.42331C28.7698 9.37222 28.8445 9.3172 28.9034 9.25824ZM29.3534 7.96522C29.2984 7.9829 29.2355 7.99863 29.1648 8.01238C29.1648 8.01238 29.1884 8.04186 29.2198 8.09295C29.2827 8.05365 29.3259 8.01042 29.3534 7.96522ZM28.8995 6.97875C28.8956 6.97482 28.8916 6.97285 28.8897 6.96892C28.8916 6.97285 28.8956 6.97482 28.8995 6.97875ZM28.9584 7.02787C28.9388 7.01215 28.9231 6.9984 28.9113 6.98857C28.9231 6.9984 28.9388 7.01215 28.9565 7.02787H28.9584ZM29.0135 7.077C29.0115 7.077 29.0115 7.07504 29.0115 7.07504C28.9663 7.08486 28.9231 7.09469 28.8759 7.10058C28.9231 7.09665 28.9683 7.08486 29.0135 7.077ZM28.8995 7.12023C28.8956 7.1163 28.8916 7.11237 28.8897 7.11041C28.8916 7.11237 28.8956 7.1163 28.8995 7.12023ZM28.2785 9.57069C28.3041 9.5648 28.3237 9.55694 28.3473 9.55104C28.3453 9.54908 28.3434 9.54908 28.3414 9.54711C28.3218 9.55497 28.3001 9.56087 28.2785 9.57069ZM27.7263 13.6718C27.7303 13.6738 27.7342 13.6738 27.7362 13.6758C27.689 13.603 27.6497 13.5578 27.6497 13.5578C27.6497 13.5578 27.6752 13.5991 27.7263 13.6718ZM26.6318 16.5742C26.6298 16.586 26.6239 16.6175 26.622 16.6686C26.6259 16.6332 26.6298 16.6018 26.6318 16.5742ZM26.8774 16.5389C26.9521 16.5271 27.0169 16.5114 27.0759 16.4937C27.0111 16.5015 26.9501 16.5094 26.8755 16.5114C26.8755 16.5114 26.8774 16.5232 26.8774 16.5389ZM25.4036 17.6826C25.3663 17.6354 25.3407 17.6059 25.3407 17.6059C25.3859 17.6157 25.4233 17.6177 25.4665 17.6236L25.4645 17.6216C25.4233 17.6177 25.382 17.6138 25.3407 17.6059C25.3407 17.6059 25.3663 17.6374 25.4036 17.6826ZM24.4898 18.5059L21.5953 16.8101L24.5292 18.4391C24.3837 18.3782 24.2481 18.3133 24.0713 18.2151C24.0713 18.2151 24.1971 18.2957 24.4132 18.4489C24.2029 18.2937 24.0713 18.2151 24.0713 18.2151C25.3977 18.954 25.7062 18.5433 25.7062 18.5433C25.7613 18.5099 25.7907 18.4627 25.8025 18.4077C25.7613 18.1778 25.5589 17.885 25.437 17.7258C24.0359 16.9535 22.9728 16.7157 21.609 16.6961C22.5425 16.6705 23.1693 16.7177 23.7195 16.8494C23.0377 16.6489 22.3695 16.5664 21.609 16.5546C23.5781 16.5015 24.1853 16.7649 25.5785 17.49C25.4901 17.4841 25.4174 17.4762 25.3407 17.4664C25.3407 17.4664 25.3663 17.4959 25.4036 17.5411C25.3663 17.4939 25.3407 17.4664 25.3407 17.4664C26.282 17.6452 26.5394 17.1146 26.6082 16.7472C25.5372 15.798 23.9475 15.6448 22.4933 15.8295C23.132 15.686 23.7647 15.629 24.3798 15.6742C24.3071 15.6624 24.2324 15.6546 24.1577 15.6467C23.8826 15.6231 23.6016 15.6153 23.3246 15.6231C23.1379 15.6271 22.9512 15.6389 22.7665 15.6585C22.6761 15.6664 22.5837 15.6762 22.4933 15.688C24.032 15.3441 25.5156 15.4836 26.8774 16.3994C27.3373 16.3227 27.5023 16.1144 27.5279 15.8786C27.5102 15.6978 27.4316 15.5131 27.353 15.3677C25.6846 14.3694 24.1342 14.5502 22.566 14.6367C23.0789 14.5561 23.5643 14.4716 24.0516 14.4244C23.5545 14.4323 23.0612 14.4696 22.566 14.4952C24.1735 14.2397 25.5274 13.9627 27.4159 14.8902C27.3923 14.902 27.3628 14.9098 27.3314 14.9196C27.7735 14.8096 27.9386 14.5993 27.9661 14.3753C27.9287 14.0314 27.6497 13.6993 27.6497 13.6993C27.6497 13.6993 27.6851 13.7524 27.7578 13.8546C26.5001 13.1648 25.0931 13.045 23.9337 13.0744C24.8947 13.0273 25.6846 13.0253 26.4392 13.1943C25.5726 12.9605 24.7001 12.9133 23.9337 12.9329C25.4488 12.8622 26.5394 12.8956 27.7362 13.5362C28.198 13.4183 28.3729 13.1923 28.3984 12.9506C28.3787 12.7266 28.2667 12.5085 28.1744 12.3631C26.8814 11.7126 25.1678 11.4866 22.8215 11.5122C22.6623 11.4945 22.4815 11.5122 22.3224 11.522C22.9944 11.4532 23.5682 11.41 24.0811 11.3884C23.6802 11.3746 23.2656 11.3668 22.8215 11.3707C22.6623 11.353 22.4815 11.3707 22.3224 11.3825C25.4606 11.0602 26.5768 11.2489 28.4043 11.9524C28.3532 11.9779 28.2825 11.9995 28.2039 12.0172C28.2039 12.0172 28.2039 12.0172 28.2058 12.0172C28.6617 11.915 28.8405 11.7539 28.8759 11.5849C28.8445 11.4277 28.7226 11.2744 28.6146 11.1663C26.9305 10.4825 24.6451 10.0836 21.6051 10.5179C22.9787 10.3076 24.0064 10.2133 24.9182 10.2231C23.9298 10.1641 22.8294 10.2015 21.6051 10.3783C24.8514 9.87921 26.1641 10.0227 28.587 10.6928C28.7423 10.4943 28.813 10.3214 28.8288 10.174C28.813 10.0246 28.7403 9.90672 28.6519 9.81633C26.846 9.07746 25.9872 8.72571 22.9119 8.91632C24.1302 8.80824 24.987 8.76894 25.663 8.78859C24.9536 8.70999 24.0988 8.70213 22.9119 8.77483C26.3115 8.47418 26.903 8.69623 28.5812 9.31916C28.5261 9.34471 28.4593 9.36632 28.3905 9.3899C28.3925 9.3899 28.3945 9.39187 28.3984 9.39187C28.8936 9.23663 29.0646 8.98706 29.0901 8.74536C29.0764 8.61763 29.0331 8.50169 28.9879 8.40933C27.6065 7.6626 24.9045 7.39141 22.8117 7.63312C24.1361 7.43268 25.4527 7.41893 26.7497 7.59185C25.4881 7.38748 24.0438 7.35015 22.8117 7.4936C24.9575 7.1674 27.0857 7.3305 29.1333 7.9888C29.1137 8.00452 29.0842 8.01435 29.0547 8.02417C29.267 7.95539 29.3593 7.85714 29.3849 7.74709C29.3279 7.4877 29.0135 7.21259 28.9113 7.13006C28.9309 7.14578 28.9584 7.16936 28.986 7.19687C27.7067 6.79206 26.5316 6.66826 25.1933 6.5877C25.9145 6.55625 26.5257 6.56412 27.1309 6.63289C26.5041 6.54053 25.8693 6.48748 25.1933 6.44621C26.6514 6.38529 27.6556 6.47569 29.0783 6.92176C29.0095 6.93552 28.9467 6.95124 28.8759 6.96106C28.9938 6.94534 29.1078 6.92373 29.2159 6.89818C29.3338 6.99447 29.7759 7.37569 29.7052 7.67635C29.7425 7.86303 29.6443 8.03793 29.2454 8.13422C29.32 8.26195 29.4143 8.47418 29.3927 8.69623C29.4202 8.96938 29.3004 9.27986 28.7384 9.46065C28.9172 9.57659 29.1648 9.80257 29.1255 10.1504C29.1491 10.3528 29.0724 10.6063 28.8052 10.9109C28.9408 11.0327 29.2218 11.3137 29.1687 11.579C29.2119 11.8089 29.0665 12.0467 28.4279 12.1784C28.5418 12.3474 28.7226 12.6677 28.6892 12.9703C28.7167 13.2729 28.5733 13.5814 27.9995 13.7347C28.1076 13.8899 28.2707 14.1749 28.2392 14.4421C28.2687 14.7251 28.1253 15.014 27.5259 15.1417C27.6399 15.3205 27.8226 15.6605 27.7932 15.9592C27.8266 16.2972 27.6536 16.6234 26.8774 16.6529C26.8774 16.6548 26.8774 16.6548 26.8755 16.6568C26.8794 16.6843 26.9698 17.8987 25.6827 17.7435C25.8438 17.9518 26.0914 18.3232 26.0403 18.5413C26.0639 18.6612 26.0423 18.7614 25.9401 18.8164C25.9401 18.8164 25.7082 19.1013 24.8612 18.7692C25.6748 19.4138 27.1565 20.8247 28.0997 23.1121L28.0309 23.1003C28.0525 23.1533 28.0781 23.2005 28.0997 23.2536L27.9012 23.2202C26.9383 20.7107 25.268 19.2291 24.4898 18.6454L21.5953 16.9496L24.5292 18.5806C24.3837 18.5197 24.2481 18.4529 24.0713 18.3546C24.0713 18.3546 24.1971 18.4371 24.4132 18.5904C24.2029 18.4352 24.0713 18.3546 24.0713 18.3546C24.2973 18.4823 24.4918 18.5727 24.6647 18.6395C24.6038 18.5924 24.5429 18.5452 24.4898 18.5059Z" fill="#AC8A74"/>
<path d="M54.2241 18.6665V18.139C54.8688 18.0022 55.3083 17.8557 55.5428 17.6994C55.7967 17.5236 55.9237 17.1915 55.9237 16.7031V2.43221C55.9237 1.94381 55.7967 1.6117 55.5428 1.43588C55.3083 1.26006 54.8688 1.11354 54.2241 0.996326V0.468859H61.8138C64.0799 0.468859 65.7795 0.898647 66.9126 1.75822C68.0652 2.59826 68.6415 3.79971 68.6415 5.36258C68.6415 6.55426 68.3094 7.51152 67.6452 8.23434C66.981 8.93763 65.9651 9.48463 64.5976 9.87535C64.3436 9.97303 64.3436 10.0609 64.5976 10.1391C66.1019 10.5884 67.108 11.741 67.6159 13.5969C68.1824 15.4137 68.6318 16.625 68.9639 17.2306C69.3155 17.8362 69.7648 18.139 70.3118 18.139V18.6665H69.7258C68.4169 18.6665 67.5084 18.3832 67.0005 17.8167C66.4926 17.2306 65.9358 15.9901 65.3302 14.0951C64.8809 12.6885 64.285 11.7117 63.5427 11.1647C62.8199 10.5982 61.804 10.3149 60.4951 10.3149C59.616 10.3149 59.0201 10.4321 58.7076 10.6665C58.4145 10.901 58.268 11.3112 58.268 11.8973V16.7031C58.268 17.1915 58.4048 17.5236 58.6783 17.6994C58.9518 17.8557 59.4792 18.0022 60.2607 18.139V18.6665H54.2241ZM59.8797 9.55301H62.1654C64.9004 9.55301 66.2679 8.1855 66.2679 5.45049C66.2679 2.6178 64.832 1.20145 61.9603 1.20145H60.2607C59.5183 1.20145 59.0006 1.2796 58.7076 1.43588C58.4145 1.59217 58.268 1.92428 58.268 2.43221V7.99991C58.268 8.56645 58.3852 8.96693 58.6197 9.20136C58.8736 9.43579 59.2936 9.55301 59.8797 9.55301Z" fill="#AC8A74"/>
<path d="M71.4732 18.6665V18.139C72.157 18.0022 72.6747 17.8069 73.0263 17.5529C73.378 17.2794 73.7003 16.8203 73.9933 16.1756L79.7662 2.54942C80.1373 1.70938 80.3229 1.01586 80.3229 0.468859L81.876 0.32234L88.3815 15.4137C88.8308 16.4687 89.2117 17.1622 89.5243 17.4943C89.8369 17.8264 90.3546 18.0315 91.0774 18.1097V18.6665H84.8357V18.139C85.6953 18.0022 86.2032 17.7971 86.3595 17.5236C86.5158 17.2501 86.4474 16.8301 86.1544 16.2636L85.246 14.1244C84.8552 13.382 84.2692 13.0108 83.4877 13.0108H77.5977C76.7186 13.0108 76.1618 13.3039 75.9274 13.89L74.9604 16.117C74.7064 16.7226 74.7259 17.1915 75.019 17.5236C75.3315 17.8362 75.9176 18.0413 76.7772 18.139V18.6665H71.4732ZM77.3633 12.2196H83.6636C83.8589 12.2196 84.0152 12.1513 84.1324 12.0145C84.2496 11.8582 84.2594 11.6824 84.1617 11.4871L80.8211 3.69227C80.6257 3.20387 80.4304 3.22341 80.235 3.75087L76.9823 11.3991C76.8651 11.6531 76.8456 11.8582 76.9237 12.0145C77.0019 12.1513 77.1484 12.2196 77.3633 12.2196Z" fill="#AC8A74"/>
<path d="M92.6852 18.6665V18.139C93.3299 18.0022 93.7694 17.8557 94.0039 17.6994C94.2578 17.5236 94.3848 17.1915 94.3848 16.7031V2.3736C94.3848 1.90474 94.2578 1.59217 94.0039 1.43588C93.7694 1.26006 93.3299 1.11354 92.6852 0.996326V0.468859H99.2199C100.49 0.468859 101.672 0.615378 102.766 0.908416C103.86 1.20145 104.895 1.67031 105.872 2.31499C106.849 2.95967 107.611 3.88762 108.158 5.09884C108.724 6.31006 109.007 7.74594 109.007 9.40649C109.007 12.3955 108.138 14.6812 106.399 16.2636C104.661 17.8264 102.365 18.6079 99.513 18.6079C99.1418 18.6079 98.4776 18.5883 97.5203 18.5492C96.5826 18.5102 95.9184 18.4906 95.5277 18.4906C94.5899 18.4906 93.6425 18.5492 92.6852 18.6665ZM99.4251 17.9339C100.734 17.9339 101.857 17.7092 102.795 17.2599C103.752 16.8106 104.495 16.1854 105.022 15.3844C105.569 14.5639 105.97 13.6653 106.224 12.6885C106.477 11.6922 106.604 10.5982 106.604 9.40649C106.604 6.96451 106.028 4.98163 104.876 3.45784C103.742 1.93404 101.857 1.17215 99.2199 1.17215H98.5166C97.872 1.17215 97.4129 1.25029 97.1394 1.40658C96.8659 1.56286 96.7291 1.8852 96.7291 2.3736V16.7324C96.7291 17.5334 97.6278 17.9339 99.4251 17.9339Z" fill="#AC8A74"/>
<path d="M110.628 18.6665V18.139C111.273 18.0022 111.712 17.8557 111.947 17.6994C112.201 17.5236 112.328 17.1915 112.328 16.7031V2.43221C112.328 1.94381 112.201 1.6117 111.947 1.43588C111.712 1.26006 111.273 1.11354 110.628 0.996326V0.468859H116.372V0.996326C115.727 1.11354 115.278 1.26006 115.024 1.43588C114.789 1.6117 114.672 1.94381 114.672 2.43221V16.7031C114.672 17.1915 114.789 17.5236 115.024 17.6994C115.278 17.8557 115.727 18.0022 116.372 18.139V18.6665H110.628Z" fill="#AC8A74"/>
<path d="M127.125 18.9595C124.468 18.9595 122.28 18.0706 120.561 16.2929C118.842 14.5151 117.983 12.2978 117.983 9.64092C117.983 6.92544 118.891 4.63975 120.708 2.78385C122.525 0.92795 124.791 0 127.506 0C130.163 0 132.351 0.888879 134.07 2.66664C135.789 4.4444 136.649 6.66171 136.649 9.31858C136.649 12.0341 135.731 14.3197 133.894 16.1756C132.078 18.0315 129.821 18.9595 127.125 18.9595ZM127.829 18.0804C129.509 18.0804 130.954 17.4455 132.166 16.1756C133.396 14.8863 134.012 12.9132 134.012 10.2563C134.012 7.50175 133.308 5.25513 131.902 3.51644C130.495 1.75822 128.786 0.879111 126.774 0.879111C125.992 0.879111 125.25 1.02563 124.547 1.31867C123.843 1.59217 123.189 2.02196 122.583 2.60803C121.997 3.1941 121.519 4.00484 121.147 5.04024C120.796 6.07563 120.62 7.27709 120.62 8.64459C120.62 11.4187 121.323 13.6848 122.73 15.4431C124.136 17.2013 125.836 18.0804 127.829 18.0804Z" fill="#AC8A74"/>
<path d="M150.065 18.9595C148.248 18.9595 146.451 18.4418 144.673 17.4064C144.419 16.7422 144.253 16.078 144.175 15.4137C144.097 14.7495 144.107 14.2123 144.205 13.802C144.302 13.3723 144.478 13.1574 144.732 13.1574C144.947 13.1574 145.084 13.255 145.142 13.4504C145.611 14.9351 146.383 16.0975 147.457 16.9375C148.551 17.7776 149.811 18.1878 151.237 18.1683C152.371 18.1488 153.279 17.8557 153.963 17.2892C154.666 16.7226 155.018 15.8728 155.018 14.7398C155.018 14.4077 154.969 14.0951 154.871 13.802C154.793 13.509 154.705 13.2648 154.607 13.0695C154.51 12.8546 154.334 12.6494 154.08 12.4541C153.845 12.2392 153.65 12.0829 153.494 11.9852C153.338 11.868 153.074 11.7312 152.703 11.575C152.331 11.4187 152.058 11.3112 151.882 11.2526C151.726 11.1745 151.413 11.067 150.944 10.9303C150.476 10.774 150.163 10.6665 150.007 10.6079C148.17 9.96326 146.764 9.21113 145.787 8.35155C144.83 7.47244 144.351 6.33937 144.351 4.95233C144.351 3.50668 144.918 2.32476 146.051 1.40658C147.203 0.468859 148.795 0 150.827 0C152.664 0 154.344 0.439556 155.867 1.31867C156.121 1.98288 156.287 2.6471 156.366 3.31132C156.444 3.97554 156.434 4.52254 156.336 4.95233C156.239 5.36258 156.063 5.5677 155.809 5.5677C155.594 5.5677 155.457 5.47002 155.399 5.27467C154.949 3.82902 154.226 2.71548 153.23 1.93404C152.234 1.15261 151.12 0.761897 149.889 0.761897C148.737 0.761897 147.877 1.09401 147.311 1.75822C146.764 2.42244 146.49 3.22341 146.49 4.16113C146.49 5.21606 146.852 6.02679 147.574 6.59333C148.297 7.15987 149.372 7.67757 150.798 8.14643C152.83 8.86925 154.207 9.4651 154.93 9.93396C156.512 10.9498 157.303 12.288 157.303 13.9486C157.303 15.6091 156.6 16.8594 155.193 17.6994C153.787 18.5395 152.077 18.9595 150.065 18.9595Z" fill="#AC8A74"/>
<path d="M167.347 18.9595C165.257 18.9595 163.567 18.3246 162.277 17.0548C160.988 15.7654 160.343 13.8802 160.343 11.3991V2.43221C160.343 1.94381 160.216 1.6117 159.962 1.43588C159.728 1.26006 159.288 1.11354 158.644 0.996326V0.468859H164.387V0.996326C163.743 1.11354 163.293 1.26006 163.039 1.43588C162.805 1.6117 162.688 1.94381 162.688 2.43221V10.7838C162.688 13.1476 163.137 14.9254 164.036 16.117C164.934 17.2892 166.204 17.8753 167.845 17.8753C169.427 17.8753 170.727 17.338 171.742 16.2636C172.778 15.1891 173.296 13.4211 173.296 10.9596V2.43221C173.296 1.94381 173.159 1.6117 172.885 1.43588C172.612 1.26006 172.143 1.11354 171.479 0.996326V0.468859H175.933V0.996326C175.308 1.11354 174.858 1.26006 174.585 1.43588C174.331 1.6117 174.204 1.94381 174.204 2.43221V11.0768C174.204 13.636 173.598 15.5896 172.387 16.9375C171.195 18.2855 169.515 18.9595 167.347 18.9595Z" fill="#AC8A74"/>
<path d="M177.534 18.6665V18.139C178.179 18.0022 178.619 17.8557 178.853 17.6994C179.107 17.5236 179.234 17.1915 179.234 16.7031V2.43221C179.234 1.94381 179.107 1.6117 178.853 1.43588C178.619 1.26006 178.179 1.11354 177.534 0.996326V0.468859H183.278V0.996326C182.633 1.11354 182.184 1.26006 181.93 1.43588C181.695 1.6117 181.578 1.94381 181.578 2.43221V16.7031C181.578 17.6604 182.086 18.1097 183.102 18.0511L187.673 17.8167C189.139 17.7385 190.194 17.1329 190.838 15.9998L191.307 15.15H191.893L191.278 17.0548C191.043 17.6799 190.946 18.2171 190.985 18.6665H177.534Z" fill="#AC8A74"/>
<path d="M192.78 18.6665V18.139C193.464 18.0022 193.982 17.8069 194.333 17.5529C194.685 17.2794 195.007 16.8203 195.3 16.1756L201.073 2.54942C201.444 1.70938 201.63 1.01586 201.63 0.468859L203.183 0.32234L209.688 15.4137C210.138 16.4687 210.519 17.1622 210.831 17.4943C211.144 17.8264 211.662 18.0315 212.384 18.1097V18.6665H206.143V18.139C207.002 18.0022 207.51 17.7971 207.667 17.5236C207.823 17.2501 207.754 16.8301 207.461 16.2636L206.553 14.1244C206.162 13.382 205.576 13.0108 204.795 13.0108H198.905C198.026 13.0108 197.469 13.3039 197.234 13.89L196.267 16.117C196.013 16.7226 196.033 17.1915 196.326 17.5236C196.639 17.8362 197.225 18.0413 198.084 18.139V18.6665H192.78ZM198.67 12.2196H204.971C205.166 12.2196 205.322 12.1513 205.439 12.0145C205.557 11.8582 205.566 11.6824 205.469 11.4871L202.128 3.69227C201.933 3.20387 201.737 3.22341 201.542 3.75087L198.289 11.3991C198.172 11.6531 198.153 11.8582 198.231 12.0145C198.309 12.1513 198.455 12.2196 198.67 12.2196Z" fill="#AC8A74"/>
<path d="M213.849 18.6665V18.139C214.513 18.0022 214.963 17.8557 215.197 17.6994C215.451 17.5236 215.578 17.1915 215.578 16.7031V2.43221C215.578 1.94381 215.451 1.6117 215.197 1.43588C214.943 1.26006 214.494 1.11354 213.849 0.996326V0.468859H218.069L224.721 14.183L231.08 0.468859H235.182V0.996326C234.538 1.11354 234.088 1.26006 233.834 1.43588C233.58 1.6117 233.453 1.94381 233.453 2.43221V16.7031C233.453 17.1915 233.571 17.5236 233.805 17.6994C234.059 17.8557 234.518 18.0022 235.182 18.139V18.6665H229.439V18.139C230.083 18.0022 230.523 17.8557 230.757 17.6994C231.011 17.5236 231.138 17.1915 231.138 16.7031V2.31499L224.369 16.8789H223.578L216.428 2.28569V16.7031C216.428 17.1915 216.545 17.5236 216.78 17.6994C217.033 17.8557 217.473 18.0022 218.098 18.139V18.6665H213.849Z" fill="#AC8A74"/>
<path d="M236.943 18.6665V18.139C237.588 18.0022 238.027 17.8557 238.262 17.6994C238.516 17.5236 238.643 17.1915 238.643 16.7031V2.43221C238.643 1.94381 238.516 1.6117 238.262 1.43588C238.027 1.26006 237.588 1.11354 236.943 0.996326V0.468859H242.687V0.996326C242.042 1.11354 241.593 1.26006 241.339 1.43588C241.104 1.6117 240.987 1.94381 240.987 2.43221V16.7031C240.987 17.1915 241.104 17.5236 241.339 17.6994C241.593 17.8557 242.042 18.0022 242.687 18.139V18.6665H236.943Z" fill="#AC8A74"/>
<path d="M247.957 18.6665V18.139C249.188 18.0218 249.979 17.885 250.331 17.7287C250.702 17.5529 250.887 17.2208 250.887 16.7324V3.04758C250.887 2.36383 250.751 1.90474 250.477 1.67031C250.204 1.43588 249.52 1.31867 248.426 1.31867C247.41 1.31867 246.668 1.50426 246.199 1.87544C245.73 2.24662 245.3 2.98898 244.909 4.10252H244.294L244.734 0.615377C244.753 0.517698 244.851 0.449323 245.027 0.410252C245.652 0.449323 246.306 0.468859 246.99 0.468859H257.1C257.803 0.468859 258.467 0.449323 259.092 0.410252C259.268 0.449323 259.366 0.517698 259.385 0.615377L259.825 4.10252H259.21C258.819 2.98898 258.389 2.24662 257.92 1.87544C257.451 1.50426 256.709 1.31867 255.693 1.31867C254.599 1.31867 253.915 1.43588 253.642 1.67031C253.368 1.90474 253.232 2.36383 253.232 3.04758V16.7324C253.232 17.2208 253.408 17.5529 253.759 17.7287C254.13 17.885 254.931 18.0218 256.162 18.139V18.6665H247.957Z" fill="#AC8A74"/>
<path d="M258.799 18.6665V18.139C259.483 18.0022 260.001 17.8069 260.352 17.5529C260.704 17.2794 261.027 16.8203 261.32 16.1756L267.092 2.54942C267.464 1.70938 267.649 1.01586 267.649 0.468859L269.202 0.32234L275.708 15.4137C276.157 16.4687 276.538 17.1622 276.85 17.4943C277.163 17.8264 277.681 18.0315 278.404 18.1097V18.6665H272.162V18.139C273.021 18.0022 273.529 17.7971 273.686 17.5236C273.842 17.2501 273.774 16.8301 273.481 16.2636L272.572 14.1244C272.181 13.382 271.595 13.0108 270.814 13.0108H264.924C264.045 13.0108 263.488 13.3039 263.254 13.89L262.287 16.117C262.033 16.7226 262.052 17.1915 262.345 17.5236C262.658 17.8362 263.244 18.0413 264.103 18.139V18.6665H258.799ZM264.689 12.2196H270.99C271.185 12.2196 271.341 12.1513 271.459 12.0145C271.576 11.8582 271.586 11.6824 271.488 11.4871L268.147 3.69227C267.952 3.20387 267.757 3.22341 267.561 3.75087L264.309 11.3991C264.191 11.6531 264.172 11.8582 264.25 12.0145C264.328 12.1513 264.475 12.2196 264.689 12.2196Z" fill="#AC8A74"/>
<path d="M54.4662 40.5148C56.2152 40.5148 58.1585 39.8901 59.3522 38.2939C60.5043 36.7531 60.8791 35.0597 60.8791 33.3384V33.1858C60.8791 30.7566 59.4216 29.3824 57.4228 29.3824C55.3546 29.3824 53.9665 30.5207 53.9665 32.7971V32.9359C53.9665 35.2262 55.3546 36.3367 57.2146 36.3367C58.2418 36.3367 59.0607 35.948 59.6576 35.3511C59.4494 36.184 59.1163 36.9891 58.561 37.7109C57.52 39.0712 55.8959 39.6264 54.4662 39.6264V40.5148ZM57.3951 35.4483H57.3118C55.8959 35.4483 54.9521 34.5738 54.9521 32.9914V32.7555C54.9521 31.1869 55.9098 30.2708 57.3812 30.2708H57.4645C58.8109 30.2708 59.8936 31.3535 59.8936 33.1441V33.2829C59.8936 33.505 59.8797 33.7132 59.8658 33.9353C59.4078 34.8376 58.4778 35.4483 57.3951 35.4483Z" fill="#191919"/>
<path d="M62.4977 32.6444V37.2528C62.4977 39.1267 63.4416 40.5148 65.8013 40.5148C68.1611 40.5148 69.105 39.1267 69.105 37.2528V32.6444C69.105 30.7705 68.1611 29.3824 65.8013 29.3824C63.4416 29.3824 62.4977 30.7705 62.4977 32.6444ZM68.1194 32.7555V37.1418C68.1194 38.6409 67.5364 39.6264 65.843 39.6264H65.7597C64.0663 39.6264 63.4833 38.6409 63.4833 37.1418V32.7555C63.4833 31.2563 64.0663 30.2708 65.7597 30.2708H65.843C67.5364 30.2708 68.1194 31.2563 68.1194 32.7555Z" fill="#191919"/>
<path d="M72.0839 39.1128H70.8346V40.3621H72.0839V39.1128Z" fill="#191919"/>
<path d="M80.5764 40.3621V39.4598H77.7586V29.4796H77.1201L73.7193 31.7838L74.219 32.5472L76.7731 30.8122V39.4598H73.9414V40.3621H80.5764Z" fill="#191919"/>
<path d="M85.0849 29.5351V40.3621H86.0843V35.2817H90.2069V34.3934H86.0843V30.4374H90.9009V29.5351H85.0849Z" fill="#191919"/>
<path d="M100.349 31.2702L100.308 33.6855V40.3621H101.307V29.5351H99.9053L96.7543 38.6409L93.6034 29.5351H92.2015V40.3621H93.2009V33.6855L93.1453 31.2702L96.2963 40.3621H97.1985L100.349 31.2702Z" fill="#191919"/>
<path d="M104.441 39.1128H103.191V40.3621H103.844C103.788 41.1533 103.441 41.417 102.872 41.417V42C103.899 42 104.441 41.3754 104.441 40.1122V39.1128Z" fill="#191919"/>
<path d="M114.546 40.3621V39.8346H109.757V29.5351H109.202V40.3621H114.546Z" fill="#191919"/>
<path d="M118.508 29.3963L115.233 40.3621H115.843L116.704 37.4333H121.132L122.006 40.3621H122.617L119.341 29.3963H118.508ZM118.925 29.9516L120.979 36.9058H116.857L118.925 29.9516Z" fill="#191919"/>
<path d="M126.973 29.5351V40.3621H127.528V35.1013H131.831V34.5738H127.528V30.0626H132.525V29.5351H126.973Z" fill="#191919"/>
<path d="M134.469 35.7814H136.717C136.953 35.7814 137.189 35.7676 137.425 35.7259L139.257 40.3621H139.882L137.953 35.6149C138.994 35.2956 139.882 34.5044 139.882 32.7971V32.5195C139.882 30.1598 138.189 29.5351 136.717 29.5351H133.913V40.3621H134.469V35.7814ZM134.469 35.254V30.0626H136.717C137.772 30.0626 139.299 30.4513 139.299 32.5472V32.7693C139.299 34.8653 137.772 35.254 136.717 35.254H134.469Z" fill="#191919"/>
<path d="M141.83 29.5351V40.3621H147.66V39.8346H142.385V35.1013H146.965V34.5738H142.385V30.0626H147.66V29.5351H141.83Z" fill="#191919"/>
<path d="M149.673 35.2262V34.671C149.673 31.2702 150.686 29.9238 152.615 29.9238H152.699C154.489 29.9238 155.294 30.9232 155.294 33.4217H155.877V33.0747C155.877 30.715 154.85 29.3963 152.629 29.3963C150.27 29.3963 149.09 30.9232 149.09 34.671V35.2262C149.09 38.974 150.27 40.5009 152.629 40.5009C154.85 40.5009 155.877 39.1822 155.877 37.0307V36.8919H155.294C155.294 38.9046 154.517 39.9734 152.699 39.9734H152.615C150.658 39.9734 149.673 38.627 149.673 35.2262Z" fill="#191919"/>
<path d="M161.019 40.5009C163.101 40.5009 164.351 39.7236 164.351 37.0307V29.5351H163.795V36.9613C163.795 39.3349 162.824 39.9734 161.019 39.9734C159.215 39.9734 158.243 39.3349 158.243 36.9613V29.5351H157.688V37.0307C157.688 39.7236 158.937 40.5009 161.019 40.5009Z" fill="#191919"/>
<path d="M166.5 29.5351V40.3621H172.33V39.8346H167.056V35.1013H171.636V34.5738H167.056V30.0626H172.33V29.5351H166.5Z" fill="#191919"/>
<path d="M180.798 29.5351H180.271V36.8919L180.312 39.5292L174.621 29.5351H173.997V40.3621H174.524V33.0053L174.482 30.368L180.173 40.3621H180.798V29.5351Z" fill="#191919"/>
<path d="M183.371 35.2262V34.671C183.371 31.2702 184.385 29.9238 186.314 29.9238H186.397C188.188 29.9238 188.993 30.9232 188.993 33.4217H189.576V33.0747C189.576 30.715 188.549 29.3963 186.328 29.3963C183.968 29.3963 182.788 30.9232 182.788 34.671V35.2262C182.788 38.974 183.968 40.5009 186.328 40.5009C188.549 40.5009 189.576 39.1822 189.576 37.0307V36.8919H188.993C188.993 38.9046 188.216 39.9734 186.397 39.9734H186.314C184.357 39.9734 183.371 38.627 183.371 35.2262Z" fill="#191919"/>
<path d="M192.08 29.5351H191.525V40.3621H192.08V29.5351Z" fill="#191919"/>
<path d="M197.008 29.3963L193.732 40.3621H194.343L195.203 37.4333H199.631L200.506 40.3621H201.116L197.84 29.3963H197.008ZM197.424 29.9516L199.478 36.9058H195.356L197.424 29.9516Z" fill="#191919"/>
<path d="M212.232 35.2262V34.671C212.232 30.9232 210.608 29.5351 208.179 29.5351H205.472V40.3621H208.179C210.608 40.3621 212.232 38.974 212.232 35.2262ZM206.027 39.8346V30.0626H208.109C210.261 30.0626 211.649 31.2702 211.649 34.671V35.2262C211.649 38.627 210.261 39.8346 208.109 39.8346H206.027Z" fill="#191919"/>
<path d="M214.215 29.5351V40.3621H220.045V39.8346H214.771V35.1013H219.351V34.5738H214.771V30.0626H220.045V29.5351H214.215Z" fill="#191919"/>
<path d="M227.056 40.3621V39.8346H222.267V29.5351H221.711V40.3621H227.056Z" fill="#191919"/>
<path d="M233.634 29.3963L230.358 40.3621H230.969L231.83 37.4333H236.258L237.132 40.3621H237.743L234.467 29.3963H233.634ZM234.051 29.9516L236.105 36.9058H231.982L234.051 29.9516Z" fill="#191919"/>
<path d="M247.412 30.5068L247.371 33.0053V40.3621H247.926V29.5351H247.204L243.623 39.4182L240.042 29.5351H239.32V40.3621H239.875V33.0053L239.833 30.5068L243.415 40.3621H243.831L247.412 30.5068Z" fill="#191919"/>
<path d="M253.482 40.5009C255.842 40.5009 257.049 38.974 257.049 35.2262V34.671C257.049 30.9232 255.842 29.3963 253.482 29.3963C251.122 29.3963 249.915 30.9232 249.915 34.671V35.2262C249.915 38.974 251.122 40.5009 253.482 40.5009ZM253.44 39.9734C251.469 39.9734 250.498 38.627 250.498 35.2262V34.671C250.498 31.2702 251.469 29.9238 253.44 29.9238H253.524C255.495 29.9238 256.466 31.2702 256.466 34.671V35.2262C256.466 38.627 255.495 39.9734 253.524 39.9734H253.44Z" fill="#191919"/>
<path d="M259.585 35.7814H261.833C262.069 35.7814 262.305 35.7676 262.541 35.7259L264.373 40.3621H264.998L263.069 35.6149C264.11 35.2956 264.998 34.5044 264.998 32.7971V32.5195C264.998 30.1598 263.305 29.5351 261.833 29.5351H259.029V40.3621H259.585V35.7814ZM259.585 35.254V30.0626H261.833C262.888 30.0626 264.415 30.4513 264.415 32.5472V32.7693C264.415 34.8653 262.888 35.254 261.833 35.254H259.585Z" fill="#191919"/>
<path d="M276.484 35.2262V34.671C276.484 30.9232 274.86 29.5351 272.431 29.5351H269.725V40.3621H272.431C274.86 40.3621 276.484 38.974 276.484 35.2262ZM270.28 39.8346V30.0626H272.362C274.513 30.0626 275.901 31.2702 275.901 34.671V35.2262C275.901 38.627 274.513 39.8346 272.362 39.8346H270.28Z" fill="#191919"/>
<path d="M278.468 29.5351V40.3621H284.298V39.8346H279.023V35.1013H283.604V34.5738H279.023V30.0626H284.298V29.5351H278.468Z" fill="#191919"/>
<path d="M295.503 35.2262V34.671C295.503 30.9232 293.879 29.5351 291.449 29.5351H288.743V40.3621H291.449C293.879 40.3621 295.503 38.974 295.503 35.2262ZM289.298 39.8346V30.0626H291.38C293.532 30.0626 294.92 31.2702 294.92 34.671V35.2262C294.92 38.627 293.532 39.8346 291.38 39.8346H289.298Z" fill="#191919"/>
<path d="M298.111 29.5351H297.555V40.3621H298.111V29.5351Z" fill="#191919"/>
<path d="M303.732 40.5009C306.091 40.5009 307.299 38.974 307.299 35.2262V34.671C307.299 30.9232 306.091 29.3963 303.732 29.3963C301.372 29.3963 300.164 30.9232 300.164 34.671V35.2262C300.164 38.974 301.372 40.5009 303.732 40.5009ZM303.69 39.9734C301.719 39.9734 300.747 38.627 300.747 35.2262V34.671C300.747 31.2702 301.719 29.9238 303.69 29.9238H303.773C305.744 29.9238 306.716 31.2702 306.716 34.671V35.2262C306.716 38.627 305.744 39.9734 303.773 39.9734H303.69Z" fill="#191919"/>
<path d="M312.152 35.018C314.165 35.2956 315.081 36.0035 315.081 37.461V37.5998C315.081 39.1267 313.929 39.9734 312.305 39.9734H312.222C310.612 39.9734 309.418 38.9879 309.418 36.8919H308.863V37.0307C308.863 39.1406 310.056 40.5009 312.263 40.5009C314.29 40.5009 315.664 39.3904 315.664 37.5304V37.3916C315.664 35.8647 314.776 34.8376 312.416 34.5183C310.292 34.2268 309.585 33.4495 309.585 32.1725V32.0337C309.585 30.715 310.75 29.9238 312.222 29.9238H312.305C314.151 29.9238 314.97 30.8677 314.97 33.1441H315.525V32.7971C315.525 30.6595 314.582 29.3963 312.263 29.3963C310.362 29.3963 309.002 30.4374 309.002 32.1725V32.3113C309.002 33.5467 309.793 34.6988 312.152 35.018Z" fill="#191919"/>
</svg>
