<svg width="340" height="79" viewBox="0 0 340 79" fill="none" xmlns="http://www.w3.org/2000/svg">
<path fill-rule="evenodd" clip-rule="evenodd" d="M19.2842 35.7158C17.94 36.0471 16.689 36.4753 15.531 36.9817C16.5959 36.5498 17.7204 36.1626 18.9193 35.8349L19.2842 35.7158ZM7.98381 65.8749C7.96147 65.7669 7.94657 65.6999 7.94657 65.6999C7.94657 65.6999 7.96147 65.7669 7.98381 65.8749ZM8.03594 66.3962C5.89129 63.168 5.65299 62.4345 4.7296 58.8415C5.03864 59.9883 5.31417 60.9303 5.66416 61.8239C5.35512 60.9675 5.09449 59.9957 4.7296 58.5771C5.5115 61.4851 6.09979 63.1085 8.17742 65.8712C8.76199 66.2584 9.11198 66.251 9.31677 66.0722C9.31304 66.1616 9.30187 66.2584 9.28326 66.3627C9.29443 66.3552 9.30932 66.3478 9.31677 66.3403C9.29815 66.8095 9.13432 67.6435 8.19232 67.2228C8.09179 66.6159 7.98009 66.1244 7.95402 66.0015C7.96519 66.0611 7.9987 66.2063 8.03594 66.3962ZM4.09291 73.9471C4.09291 73.9509 4.09291 73.9583 4.09291 73.9657C4.08174 74.0104 4.07801 74.0663 4.08546 74.1482C4.08546 74.1482 4.09663 74.2822 4.10035 74.4945C4.09663 74.5801 4.09663 74.6695 4.09291 74.7663C4.09663 74.7663 4.09663 74.77 4.10035 74.7737C4.09663 74.8556 4.09663 74.9413 4.09291 75.0306C5.04608 76.3487 5.61203 75.5891 5.61203 75.5891C5.74608 75.3657 5.80937 75.0455 5.82799 74.6769C5.82427 74.6806 5.81309 74.6844 5.80192 74.6918C5.81682 74.6024 5.82427 74.5056 5.82799 74.4088C5.60086 74.5615 5.09821 74.6806 4.37216 73.586C2.77112 69.4121 2.67059 65.0856 2.49931 62.7734C2.50304 62.9446 2.51048 63.1085 2.51421 63.276C2.51048 63.1978 2.50304 63.1122 2.49931 63.0377C2.61474 66.8355 2.71527 69.8291 4.05567 74.0328C4.0594 73.9955 4.07429 73.9695 4.09291 73.9471ZM42.153 24.8659C42.7673 24.8287 43.3407 24.7989 43.8881 24.7728C43.2663 24.7877 42.6817 24.825 42.153 24.8659ZM58.0927 8.33053C57.9661 8.37521 57.8208 8.42361 57.6533 8.46457C57.7166 8.52415 57.7687 8.58 57.8246 8.63212C57.9735 8.53532 58.0554 8.43478 58.0927 8.33053ZM57.5155 6.99385C57.6235 7.02364 57.7278 7.05342 57.8357 7.07576C57.7352 7.04598 57.6235 7.01991 57.5155 6.99385ZM57.7203 7.31033C57.6533 7.29544 57.5863 7.27682 57.5155 7.25821C57.59 7.28055 57.6607 7.31033 57.7389 7.32895C57.7315 7.3215 57.724 7.31778 57.7203 7.31033ZM57.1097 8.79223C57.0762 8.75499 57.0464 8.72148 57.0054 8.68053C57.0315 8.72148 57.0725 8.75872 57.1097 8.79223ZM57.1097 9.06031C57.0762 9.02307 57.0464 8.98956 57.0054 8.94861C57.0315 8.98956 57.0725 9.0268 57.1097 9.06031ZM51.6326 7.74224C53.5651 7.86139 55.3709 8.23 57.1991 8.88159C57.1879 8.87042 57.173 8.85552 57.1581 8.84063C55.3337 8.18532 53.5539 7.72363 51.6326 7.47416C53.5688 7.59331 55.3821 7.96564 57.2177 8.62095C57.7687 8.46085 58.0219 8.26723 58.0927 8.06245C58.0294 7.87628 57.8655 7.69756 57.6794 7.54118C55.2964 6.33109 53.9448 6.34971 52.0497 6.08907C53.9635 6.16354 55.2666 6.20078 57.6086 7.24331C55.2704 6.07046 53.9262 6.0779 52.0497 5.82099C54.0268 5.89918 55.3448 5.92525 57.8469 7.07576C58.0703 7.12789 58.2974 7.16885 58.5246 7.18746C58.7145 7.38108 58.8373 7.60448 58.7629 7.82043C58.8559 8.11458 58.6698 8.42734 57.8655 8.67308C58.2788 9.10871 58.4054 9.44381 58.3421 9.70817C58.4501 10.2369 57.9325 10.5348 57.2363 10.7023C57.4373 10.5981 57.5788 10.4677 57.6533 10.3076C57.5267 10.356 57.3889 10.397 57.2363 10.4342C57.4746 10.3076 57.6384 10.1475 57.6905 9.93902C57.6459 9.71189 57.4783 9.43637 57.1581 9.10871C55.3337 8.45712 53.5539 7.99171 51.6326 7.74224ZM63.5064 2.6971C63.767 3.0322 63.9085 3.33007 63.942 3.59815C63.9011 3.86623 63.7521 4.09336 63.5139 4.26091C63.633 4.23485 63.741 4.20506 63.849 4.1641C63.7708 4.30559 63.6553 4.42846 63.5139 4.52899C64.2846 4.36516 64.7984 3.91836 64.7128 3.25561C64.7574 2.91678 64.6271 2.50349 64.2474 2.03062C64.0612 2.08647 63.8564 2.1386 63.6404 2.187C60.9708 1.47957 58.1895 2.13115 55.6576 2.95774C56.7485 2.73434 57.9623 2.48487 59.1836 2.32849C57.9772 2.52211 56.7932 2.85348 55.6576 3.22582C58.0815 2.72689 61.09 2.07158 63.5064 2.6971ZM60.6432 4.51037C60.6134 4.45825 60.5873 4.40612 60.5538 4.35399C60.5687 4.40612 60.6022 4.45825 60.6432 4.51037ZM60.6432 4.77846C60.6134 4.72633 60.5873 4.6742 60.5538 4.61835C60.5687 4.6742 60.6022 4.72633 60.6432 4.77846ZM55.7246 4.24602C56.6368 4.08591 57.5453 3.96676 58.4389 4.00772C57.5379 3.93698 56.6182 3.98538 55.7246 3.97421C57.5863 3.65028 59.4293 3.49018 61.1681 4.53271C61.0974 4.51782 61.0304 4.4992 60.9671 4.48431C61.1607 4.54016 61.358 4.58112 61.5554 4.60718C61.7341 5.00186 61.7899 5.33323 61.7639 5.62366C61.8383 6.43907 61.291 6.92311 60.4905 7.10927C60.6655 7.0013 60.807 6.86353 60.9112 6.70343C60.7809 6.75928 60.6431 6.80768 60.4905 6.84119C60.8181 6.63641 61.0304 6.34226 61.0751 5.94759C61.0527 5.63483 60.9261 5.26621 60.6841 4.84548C59.124 4.0673 57.3815 4.25719 55.7246 4.24602ZM17.1097 20.2043C17.1619 20.007 17.106 19.8022 16.9608 19.6495C16.7374 19.4708 16.3539 19.5043 16.1454 19.7798C16.0076 19.9176 15.9667 20.1224 16.0114 20.3048C15.9629 20.4947 16.0039 20.7069 16.1677 20.8224C16.3986 21.0272 16.7784 20.9974 16.9757 20.7367C17.1209 20.5729 17.1544 20.3793 17.1097 20.2043ZM12.9284 59.7798C12.9284 59.7798 12.988 59.9622 13.0513 60.2266C13.122 60.2266 13.1779 60.2378 13.1779 60.2378C14.0827 61.8686 15.4566 61.2468 15.3374 60.2229C15.3523 60.1112 15.3523 59.992 15.3263 59.8654C14.9539 60.3644 14.064 60.409 13.4311 59.2362C13.4311 59.2362 13.364 59.2138 13.2747 59.2138C13.2784 59.2138 13.2859 59.2101 13.2896 59.2101C12.4816 57.3745 11.8784 55.0735 11.1114 53.0442C11.2231 53.4389 11.3385 53.841 11.4465 54.2506C11.3385 53.9341 11.2268 53.6176 11.1114 53.3123C11.6923 55.308 12.1875 57.516 12.9731 59.4C12.9582 59.4335 12.9396 59.467 12.9284 59.5117C12.9284 59.5117 12.947 59.5713 12.9731 59.6681C12.9582 59.7016 12.9396 59.7351 12.9284 59.7798ZM15.3263 58.9793C15.4528 59.1878 15.4864 59.3888 15.4938 59.575C15.6241 59.6048 15.7433 59.6793 15.7433 59.6793C16.6555 60.5356 17.173 60.3122 17.173 60.3122C18.1039 60.0218 18.2528 59.441 18.2081 58.9681C18.2156 58.8638 18.2156 58.7633 18.2044 58.6665C18.0629 58.9234 17.8097 59.158 17.3294 59.3069C17.3294 59.3069 16.8044 59.5452 15.8922 58.6777C15.8922 58.6777 15.7768 58.592 15.639 58.5734C14.2167 56.6931 13.688 55.0325 12.5375 53.0182C13.3752 54.7011 13.7811 55.7176 14.4103 56.924C13.7736 55.7548 13.2859 54.5932 12.5375 53.2863C13.7327 55.6841 14.0454 56.7229 15.3933 58.9085C15.3709 58.9271 15.3486 58.9458 15.3263 58.9793ZM21.224 57.2181H21.2203V57.233C21.2203 57.2293 21.2203 57.2218 21.224 57.2181ZM18.156 57.3931C18.1523 57.3857 18.1486 57.3857 18.1448 57.3782C18.1337 57.4006 18.1262 57.4229 18.115 57.4601C17.3555 56.3096 15.7098 53.599 15.3039 52.9363C16.0858 54.0309 17.0576 55.6134 17.8209 56.7378C16.9906 55.4458 15.6651 53.2565 15.3039 52.6682C16.2273 53.9639 17.4188 55.941 18.2081 57.0357C18.1746 57.0506 18.1448 57.0915 18.1225 57.1734C18.1262 57.1809 18.1299 57.1846 18.1299 57.1883C18.2677 56.8346 18.5805 57.099 18.5805 57.099C19.1092 58.0224 19.6937 58.0894 19.6937 58.0894C20.6693 58.3686 21.0304 57.9553 21.1645 57.5234C21.1645 57.5421 21.1719 57.6351 21.1719 57.7617C21.1868 57.6984 21.2017 57.6351 21.2091 57.5718C21.2091 57.5681 21.2091 57.5681 21.2054 57.5644L21.1943 57.5681L21.198 57.6053C21.1943 57.5867 21.1905 57.5644 21.1868 57.5458C21.1794 57.5346 21.1719 57.5272 21.1645 57.5197C21.1682 57.5048 21.1719 57.4899 21.1756 57.4713C20.9038 55.6469 19.0161 53.0107 17.9922 51.5549C18.4278 52.0911 18.923 52.698 19.407 53.3607C18.9007 52.5714 18.3831 51.8453 17.9922 51.2905C19.2172 52.7836 20.9038 54.865 21.4437 57.0655C22.2554 57.9628 22.8735 58.1787 23.2868 57.9628C23.5325 57.8325 23.7075 57.542 23.8043 57.1548C23.8192 57.0766 23.8378 56.9947 23.849 56.9091C23.8639 56.8234 23.8751 56.7341 23.8788 56.6447C23.89 56.7676 23.8937 56.883 23.8937 57.0022C23.8937 57.0468 23.89 57.0878 23.8862 57.1362C23.9384 58.9569 22.9926 59.966 21.1682 57.7952C21.1682 57.8101 21.1682 57.825 21.1682 57.8436C21.1868 58.1341 21.2091 59.5229 19.5895 59.0686C19.5895 59.0686 18.9938 59.0165 18.4464 58.0373C18.4464 58.0373 18.3608 57.9702 18.264 57.9442C18.1895 57.7133 18.1002 57.5495 18.1002 57.5495C18.115 57.4825 18.1337 57.4341 18.156 57.3931ZM11.4428 62.1776C12.7683 63.4249 13.0587 62.9372 13.0141 62.1739C13.0215 62.0808 13.0178 61.9803 13.0141 61.8686C12.7795 61.9617 12.3476 61.7643 11.6029 61.0308C11.0407 58.6851 11.1524 58.8378 10.1582 56.0639C10.4003 56.8197 10.5827 57.4229 10.7354 57.9814C10.5939 57.5644 10.4114 57.0431 10.1582 56.332C10.862 58.5027 11.0518 59.4112 11.4242 61.6526C11.4316 61.5335 11.4391 61.4404 11.4428 61.3585C11.4428 61.4962 11.4428 61.6563 11.4428 61.8388C11.4428 61.943 11.4428 62.0547 11.4428 62.1776ZM23.8341 55.3229L23.8378 55.3267C23.8937 55.3862 23.9533 55.4421 24.0091 55.4979C23.957 55.4346 23.9011 55.3825 23.8341 55.3229ZM23.7932 55.5538C23.8006 55.5612 23.8043 55.5649 23.8118 55.5724C23.8118 55.5724 23.8118 55.5687 23.808 55.5687C23.8043 55.5612 23.8006 55.5575 23.7932 55.5538ZM23.8341 55.8889C22.8698 53.7591 21.8868 52.0762 20.699 50.0507C21.0677 50.5719 21.3916 51.0374 21.6857 51.4767C21.373 50.9294 21.0453 50.3709 20.699 49.7863C22.2331 51.9384 23.0075 53.2192 24.0612 55.5463C25.2974 56.682 25.7181 56.116 25.7181 56.116C26.0756 55.9038 26.1947 55.4793 26.1984 55.0325C26.2394 55.2745 26.2617 55.5314 26.2468 55.7772C26.2692 56.2947 26.1687 56.8048 25.7665 57.058C25.7665 57.058 25.2639 57.6947 23.8862 56.2947C23.8751 56.1644 23.8527 56.0266 23.8341 55.8889ZM5.74607 70.7562C6.4833 71.7057 7.40669 71.2142 7.40669 71.2142C7.77902 71.1434 7.94285 70.7078 7.98753 70.1456C7.97264 70.1568 7.96147 70.1642 7.94657 70.1754C7.96147 70.0823 7.97636 69.9818 7.98753 69.8775C7.91679 69.9408 7.8386 69.9929 7.73807 70.0153C7.73807 70.0153 6.55776 70.6445 5.85405 69.1403C5.93224 69.2557 5.99554 69.3711 6.05884 69.4754C4.82268 66.4409 4.55088 65.3127 4.08546 60.7516C4.08918 60.8558 4.09291 60.9601 4.09291 61.0606C4.09291 61.0457 4.08918 61.0346 4.08546 61.0197C4.1078 64.0579 4.50248 66.1877 5.45193 69.7397C5.45193 69.7397 5.58597 70.1605 5.74607 70.7562ZM14.3172 24.1808C15.3002 25.1824 16.8454 25.8489 18.9342 25.726C18.9081 25.6739 18.8895 25.6218 18.8634 25.5659C16.8528 25.6813 15.3337 25.0968 14.3172 24.1808ZM19.3438 35.4961L19.2842 35.4477C19.2805 35.4477 19.273 35.4477 19.2693 35.4477C19.8315 33.9025 20.1257 32.5025 20.1517 31.1323C20.1405 29.4121 19.7161 27.7255 18.8634 25.834C16.3576 25.9792 14.6114 25.0335 13.6582 23.7154L9.74123 23.95L10.296 23.6484L9.74123 23.6819L12.8875 21.9729C12.8167 21.6266 12.7869 21.2803 12.8018 20.9378C12.8018 20.9266 12.8018 20.9192 12.8018 20.9043C12.8018 20.8261 12.7981 20.7479 12.8018 20.6734C12.947 16.7379 18.7443 13.465 30.5808 24.2516L30.5212 24.2739C21.6448 16.1086 16.2161 16.0639 14.0752 18.2384C16.38 16.2575 21.8272 16.5442 30.5808 24.5197L30.5212 24.542C18.9528 13.8969 13.23 17.0469 13.0327 20.9341C13.0736 23.2351 15.088 25.7074 18.9789 25.4617C20.256 26.8616 20.6693 28.984 20.6544 30.9387C20.6842 33.2435 20.107 35.3658 19.6304 35.8573C21.3581 35.5482 22.5347 35.7902 22.5347 35.7902C21.8942 35.7865 21.2576 35.8573 20.6358 35.9913C21.7974 35.9019 22.5347 36.062 22.5347 36.062C15.8475 35.9801 9.93857 44.4582 9.93857 44.4582C10.1024 44.138 10.2699 43.829 10.4375 43.5274C10.1173 43.9407 9.93857 44.1938 9.93857 44.1938C12.947 38.2439 16.8305 36.4009 19.4852 35.8833L19.2842 35.7158C19.2805 35.7158 19.273 35.7158 19.2693 35.7158C19.2953 35.6413 19.3177 35.5706 19.3438 35.4961ZM67.1069 0.358839C67.0883 0.358839 67.0622 0.358839 67.0436 0.358839C67.1143 0.198735 67.1069 0.0944809 67.1069 0.0944809C57.9921 -0.460298 47.6524 1.37904 40.9466 6.91566C36.4265 10.4975 33.5074 15.7288 33.6749 23.0191C33.6786 23.1085 33.6712 23.1979 33.6749 23.2872C36.1063 23.4511 32.7217 8.07362 50.013 3.19231C57.1209 0.794471 64.8654 1.08489 64.8654 1.08489L66.0979 0.746067C65.8149 0.731174 65.5282 0.723727 65.2452 0.712557L65.2527 0.708834C65.5691 0.723727 65.8893 0.731174 66.2021 0.749791C66.1127 0.947128 65.9117 1.23383 65.4463 1.52052C65.6846 1.43861 65.8856 1.34925 66.0569 1.25617C65.934 1.41627 65.7479 1.60244 65.4463 1.78861C67.1478 1.17425 67.1069 0.358839 67.1069 0.358839ZM25.8745 53.5581L25.9527 53.6325L25.9452 53.6176L25.8745 53.5581ZM25.9825 53.6474C25.9825 53.6549 25.9825 53.6586 25.9862 53.6623L25.9937 53.6698C25.9937 53.666 25.9937 53.6586 25.9899 53.6549L25.9825 53.6474ZM25.9676 53.841C25.9788 53.882 25.9862 53.923 25.9974 53.9714L22.0879 46.9864L23.9719 50.0805L22.0879 46.7183L26.2952 53.6437L25.9639 53.3644L25.975 53.3831L26.4553 53.8373C28.559 55.3043 29.1734 53.8671 29.3484 53.1038C28.5144 50.5422 27.6431 48.8629 26.3995 46.5768C27.1442 47.8948 27.6282 48.7214 28.0192 49.4512C27.5426 48.4347 27.0176 47.448 26.3995 46.3087C28.1867 49.4773 28.4697 49.8087 29.6127 52.7873C30.8452 53.3682 31.3962 52.9958 31.3962 52.9958C31.776 52.8357 31.9101 52.5006 31.9361 52.1432C31.9361 52.1022 31.9324 52.065 31.9287 52.024C31.9324 52.0352 31.9361 52.0538 31.9398 52.065C31.9436 51.9645 31.9398 51.8602 31.9287 51.756C32.0031 52.0092 32.0925 52.3927 32.0664 52.7538C32.0962 53.2081 31.9957 53.6884 31.5228 53.8857C31.5228 53.8857 30.9196 54.3139 29.501 53.5655C29.501 53.5655 29.3186 56.6894 26.5075 54.7458L26.0979 54.3511C26.0532 54.1538 26.0085 53.9788 25.9676 53.841ZM62.5123 66.5823C62.5979 66.6345 62.6761 66.668 62.758 66.7089C58.0368 61.6489 53.3305 56.5926 48.5683 51.5698C48.5683 51.5698 48.5311 51.5735 48.4678 51.5847C53.122 56.5851 57.806 61.5893 62.5123 66.5823ZM73.511 53.9751C73.444 54.0011 73.3844 54.0309 73.31 54.0607C73.7307 54.3884 74.2929 54.7421 74.8142 55.1405C74.4828 54.7123 73.9988 54.3288 73.511 53.9751ZM73.6227 62.7845C73.619 62.7845 73.6153 62.7882 73.6079 62.7882C73.6153 62.7882 73.619 62.7845 73.6227 62.7845ZM69.3707 64.434C69.3707 64.434 69.3483 64.4749 69.326 64.5531C69.3558 64.4824 69.3707 64.434 69.3707 64.434C69.5047 64.4824 69.6276 64.5233 69.7505 64.5643C69.6388 64.5159 69.5196 64.4675 69.3707 64.434ZM65.3234 65.2903L65.3383 65.3015C65.383 65.2159 65.409 65.16 65.409 65.16C65.409 65.16 65.3867 65.2159 65.3234 65.2903ZM33.1797 47.206C33.1834 47.206 33.1834 47.2098 33.1834 47.2135C33.1611 47.1204 33.1462 47.0645 33.1462 47.0645C33.1462 47.0645 33.1611 47.1167 33.1797 47.206ZM33.2244 47.6677C33.1909 47.4927 33.1611 47.381 33.1537 47.3512C33.1537 47.3512 33.1537 47.3512 33.1537 47.3475C33.1574 47.3773 33.1834 47.489 33.2244 47.6677ZM31.709 51.1565C31.7276 51.1491 31.7388 51.1416 31.7537 51.1342C31.7388 51.1416 31.7239 51.1491 31.709 51.1565ZM31.8021 51.4246C31.8058 51.4469 31.8132 51.4618 31.817 51.4842C29.6351 48.5241 28.1904 46.3906 26.5484 42.6784C26.8798 43.3151 27.2112 43.9258 27.5463 44.5215C27.2149 43.8736 26.8873 43.1736 26.5484 42.4104C28.1532 45.4784 29.6798 48.0326 32.1409 50.6576C32.0962 50.6874 32.0404 50.7171 31.9845 50.7469C31.9845 50.7507 31.9882 50.7544 31.992 50.7544C33.0084 50.2368 33.2802 49.2576 33.3026 48.4347C33.2989 48.1815 33.2728 47.9544 33.243 47.7757C31.9994 45.5603 30.8228 43.6763 29.2963 41.7178C30.1787 42.7417 30.8489 43.6242 31.4633 44.5215C30.7968 43.479 30.0931 42.4737 29.2963 41.4497C31.076 43.5125 31.9845 45.0018 33.3435 47.1986C33.5595 47.3512 33.7717 47.4965 33.984 47.6379C35.9648 48.7698 41.5796 51.0076 47.6524 51.0411C47.9689 51.0038 48.1401 50.9703 48.1401 50.9703C52.906 56.0899 57.698 61.2058 62.5123 66.3143C63.9755 67.193 64.8729 66.0983 65.2303 65.4988L58.8522 60.6771L65.0144 65.0707L58.8522 60.409L65.6697 65.2717C65.6213 65.2606 65.5729 65.2457 65.5319 65.227C67.8367 66.5377 68.8531 65.4132 69.2069 64.7877L55.3895 56.4139L68.2053 63.909L55.3895 56.1458L69.81 64.5829C73.1164 65.6217 73.5818 63.8345 73.6227 62.9595C73.619 62.926 73.619 62.8962 73.6153 62.8739L56.5065 54.7458L72.5244 62.0845L56.5065 54.4777L73.861 62.4308C73.7642 62.4494 73.6935 62.5053 73.6079 62.5239C75.2275 62.0547 75.9424 61.2542 75.9982 60.2452C75.9573 59.4968 75.5924 58.6479 74.9781 57.7319C74.9929 57.758 75.0116 57.7841 75.0265 57.8027L52.2731 50.0916L74.8775 57.4899V57.4862L52.2731 49.8235L74.8775 57.2181C75.0823 56.9128 75.1903 56.6261 75.2163 56.3543C75.1233 55.3341 73.9392 54.541 72.9749 53.8634C67.2558 52.3405 61.533 50.8028 55.8028 49.239C59.34 50.1326 62.8436 51.0113 66.3548 51.823C62.8399 50.881 59.3251 49.9315 55.8028 48.9709C61.5032 50.4156 67.1143 51.8342 72.8371 52.9623C73.3621 52.7054 73.6041 52.4411 73.6637 52.173C73.6041 51.9049 73.3919 51.6517 73.1313 51.4283C73.2616 51.4953 73.418 51.581 73.5743 51.674C73.4775 51.4953 73.3174 51.3203 73.1313 51.1602C73.7158 51.4581 74.7584 52.0948 74.6132 52.7724C74.6951 53.1597 74.4419 53.5767 73.5371 53.9639C74.6318 54.757 76.3296 55.7176 76.203 57.0357C76.2328 57.3671 76.1435 57.7245 75.9014 58.108C76.6387 59.1803 77.0445 60.167 76.9961 61.0122C77.0594 62.1664 76.3557 63.0787 74.5797 63.6037C74.5834 63.6558 74.5834 63.7228 74.5797 63.7936C74.6132 64.5159 74.4493 67.0775 70.2419 65.5212C70.2419 65.5212 69.393 68.1722 66.2021 66.2547C66.2021 66.2547 65.2601 68.6823 63.2234 67.4722C58.3458 62.2521 53.4869 57.0245 48.5683 51.8379C48.5683 51.8379 40.8833 53.2788 33.3659 47.8837C33.418 48.1443 33.4739 48.539 33.459 48.9783C33.4888 49.9166 33.2467 51.1714 31.8803 51.7038C31.8542 51.5996 31.8281 51.5065 31.8021 51.4246ZM54.1757 11.1491C54.2539 11.1454 54.3581 11.1417 54.4587 11.1379C54.4512 11.1342 54.44 11.1305 54.4326 11.123L54.1757 11.1491ZM54.4512 13.1821C54.7714 13.0666 55.0134 12.9103 55.1251 12.7129C54.9278 12.7911 54.7007 12.8618 54.4512 12.9177C54.8347 12.7762 55.1065 12.5863 55.1735 12.3257C55.1177 12.0837 54.9166 11.797 54.5331 11.447C52.556 10.289 51.1486 9.88317 48.4417 9.56668C51.5209 9.84966 52.2917 10.1326 54.1757 10.9816C52.381 9.97998 50.9773 9.59275 48.4417 9.2986C51.6848 9.60019 52.3624 9.89434 54.4847 10.8512L54.1757 10.881C54.3768 10.8736 54.656 10.8699 54.9725 10.855C55.6352 11.4209 55.8438 11.8379 55.7618 12.1507C55.8847 12.698 55.2815 12.9959 54.4512 13.1821ZM72.4462 50.9666C72.1222 50.7767 71.8616 50.665 71.8616 50.665C71.8616 50.665 72.1111 50.7879 72.4462 50.9666ZM72.8036 51.19C72.7552 51.1565 72.7105 51.1267 72.6658 51.0969C72.1483 51.0038 65.5952 49.414 57.4373 48.0363C59.7086 48.3193 61.9612 48.6507 64.2027 49.0156C62.1697 48.6097 59.8761 48.1815 57.4373 47.7683C62.3522 48.3789 67.1925 49.2129 72.0068 50.1326C72.1185 49.898 72.1744 49.6672 72.1893 49.4438C72.1409 48.7661 71.7238 48.2002 71.3813 47.8502L71.6531 47.8948C71.56 47.7794 71.4707 47.6714 71.3813 47.5784L71.8206 47.6566C71.8206 47.6566 73.1946 48.6432 73.094 50.0023C73.1201 50.3709 73.0456 50.7693 72.8036 51.19ZM18.9193 35.5668L19.2842 35.4477C17.94 35.7791 16.689 36.2073 15.531 36.7136C16.5959 36.2817 17.7204 35.8982 18.9193 35.5668ZM42.153 24.5978C42.7673 24.5643 43.3407 24.5308 43.8881 24.5048C43.2663 24.5197 42.6817 24.5569 42.153 24.5978ZM21.1645 57.5234V57.5197C21.1645 57.5197 21.1645 57.5197 21.1607 57.516L21.1645 57.5234ZM4.98651 44.9571C4.98651 44.9534 4.99396 44.9497 4.99768 44.9422C4.99396 44.9497 4.98651 44.9534 4.98651 44.9571ZM5.48544 44.2646C5.55246 44.1752 5.61576 44.0859 5.6865 44.0002C5.61576 44.0859 5.55246 44.1752 5.48544 44.2646ZM6.27479 43.2593C6.16681 43.3933 6.06256 43.5274 5.95458 43.6614C8.28912 40.7684 11.4316 38.3705 15.531 36.7136C13.9747 37.3913 12.5784 38.2104 11.3274 39.1375C12.6045 38.3258 13.997 37.5998 15.531 36.9817C1.75464 42.9726 0.678595 60.0888 0.659978 64.9962C0.659978 65.1153 0.663702 65.227 0.663702 65.3276C1.03976 69.3451 1.94826 73.4072 3.25143 77.2832C3.37058 77.1715 3.45994 77.045 3.54557 76.9035C3.51206 77.0599 3.46738 77.2125 3.41898 77.3614C3.46366 77.3019 3.50462 77.2386 3.54557 77.1716C3.42643 77.7189 3.21047 78.2625 2.83069 78.6385C1.02859 73.2732 -0.0362888 67.5467 0.000945206 62.0659C0.00466832 54.9804 1.82911 48.2858 6.27479 43.2593ZM9.61091 64.9925C9.61464 64.9999 9.61836 65.0074 9.62208 65.0111C9.61836 64.959 9.61836 64.9255 9.61836 64.9255C9.61836 64.9255 9.61464 64.9552 9.61091 64.9925ZM9.61091 65.3499C9.61091 65.3387 9.61091 65.3239 9.61464 65.309C9.61091 65.309 9.61091 65.3052 9.61091 65.3015C9.61091 65.3164 9.61091 65.335 9.61091 65.3499ZM9.61836 65.2419C9.61836 65.2121 9.61836 65.1898 9.61836 65.1898C9.61836 65.1898 9.61464 65.2159 9.61091 65.2457C9.61464 65.2643 9.61464 65.2792 9.61464 65.2941C9.61836 65.2755 9.61836 65.2606 9.61836 65.2419ZM9.58485 65.5137C8.70986 63.3728 7.83487 61.1835 7.00084 59.0277C7.59658 60.4574 8.1737 61.9058 8.80667 63.317C8.19604 61.8016 7.58541 60.275 7.00084 58.7596C7.87955 60.867 8.70242 63.0303 9.76357 65.026C10.5418 65.5808 11.063 65.5137 11.3721 65.3499C11.3944 65.551 11.4167 65.7409 11.454 65.9494C11.454 65.9494 11.4428 65.9643 11.4242 65.9903C11.4316 66.0648 11.4391 66.1393 11.454 66.2212C11.454 66.2212 10.8657 67.1222 9.46943 66.1467C9.50666 66.0797 9.529 66.0089 9.55134 65.9345C9.52527 65.9159 9.49549 65.901 9.46943 65.8786C9.529 65.7707 9.56623 65.6403 9.58485 65.5137ZM44.5471 35.0344C44.5471 35.0344 46.688 36.3301 48.8662 39.0891C47.6561 37.436 46.4088 36.2482 45.4966 35.4998C45.2136 35.3807 44.9008 35.2317 44.5471 35.0344ZM46.8221 35.5966C46.338 35.5631 45.6157 35.3621 44.5471 34.7663C44.5471 34.7663 44.8748 34.9674 45.3998 35.3658C46.0923 35.6227 46.5391 35.645 46.8221 35.5966ZM47.7008 33.3775C47.4811 33.385 47.2391 33.3738 46.9636 33.3254C46.9636 33.3254 46.9933 33.3589 47.0455 33.4222C47.2949 33.4371 47.5109 33.4185 47.7008 33.3775ZM50.672 28.4292C50.6236 28.4403 50.5864 28.4515 50.5343 28.459C50.5343 28.459 50.5454 28.4701 50.5491 28.4776C50.5938 28.4627 50.6311 28.4441 50.672 28.4292ZM51.4912 25.7856C51.4651 25.793 51.4502 25.7968 51.4279 25.8042L51.4316 25.8117C51.4539 25.8042 51.4725 25.793 51.4912 25.7856ZM52.9135 22.6766C52.7236 22.7362 52.5002 22.7957 52.2321 22.8404C52.2321 22.8404 52.2395 22.8553 52.2582 22.8739C52.2917 22.8851 52.3252 22.9 52.3587 22.9112C52.3401 22.9186 52.3215 22.9261 52.3028 22.9372C52.3066 22.941 52.3103 22.9447 52.314 22.9484C52.5746 22.8702 52.7683 22.7771 52.9135 22.6766ZM53.3044 17.5421C53.122 17.6203 52.9209 17.6948 52.6715 17.7543C52.6715 17.7543 52.7534 17.7878 52.8725 17.8549C53.0512 17.7581 53.1927 17.6538 53.3044 17.5421ZM54.1571 15.0921C54.0528 15.1256 53.9337 15.1554 53.7996 15.1815C53.7996 15.1815 53.8443 15.2373 53.9039 15.3342C54.023 15.2597 54.1049 15.1778 54.1571 15.0921ZM53.297 13.223C53.2895 13.2156 53.2821 13.2118 53.2784 13.2044C53.2821 13.2118 53.2895 13.2156 53.297 13.223ZM53.4087 13.3161C53.3714 13.2863 53.3417 13.2602 53.3193 13.2416C53.3417 13.2602 53.3714 13.2863 53.405 13.3161H53.4087ZM53.5129 13.4092C53.5092 13.4092 53.5092 13.4055 53.5092 13.4055C53.4236 13.4241 53.3417 13.4427 53.2523 13.4539C53.3417 13.4464 53.4273 13.4241 53.5129 13.4092ZM53.297 13.4911C53.2895 13.4836 53.2821 13.4762 53.2784 13.4725C53.2821 13.4762 53.2895 13.4836 53.297 13.4911ZM52.1204 18.1341C52.1688 18.1229 52.206 18.108 52.2507 18.0969C52.247 18.0932 52.2433 18.0932 52.2395 18.0894C52.2023 18.1043 52.1614 18.1155 52.1204 18.1341ZM51.0741 25.9047C51.0816 25.9085 51.089 25.9085 51.0928 25.9122C51.0034 25.7744 50.9289 25.6888 50.9289 25.6888C50.9289 25.6888 50.9773 25.767 51.0741 25.9047ZM49.0002 31.4041C48.9965 31.4265 48.9853 31.486 48.9816 31.5829C48.9891 31.5158 48.9965 31.4563 49.0002 31.4041ZM49.4657 31.3371C49.6071 31.3148 49.73 31.285 49.8417 31.2515C49.7188 31.2664 49.6034 31.2813 49.4619 31.285C49.4619 31.285 49.4657 31.3073 49.4657 31.3371ZM46.6731 33.5041C46.6024 33.4147 46.554 33.3589 46.554 33.3589C46.6396 33.3775 46.7104 33.3812 46.7923 33.3924L46.7886 33.3887C46.7104 33.3812 46.6322 33.3738 46.554 33.3589C46.554 33.3589 46.6024 33.4185 46.6731 33.5041ZM44.9418 35.0642L39.4573 31.8509L45.0162 34.9376C44.7407 34.8222 44.4838 34.6993 44.1487 34.5131C44.1487 34.5131 44.387 34.6658 44.7966 34.9562C44.3982 34.6621 44.1487 34.5131 44.1487 34.5131C46.662 35.9131 47.2465 35.1349 47.2465 35.1349C47.3508 35.0716 47.4066 34.9823 47.429 34.878C47.3508 34.4424 46.9673 33.8876 46.7364 33.586C44.0817 32.1227 42.0674 31.6722 39.4833 31.635C41.2519 31.5866 42.4397 31.6759 43.4822 31.9254C42.1902 31.5456 40.9243 31.3892 39.4833 31.3669C43.2141 31.2664 44.3647 31.7653 47.0045 33.1392C46.837 33.128 46.6992 33.1131 46.554 33.0945C46.554 33.0945 46.6024 33.1504 46.6731 33.236C46.6024 33.1467 46.554 33.0945 46.554 33.0945C48.3375 33.4334 48.8252 32.4281 48.9556 31.7318C46.9263 29.9334 43.9141 29.643 41.1589 29.993C42.3689 29.7212 43.5679 29.6132 44.7333 29.6988C44.5955 29.6765 44.454 29.6616 44.3125 29.6467C43.7913 29.602 43.2588 29.5871 42.7338 29.602C42.3801 29.6095 42.0264 29.6318 41.6764 29.6691C41.5051 29.6839 41.3301 29.7026 41.1589 29.7249C44.0742 29.0733 46.8854 29.3377 49.4657 31.0728C50.3369 30.9275 50.6497 30.5329 50.6981 30.0861C50.6646 29.7435 50.5156 29.3935 50.3667 29.118C47.2056 27.2265 44.2679 27.5691 41.2966 27.7329C42.2684 27.5803 43.1881 27.4201 44.1115 27.3308C43.1695 27.3457 42.2349 27.4164 41.2966 27.4648C44.3423 26.9808 46.9077 26.4558 50.4859 28.2132C50.4412 28.2356 50.3853 28.2505 50.3257 28.2691C51.1635 28.0606 51.4763 27.6622 51.5284 27.2377C51.4576 26.5861 50.9289 25.9569 50.9289 25.9569C50.9289 25.9569 50.9959 26.0574 51.1337 26.251C48.7508 24.9441 46.0849 24.717 43.8881 24.7728C45.7088 24.6835 47.2056 24.6798 48.6353 25C46.9933 24.5569 45.3402 24.4675 43.8881 24.5048C46.7588 24.3707 48.8252 24.434 51.0928 25.6478C51.9677 25.4244 52.2991 24.9962 52.3475 24.5383C52.3103 24.1138 52.0981 23.7005 51.9231 23.425C49.4731 22.1926 46.2263 21.7644 41.7807 21.8128C41.4791 21.7793 41.1365 21.8128 40.8349 21.8314C42.1083 21.7011 43.1955 21.6192 44.1673 21.5782C43.4078 21.5521 42.6221 21.5373 41.7807 21.5447C41.4791 21.5112 41.1365 21.5447 40.8349 21.567C46.7811 20.9564 48.896 21.3139 52.3587 22.6468C52.2619 22.6952 52.1278 22.7362 51.9789 22.7697C51.9789 22.7697 51.9789 22.7697 51.9826 22.7697C52.8465 22.5761 53.1853 22.2708 53.2523 21.9505C53.1927 21.6527 52.9619 21.3623 52.7571 21.1575C49.5662 19.8617 45.2359 19.1059 39.4759 19.9288C42.0785 19.5304 44.0258 19.3516 45.7535 19.3703C43.8806 19.2586 41.7955 19.3293 39.4759 19.6644C45.6269 18.7187 48.1141 18.9905 52.705 20.2601C52.9991 19.8841 53.1332 19.5564 53.1629 19.2772C53.1332 18.9942 52.9954 18.7708 52.8278 18.5995C49.4061 17.1996 47.779 16.5331 41.9519 16.8942C44.2604 16.6895 45.8838 16.615 47.1646 16.6522C45.8205 16.5033 44.2008 16.4884 41.9519 16.6262C48.3933 16.0565 49.5141 16.4772 52.6938 17.6575C52.5895 17.7059 52.4629 17.7469 52.3326 17.7916C52.3364 17.7916 52.3401 17.7953 52.3475 17.7953C53.2858 17.5011 53.6097 17.0283 53.6581 16.5703C53.6321 16.3283 53.5502 16.1086 53.4645 15.9336C50.847 14.5187 45.7274 14.0049 41.762 14.4629C44.2716 14.0831 46.7662 14.057 49.2236 14.3847C46.8332 13.9975 44.0966 13.9267 41.762 14.1985C45.8279 13.5805 49.8603 13.8895 53.7401 15.1368C53.7028 15.1666 53.647 15.1852 53.5911 15.2038C53.9932 15.0735 54.1682 14.8874 54.2166 14.6788C54.1087 14.1874 53.5129 13.6661 53.3193 13.5097C53.3566 13.5395 53.4087 13.5842 53.4608 13.6363C51.0369 12.8693 48.8103 12.6347 46.2747 12.4821C47.6412 12.4225 48.7992 12.4374 49.946 12.5677C48.7582 12.3927 47.5556 12.2922 46.2747 12.214C49.0375 12.0986 50.9401 12.2698 53.6358 13.115C53.5055 13.1411 53.3863 13.1709 53.2523 13.1895C53.4757 13.1597 53.6917 13.1188 53.8964 13.0704C54.1198 13.2528 54.9576 13.9751 54.8236 14.5448C54.8943 14.8985 54.7081 15.2299 53.9523 15.4123C54.0938 15.6544 54.2725 16.0565 54.2315 16.4772C54.2837 16.9948 54.0565 17.5831 52.9917 17.9256C53.3305 18.1453 53.7996 18.5735 53.7252 19.2325C53.7698 19.616 53.6246 20.0963 53.1183 20.6734C53.3752 20.9043 53.9076 21.4367 53.8071 21.9394C53.889 22.375 53.6135 22.8255 52.4034 23.075C52.6193 23.3952 52.9619 24.0021 52.8986 24.5755C52.9507 25.1489 52.6789 25.7335 51.5917 26.0239C51.7965 26.318 52.1055 26.8579 52.0459 27.3643C52.1018 27.9005 51.83 28.4478 50.6944 28.6898C50.9103 29.0286 51.2566 29.6728 51.2007 30.2387C51.264 30.8791 50.9364 31.4972 49.4657 31.5531C49.4657 31.5568 49.4657 31.5568 49.4619 31.5605C49.4694 31.6126 49.6406 33.9137 47.2019 33.6195C47.5072 34.0142 47.9763 34.7179 47.8795 35.1312C47.9242 35.3583 47.8832 35.5482 47.6896 35.6525C47.6896 35.6525 47.2503 36.1924 45.6455 35.5631C47.187 36.7844 49.9944 39.4577 51.7816 43.7917L51.6513 43.7694C51.6922 43.8699 51.7406 43.9593 51.7816 44.0598L51.4055 43.9965C49.5811 39.2418 46.4162 36.4344 44.9418 35.3285L39.4573 32.1153L45.0162 35.2057C44.7407 35.0903 44.4838 34.9637 44.1487 34.7775C44.1487 34.7775 44.387 34.9339 44.7966 35.2243C44.3982 34.9301 44.1487 34.7775 44.1487 34.7775C44.5769 35.0195 44.9455 35.1908 45.2732 35.3174C45.1577 35.228 45.0423 35.1387 44.9418 35.0642Z" fill="#737373"/>
<path d="M94.96 24V23.424C95.664 23.2747 96.144 23.1147 96.4 22.944C96.6773 22.752 96.816 22.3894 96.816 21.856V6.27203C96.816 5.73869 96.6773 5.37603 96.4 5.18403C96.144 4.99203 95.664 4.83203 94.96 4.70403V4.12803H103.248C105.723 4.12803 107.579 4.59736 108.816 5.53603C110.075 6.45336 110.704 7.76536 110.704 9.47203C110.704 10.7734 110.341 11.8187 109.616 12.608C108.891 13.376 107.781 13.9734 106.288 14.4C106.011 14.5067 106.011 14.6027 106.288 14.688C107.931 15.1787 109.029 16.4374 109.584 18.464C110.203 20.448 110.693 21.7707 111.056 22.432C111.44 23.0934 111.931 23.424 112.528 23.424V24H111.888C110.459 24 109.467 23.6907 108.912 23.072C108.357 22.432 107.749 21.0774 107.088 19.008C106.597 17.472 105.947 16.4054 105.136 15.808C104.347 15.1894 103.237 14.88 101.808 14.88C100.848 14.88 100.197 15.008 99.856 15.264C99.536 15.52 99.376 15.968 99.376 16.608V21.856C99.376 22.3894 99.5253 22.752 99.824 22.944C100.123 23.1147 100.699 23.2747 101.552 23.424V24H94.96ZM101.136 14.048H103.632C106.619 14.048 108.112 12.5547 108.112 9.56803C108.112 6.47469 106.544 4.92803 103.408 4.92803H101.552C100.741 4.92803 100.176 5.01336 99.856 5.18403C99.536 5.35469 99.376 5.71736 99.376 6.27203V12.352C99.376 12.9707 99.504 13.408 99.76 13.664C100.037 13.92 100.496 14.048 101.136 14.048Z" fill="#737373"/>
<path d="M113.796 24V23.424C114.543 23.2747 115.108 23.0614 115.492 22.784C115.876 22.4854 116.228 21.984 116.548 21.28L122.852 6.40003C123.258 5.48269 123.46 4.72536 123.46 4.12803L125.156 3.96803L132.26 20.448C132.751 21.6 133.167 22.3574 133.508 22.72C133.85 23.0827 134.415 23.3067 135.204 23.392V24H128.388V23.424C129.327 23.2747 129.882 23.0507 130.052 22.752C130.223 22.4534 130.148 21.9947 129.828 21.376L128.836 19.04C128.41 18.2294 127.77 17.824 126.916 17.824H120.484C119.524 17.824 118.916 18.144 118.66 18.784L117.604 21.216C117.327 21.8774 117.348 22.3894 117.668 22.752C118.01 23.0934 118.65 23.3174 119.588 23.424V24H113.796ZM120.228 16.96H127.108C127.322 16.96 127.492 16.8854 127.62 16.736C127.748 16.5654 127.759 16.3734 127.652 16.16L124.004 7.64803C123.791 7.11469 123.578 7.13603 123.364 7.71203L119.812 16.064C119.684 16.3414 119.663 16.5654 119.748 16.736C119.834 16.8854 119.994 16.96 120.228 16.96Z" fill="#737373"/>
<path d="M136.96 24V23.424C137.664 23.2747 138.144 23.1147 138.4 22.944C138.677 22.752 138.816 22.3894 138.816 21.856V6.20803C138.816 5.69603 138.677 5.35469 138.4 5.18403C138.144 4.99203 137.664 4.83203 136.96 4.70403V4.12803H144.096C145.483 4.12803 146.773 4.28803 147.968 4.60803C149.163 4.92803 150.293 5.44003 151.36 6.14403C152.427 6.84803 153.259 7.86136 153.856 9.18403C154.475 10.5067 154.784 12.0747 154.784 13.888C154.784 17.152 153.835 19.648 151.936 21.376C150.037 23.0827 147.531 23.936 144.416 23.936C144.011 23.936 143.285 23.9147 142.24 23.872C141.216 23.8294 140.491 23.808 140.064 23.808C139.04 23.808 138.005 23.872 136.96 24ZM144.32 23.2C145.749 23.2 146.976 22.9547 148 22.464C149.045 21.9734 149.856 21.2907 150.432 20.416C151.029 19.52 151.467 18.5387 151.744 17.472C152.021 16.384 152.16 15.1894 152.16 13.888C152.16 11.2214 151.531 9.05603 150.272 7.39203C149.035 5.72803 146.976 4.89603 144.096 4.89603H143.328C142.624 4.89603 142.123 4.98136 141.824 5.15203C141.525 5.32269 141.376 5.67469 141.376 6.20803V21.888C141.376 22.7627 142.357 23.2 144.32 23.2Z" fill="#737373"/>
<path d="M156.554 24V23.424C157.258 23.2747 157.738 23.1147 157.994 22.944C158.271 22.752 158.41 22.3894 158.41 21.856V6.27203C158.41 5.73869 158.271 5.37603 157.994 5.18403C157.738 4.99203 157.258 4.83203 156.554 4.70403V4.12803H162.826V4.70403C162.122 4.83203 161.631 4.99203 161.354 5.18403C161.098 5.37603 160.97 5.73869 160.97 6.27203V21.856C160.97 22.3894 161.098 22.752 161.354 22.944C161.631 23.1147 162.122 23.2747 162.826 23.424V24H156.554Z" fill="#737373"/>
<path d="M174.569 24.32C171.668 24.32 169.278 23.3494 167.401 21.408C165.524 19.4667 164.585 17.0454 164.585 14.144C164.585 11.1787 165.577 8.68269 167.561 6.65603C169.545 4.62936 172.02 3.61603 174.985 3.61603C177.886 3.61603 180.276 4.58669 182.153 6.52803C184.03 8.46936 184.969 10.8907 184.969 13.792C184.969 16.7574 183.966 19.2534 181.961 21.28C179.977 23.3067 177.513 24.32 174.569 24.32ZM175.337 23.36C177.172 23.36 178.75 22.6667 180.073 21.28C181.417 19.872 182.089 17.7174 182.089 14.816C182.089 11.808 181.321 9.35469 179.785 7.45603C178.249 5.53603 176.382 4.57603 174.185 4.57603C173.332 4.57603 172.521 4.73603 171.753 5.05603C170.985 5.35469 170.27 5.82403 169.609 6.46403C168.969 7.10403 168.446 7.98936 168.041 9.12003C167.657 10.2507 167.465 11.5627 167.465 13.056C167.465 16.0854 168.233 18.56 169.769 20.48C171.305 22.4 173.161 23.36 175.337 23.36Z" fill="#737373"/>
<path d="M199.62 24.32C197.636 24.32 195.673 23.7547 193.732 22.624C193.454 21.8987 193.273 21.1734 193.188 20.448C193.102 19.7227 193.113 19.136 193.22 18.688C193.326 18.2187 193.518 17.984 193.796 17.984C194.03 17.984 194.18 18.0907 194.244 18.304C194.756 19.9254 195.598 21.1947 196.772 22.112C197.966 23.0294 199.342 23.4774 200.9 23.456C202.137 23.4347 203.129 23.1147 203.876 22.496C204.644 21.8774 205.028 20.9494 205.028 19.712C205.028 19.3494 204.974 19.008 204.868 18.688C204.782 18.368 204.686 18.1014 204.58 17.888C204.473 17.6534 204.281 17.4294 204.004 17.216C203.748 16.9814 203.534 16.8107 203.364 16.704C203.193 16.576 202.905 16.4267 202.5 16.256C202.094 16.0854 201.796 15.968 201.604 15.904C201.433 15.8187 201.092 15.7014 200.58 15.552C200.068 15.3814 199.726 15.264 199.556 15.2C197.55 14.496 196.014 13.6747 194.948 12.736C193.902 11.776 193.38 10.5387 193.38 9.02403C193.38 7.44536 193.998 6.15469 195.236 5.15203C196.494 4.12803 198.233 3.61603 200.452 3.61603C202.457 3.61603 204.292 4.09603 205.956 5.05603C206.233 5.78136 206.414 6.50669 206.5 7.23203C206.585 7.95736 206.574 8.55469 206.468 9.02403C206.361 9.47203 206.169 9.69603 205.892 9.69603C205.657 9.69603 205.508 9.58936 205.444 9.37603C204.953 7.79736 204.164 6.58136 203.076 5.72803C201.988 4.87469 200.772 4.44803 199.428 4.44803C198.169 4.44803 197.23 4.81069 196.612 5.53603C196.014 6.26136 195.716 7.13603 195.716 8.16003C195.716 9.31203 196.11 10.1974 196.9 10.816C197.689 11.4347 198.862 12 200.42 12.512C202.638 13.3014 204.142 13.952 204.932 14.464C206.66 15.5734 207.524 17.0347 207.524 18.848C207.524 20.6614 206.756 22.0267 205.22 22.944C203.684 23.8614 201.817 24.32 199.62 24.32Z" fill="#737373"/>
<path d="M218.491 24.32C216.209 24.32 214.363 23.6267 212.955 22.24C211.547 20.832 210.843 18.7734 210.843 16.064V6.27203C210.843 5.73869 210.705 5.37603 210.427 5.18403C210.171 4.99203 209.692 4.83203 208.988 4.70403V4.12803H215.259V4.70403C214.555 4.83203 214.065 4.99203 213.787 5.18403C213.531 5.37603 213.404 5.73869 213.404 6.27203V15.392C213.404 17.9734 213.894 19.9147 214.876 21.216C215.857 22.496 217.243 23.136 219.035 23.136C220.763 23.136 222.182 22.5494 223.291 21.376C224.422 20.2027 224.987 18.272 224.987 15.584V6.27203C224.987 5.73869 224.838 5.37603 224.539 5.18403C224.241 4.99203 223.729 4.83203 223.003 4.70403V4.12803H227.867V4.70403C227.185 4.83203 226.694 4.99203 226.395 5.18403C226.118 5.37603 225.979 5.73869 225.979 6.27203V15.712C225.979 18.5067 225.318 20.64 223.995 22.112C222.694 23.584 220.859 24.32 218.491 24.32Z" fill="#737373"/>
<path d="M229.616 24V23.424C230.32 23.2747 230.8 23.1147 231.056 22.944C231.334 22.752 231.472 22.3894 231.472 21.856V6.27203C231.472 5.73869 231.334 5.37603 231.056 5.18403C230.8 4.99203 230.32 4.83203 229.616 4.70403V4.12803H235.888V4.70403C235.184 4.83203 234.694 4.99203 234.416 5.18403C234.16 5.37603 234.032 5.73869 234.032 6.27203V21.856C234.032 22.9014 234.587 23.392 235.696 23.328L240.688 23.072C242.288 22.9867 243.44 22.3254 244.144 21.088L244.656 20.16H245.296L244.624 22.24C244.368 22.9227 244.262 23.5094 244.304 24H229.616Z" fill="#737373"/>
<path d="M246.265 24V23.424C247.012 23.2747 247.577 23.0614 247.961 22.784C248.345 22.4854 248.697 21.984 249.017 21.28L255.321 6.40003C255.726 5.48269 255.929 4.72536 255.929 4.12803L257.625 3.96803L264.729 20.448C265.22 21.6 265.636 22.3574 265.977 22.72C266.318 23.0827 266.884 23.3067 267.673 23.392V24H260.857V23.424C261.796 23.2747 262.35 23.0507 262.521 22.752C262.692 22.4534 262.617 21.9947 262.297 21.376L261.305 19.04C260.878 18.2294 260.238 17.824 259.385 17.824H252.953C251.993 17.824 251.385 18.144 251.129 18.784L250.073 21.216C249.796 21.8774 249.817 22.3894 250.137 22.752C250.478 23.0934 251.118 23.3174 252.057 23.424V24H246.265ZM252.697 16.96H259.577C259.79 16.96 259.961 16.8854 260.089 16.736C260.217 16.5654 260.228 16.3734 260.121 16.16L256.473 7.64803C256.26 7.11469 256.046 7.13603 255.833 7.71203L252.281 16.064C252.153 16.3414 252.132 16.5654 252.217 16.736C252.302 16.8854 252.462 16.96 252.697 16.96Z" fill="#737373"/>
<path d="M269.272 24V23.424C269.998 23.2747 270.488 23.1147 270.744 22.944C271.022 22.752 271.16 22.3894 271.16 21.856V6.27203C271.16 5.73869 271.022 5.37603 270.744 5.18403C270.467 4.99203 269.976 4.83203 269.272 4.70403V4.12803H273.88L281.144 19.104L288.088 4.12803H292.568V4.70403C291.864 4.83203 291.374 4.99203 291.096 5.18403C290.819 5.37603 290.68 5.73869 290.68 6.27203V21.856C290.68 22.3894 290.808 22.752 291.064 22.944C291.342 23.1147 291.843 23.2747 292.568 23.424V24H286.296V23.424C287 23.2747 287.48 23.1147 287.736 22.944C288.014 22.752 288.152 22.3894 288.152 21.856V6.14403L280.76 22.048H279.896L272.088 6.11203V21.856C272.088 22.3894 272.216 22.752 272.472 22.944C272.75 23.1147 273.23 23.2747 273.912 23.424V24H269.272Z" fill="#737373"/>
<path d="M294.491 24V23.424C295.195 23.2747 295.675 23.1147 295.931 22.944C296.209 22.752 296.347 22.3894 296.347 21.856V6.27203C296.347 5.73869 296.209 5.37603 295.931 5.18403C295.675 4.99203 295.195 4.83203 294.491 4.70403V4.12803H300.763V4.70403C300.059 4.83203 299.569 4.99203 299.291 5.18403C299.035 5.37603 298.907 5.73869 298.907 6.27203V21.856C298.907 22.3894 299.035 22.752 299.291 22.944C299.569 23.1147 300.059 23.2747 300.763 23.424V24H294.491Z" fill="#737373"/>
<path d="M306.519 24V23.424C307.863 23.296 308.727 23.1467 309.111 22.976C309.516 22.784 309.719 22.4214 309.719 21.888V6.94403C309.719 6.19736 309.569 5.69603 309.271 5.44003C308.972 5.18403 308.225 5.05603 307.031 5.05603C305.921 5.05603 305.111 5.25869 304.599 5.66403C304.087 6.06936 303.617 6.88003 303.191 8.09603H302.519L302.999 4.28803C303.02 4.18136 303.127 4.10669 303.319 4.06403C304.001 4.10669 304.716 4.12803 305.463 4.12803H316.503C317.271 4.12803 317.996 4.10669 318.679 4.06403C318.871 4.10669 318.977 4.18136 318.999 4.28803L319.479 8.09603H318.807C318.38 6.88003 317.911 6.06936 317.399 5.66403C316.887 5.25869 316.076 5.05603 314.967 5.05603C313.772 5.05603 313.025 5.18403 312.727 5.44003C312.428 5.69603 312.279 6.19736 312.279 6.94403V21.888C312.279 22.4214 312.471 22.784 312.855 22.976C313.26 23.1467 314.135 23.296 315.479 23.424V24H306.519Z" fill="#737373"/>
<path d="M318.359 24V23.424C319.105 23.2747 319.671 23.0614 320.055 22.784C320.439 22.4854 320.791 21.984 321.111 21.28L327.415 6.40003C327.82 5.48269 328.023 4.72536 328.023 4.12803L329.719 3.96803L336.823 20.448C337.313 21.6 337.729 22.3574 338.071 22.72C338.412 23.0827 338.977 23.3067 339.767 23.392V24H332.951V23.424C333.889 23.2747 334.444 23.0507 334.615 22.752C334.785 22.4534 334.711 21.9947 334.391 21.376L333.399 19.04C332.972 18.2294 332.332 17.824 331.479 17.824H325.047C324.087 17.824 323.479 18.144 323.223 18.784L322.167 21.216C321.889 21.8774 321.911 22.3894 322.231 22.752C322.572 23.0934 323.212 23.3174 324.151 23.424V24H318.359ZM324.791 16.96H331.671C331.884 16.96 332.055 16.8854 332.183 16.736C332.311 16.5654 332.321 16.3734 332.215 16.16L328.567 7.64803C328.353 7.11469 328.14 7.13603 327.927 7.71203L324.375 16.064C324.247 16.3414 324.225 16.5654 324.311 16.736C324.396 16.8854 324.556 16.96 324.791 16.96Z" fill="#737373"/>
<path d="M112.54 49.46C112.018 49.406 111.28 49.298 110.416 48.992C111.154 47.678 111.604 46.49 111.604 46.49C112.18 45.068 112.36 44.312 112.81 42.818C112.99 42.188 113.152 41.594 113.314 41.018C113.314 41 113.314 41 113.332 41C115.078 40.352 116.158 39.686 116.698 38.894C116.734 38.84 116.932 38.606 117.058 38.246C117.184 37.922 117.238 37.598 117.184 37.274C117.076 35.834 115.798 35.852 115.798 35.852C115.798 35.852 114.034 35.726 112.9 38.102C112.576 38.768 112.234 39.794 111.73 41.162C110.524 41.522 109.174 41.882 107.806 42.224C101.884 43.754 95.188 45.482 94.522 50.216C94.504 50.288 94.252 52.142 95.17 53.33C95.494 53.744 95.944 54.032 96.484 54.176C97.366 54.464 97.816 53.888 97.492 53.816C97.186 53.762 96.664 53.87 96.196 53.69C95.908 53.546 95.656 53.366 95.458 53.096C94.63 52.034 94.882 50.288 94.882 50.27C95.512 45.77 102.082 44.078 107.896 42.584C109.192 42.242 110.434 41.918 111.586 41.576C111.136 42.782 110.578 44.24 109.822 45.932C109.822 45.932 109.354 47.03 108.742 48.236C108.256 48.038 107.788 47.912 107.32 47.894C106.78 47.876 106.258 47.984 105.826 48.236C105.124 48.632 104.692 49.316 104.656 50.126C104.602 51.008 104.944 51.494 105.25 51.746C105.394 51.89 105.556 51.98 105.682 52.034C105.952 52.16 106.186 52.196 106.186 52.196C107.752 52.52 109.12 51.062 110.092 49.532C111.964 50.234 113.314 50.09 113.458 50.072C114.16 50.018 114.844 49.73 115.546 49.208C116.086 48.812 116.626 48.272 117.148 47.588C118.03 46.454 118.552 45.356 118.57 45.32C118.642 45.158 118.588 44.978 118.426 44.888C118.264 44.816 118.084 44.888 118.012 45.05C117.994 45.05 117.49 46.13 116.644 47.21C115.888 48.182 114.718 49.316 113.404 49.46C113.062 49.478 112.54 49.46 112.54 49.46ZM115.69 36.338C115.69 36.338 116.68 36.212 116.842 37.364C116.86 37.598 116.824 37.85 116.734 38.102C116.608 38.444 116.428 38.66 116.428 38.66C116.41 38.66 116.41 38.678 116.41 38.678C115.888 39.434 114.826 40.046 113.422 40.586C114.052 38.228 114.556 36.428 115.69 36.338ZM106.258 51.494C105.754 51.476 105.502 51.116 105.412 50.954C105.322 50.738 105.268 50.486 105.286 50.162C105.322 49.568 105.628 49.064 106.132 48.776C106.456 48.596 106.87 48.506 107.302 48.524C107.662 48.542 108.058 48.632 108.454 48.794C107.716 50.162 106.852 51.512 106.258 51.494Z" fill="#737373"/>
<path d="M126.576 44.924C126.432 44.816 126.234 44.87 126.144 45.014C126.126 45.032 125.334 46.274 124.362 47.408C123.246 48.722 122.31 49.406 121.77 49.316C120.708 49.064 122.922 45.158 123.696 43.934C123.966 43.52 123.822 43.034 123.444 43.034H122.85C122.688 43.034 122.544 43.106 122.454 43.25C122.166 43.646 121.914 44.06 121.698 44.456C121.644 43.43 121.068 43.178 121.068 43.178C119.664 42.35 117.234 45.608 116.892 47.606C116.658 48.938 117.216 49.514 117.63 49.766C117.81 49.874 118.008 49.91 118.062 49.928C118.134 49.946 118.206 49.946 118.26 49.946C118.548 49.946 118.854 49.82 119.178 49.604C119.502 49.37 119.844 49.01 120.222 48.542C120.276 49.676 121.356 49.91 121.698 49.946C121.752 49.946 121.806 49.964 121.86 49.964C122.634 49.964 123.624 49.262 124.83 47.822C125.838 46.634 126.63 45.41 126.666 45.356C126.756 45.194 126.72 45.014 126.576 44.924ZM118.278 49.316C118.224 49.28 117.756 48.902 118.224 47.516C118.71 46.076 120.186 43.916 120.852 44.006C121.482 44.096 120.492 46.85 120.186 47.516C120.06 47.696 119.916 47.912 119.754 48.11C119.16 48.866 118.62 49.298 118.278 49.316Z" fill="#737373"/>
<path d="M130.399 52.61C130.867 52.61 131.479 52.358 132.019 51.458C132.361 50.882 132.541 50.252 132.559 50.216C132.883 49.028 133.081 47.912 133.117 46.904C133.135 46.076 133.063 45.32 132.883 44.654C132.865 44.582 132.847 44.528 132.829 44.456C133.027 44.546 133.261 44.618 133.495 44.69C133.963 44.834 134.413 44.888 134.845 44.888C135.709 44.888 136.483 44.636 137.167 44.15C137.311 44.06 137.347 43.862 137.239 43.718C137.131 43.574 136.951 43.538 136.807 43.646C135.925 44.276 134.881 44.42 133.675 44.096C133.243 43.97 132.865 43.808 132.595 43.664C132.649 43.52 132.685 43.448 132.685 43.448C133.855 41.234 135.061 39.146 135.673 38.084C135.853 37.76 135.619 37.364 135.241 37.364H134.719C134.557 37.364 134.431 37.436 134.341 37.58C133.891 38.354 132.325 41.072 131.047 43.61C131.047 43.61 126.601 52.052 130.075 52.574C130.075 52.574 130.273 52.61 130.399 52.61ZM131.947 50.036C131.947 50.054 131.785 50.63 131.461 51.152C131.173 51.62 130.885 51.89 130.561 51.962C130.561 51.962 130.435 51.98 130.219 51.962C129.481 51.026 131.281 46.616 132.199 44.546C132.235 44.636 132.253 44.762 132.289 44.87C132.433 45.482 132.505 46.166 132.469 46.922C132.451 47.75 132.307 48.65 132.055 49.604C132.055 49.604 131.983 49.874 131.947 50.036Z" fill="#737373"/>
<path d="M140.069 43.07C139.997 43.052 139.889 43.034 139.889 43.034C139.403 42.98 138.809 43.304 138.053 44.024C137.621 44.456 137.117 45.032 136.577 45.752C137.207 44.636 137.729 43.736 137.729 43.736C137.729 43.736 137.729 43.736 137.747 43.736C137.855 43.556 137.963 43.034 137.459 43.034H136.811C136.685 43.034 136.577 43.106 136.523 43.196C136.433 43.34 136.361 43.466 136.271 43.61C136.271 43.61 132.689 49.982 134.273 50C134.291 50 134.309 50 134.327 50C134.435 50 134.525 49.946 134.597 49.856C134.597 49.838 135.551 48.2 136.703 46.634C137.387 45.698 137.981 44.978 138.503 44.474C138.665 44.312 138.989 44.006 139.313 43.826C139.349 43.808 139.385 43.79 139.421 43.808C139.547 43.898 139.403 44.24 139.187 44.618C139.187 44.618 138.899 45.086 139.367 45.284C139.889 45.5 140.159 45.014 140.159 45.014C140.555 44.366 140.807 43.484 140.285 43.16C140.231 43.124 140.159 43.088 140.069 43.07Z" fill="#737373"/>
<path d="M148.052 44.924C147.908 44.816 147.728 44.852 147.62 44.996C147.62 45.014 146.828 46.166 145.838 47.264C145.244 47.912 144.758 48.362 144.236 48.758C144.236 48.758 143.534 49.316 142.76 49.334C142.094 49.352 141.716 48.992 141.716 48.992C141.14 48.452 141.446 47.408 141.626 46.94C143.156 47.12 144.146 46.436 144.488 45.842C145.658 43.916 144.236 43.178 144.236 43.178C143.084 42.494 141.266 44.528 140.438 46.382C140.438 46.382 139.574 48.29 140.564 49.334C140.996 49.802 141.788 50.216 143.102 50.018C143.804 49.91 144.164 49.676 144.668 49.28C145.172 48.884 145.694 48.362 146.306 47.678C147.332 46.544 148.106 45.41 148.142 45.356C148.25 45.212 148.196 45.014 148.052 44.924ZM144.002 44.006C144.002 44.006 144.776 44.168 143.966 45.446C143.552 46.094 142.778 46.418 141.896 46.346C142.562 45.14 143.516 43.934 144.002 44.006Z" fill="#737373"/>
<path d="M147.975 48.992C147.237 48.272 147.975 46.724 147.975 46.724C148.605 45.392 149.721 43.934 150.261 44.006C150.513 44.042 150.513 44.438 150.423 44.978C150.423 44.978 150.333 45.338 150.567 45.338C150.711 45.338 150.837 45.284 150.927 45.212C151.035 45.122 151.107 44.978 151.107 44.834C151.197 43.502 150.495 43.178 150.495 43.178C149.343 42.494 147.525 44.528 146.697 46.382C146.697 46.382 145.833 48.29 146.805 49.334C147.255 49.802 148.011 50.198 149.325 50.054C149.901 49.982 150.477 49.748 151.053 49.262C151.557 48.848 152.025 48.362 152.637 47.678C153.663 46.544 154.437 45.41 154.473 45.356C154.563 45.212 154.527 45.014 154.383 44.924C154.239 44.816 154.041 44.852 153.951 44.996C153.951 45.014 153.159 46.166 152.169 47.264C151.575 47.912 151.035 48.416 150.567 48.758C150.567 48.758 149.703 49.334 149.019 49.334C148.353 49.334 147.975 48.992 147.975 48.992Z" fill="#737373"/>
<path d="M153.818 49.982C154.178 49.964 154.574 49.766 154.988 49.388C155.294 49.118 155.618 48.74 155.942 48.254C155.924 48.848 156.068 49.496 156.662 49.784C156.914 49.91 157.13 49.964 157.274 49.982C157.346 50 157.418 50 157.49 50C158.264 50 159.254 49.298 160.478 47.84C161.504 46.652 162.296 45.41 162.332 45.356C162.422 45.194 162.368 45.014 162.224 44.924C162.08 44.816 161.882 44.87 161.792 45.014C161.792 45.032 160.982 46.274 160.01 47.444C158.876 48.758 157.94 49.442 157.4 49.37C156.356 49.1 158.588 45.158 159.362 43.934C159.614 43.52 159.47 43.034 159.11 43.034H158.516C158.354 43.034 158.192 43.106 158.102 43.25C157.472 44.168 157.004 45.086 156.662 45.86C156.428 46.292 156.14 46.832 155.798 47.354C154.988 48.614 154.268 49.334 153.764 49.352C153.116 48.722 155.168 45.086 155.906 43.934C156.158 43.52 156.014 43.034 155.654 43.034H155.06C154.898 43.034 154.736 43.106 154.646 43.25C153.602 44.762 152.99 46.274 152.72 47.084C152.72 47.084 151.946 49.208 153.17 49.856C153.278 49.928 153.404 49.964 153.512 49.982C153.512 49.982 153.656 50 153.818 49.982Z" fill="#737373"/>
<path d="M168.513 44.924C168.369 44.816 168.189 44.852 168.081 44.996C168.081 45.014 167.289 46.166 166.299 47.264C165.705 47.912 165.219 48.362 164.697 48.758C164.697 48.758 163.995 49.316 163.221 49.334C162.555 49.352 162.177 48.992 162.177 48.992C161.601 48.452 161.907 47.408 162.087 46.94C163.617 47.12 164.607 46.436 164.949 45.842C166.119 43.916 164.697 43.178 164.697 43.178C163.545 42.494 161.727 44.528 160.899 46.382C160.899 46.382 160.035 48.29 161.025 49.334C161.457 49.802 162.249 50.216 163.563 50.018C164.265 49.91 164.625 49.676 165.129 49.28C165.633 48.884 166.155 48.362 166.767 47.678C167.793 46.544 168.567 45.41 168.603 45.356C168.711 45.212 168.657 45.014 168.513 44.924ZM164.463 44.006C164.463 44.006 165.237 44.168 164.427 45.446C164.013 46.094 163.239 46.418 162.357 46.346C163.023 45.14 163.977 43.934 164.463 44.006Z" fill="#737373"/>
<path d="M172.45 43.106C172.342 43.052 172.162 43.034 172.162 43.034C171.676 42.98 171.064 43.304 170.326 44.024C169.894 44.456 169.39 45.032 168.85 45.752C169.462 44.636 170.002 43.736 170.002 43.736C170.11 43.556 170.218 43.034 169.732 43.034H169.066C168.958 43.034 168.85 43.106 168.778 43.196C168.706 43.34 168.616 43.466 168.544 43.61C168.544 43.61 164.962 49.982 166.546 50C166.564 50 166.564 50 166.582 50C166.69 50 166.798 49.946 166.852 49.856C166.87 49.838 167.824 48.2 168.976 46.634C169.642 45.698 170.254 44.978 170.776 44.474C170.938 44.312 171.28 43.988 171.604 43.808C171.64 43.808 171.676 43.808 171.694 43.808C171.802 43.898 171.676 44.24 171.46 44.618C170.704 45.95 170.29 47.048 170.29 47.048C170.29 47.048 169.408 49.172 170.65 49.784C170.902 49.91 171.118 49.964 171.262 49.982C171.334 50 171.406 50 171.478 50C172.27 50 173.242 49.298 174.466 47.84C175.492 46.652 176.284 45.41 176.32 45.356C176.41 45.194 176.374 45.014 176.212 44.924C176.068 44.816 175.87 44.87 175.78 45.014C175.78 45.032 174.97 46.274 173.998 47.444C172.864 48.758 171.928 49.442 171.388 49.37C170.83 49.226 171.388 47.93 171.928 46.868C171.928 46.868 172.378 45.95 172.684 45.176C173.044 44.33 173.116 43.376 172.45 43.106Z" fill="#737373"/>
<path d="M176.188 48.992C175.45 48.272 176.188 46.724 176.188 46.724C176.818 45.392 177.934 43.934 178.474 44.006C178.726 44.042 178.726 44.438 178.636 44.978C178.636 44.978 178.546 45.338 178.78 45.338C178.924 45.338 179.05 45.284 179.14 45.212C179.248 45.122 179.32 44.978 179.32 44.834C179.41 43.502 178.708 43.178 178.708 43.178C177.556 42.494 175.738 44.528 174.91 46.382C174.91 46.382 174.046 48.29 175.018 49.334C175.468 49.802 176.224 50.198 177.538 50.054C178.114 49.982 178.69 49.748 179.266 49.262C179.77 48.848 180.238 48.362 180.85 47.678C181.876 46.544 182.65 45.41 182.686 45.356C182.776 45.212 182.74 45.014 182.596 44.924C182.452 44.816 182.254 44.852 182.164 44.996C182.164 45.014 181.372 46.166 180.382 47.264C179.788 47.912 179.248 48.416 178.78 48.758C178.78 48.758 177.916 49.334 177.232 49.334C176.566 49.334 176.188 48.992 176.188 48.992Z" fill="#737373"/>
<path d="M186.963 44.924C186.819 44.816 186.621 44.87 186.531 45.014C186.531 45.032 185.721 46.274 184.731 47.444C183.615 48.758 182.679 49.442 182.139 49.37C181.077 49.1 183.327 45.158 184.101 43.934C184.353 43.52 184.209 43.034 183.849 43.034H183.237C183.093 43.034 182.931 43.106 182.841 43.25C181.797 44.762 181.185 46.274 180.915 47.084C180.915 47.084 180.141 49.172 181.401 49.784C181.653 49.91 181.869 49.964 182.013 49.982C182.085 50 182.157 50 182.229 50C183.003 50 183.993 49.298 185.217 47.84C186.225 46.652 187.035 45.41 187.071 45.356C187.161 45.194 187.107 45.014 186.963 44.924ZM184.065 42.656C184.155 42.566 184.371 42.404 184.371 42.404C185.037 41.954 184.821 41.522 184.605 41.36C184.389 41.198 183.939 41.108 183.669 41.594C183.417 42.062 183.669 42.512 183.669 42.512C183.741 42.692 183.939 42.764 184.065 42.656Z" fill="#737373"/>
<path d="M194.92 44.924C194.776 44.816 194.578 44.87 194.488 45.014C194.47 45.032 193.678 46.274 192.706 47.408C191.59 48.722 190.654 49.406 190.114 49.316C189.052 49.064 191.266 45.158 192.04 43.934C192.31 43.52 192.166 43.034 191.788 43.034H191.194C191.032 43.034 190.888 43.106 190.798 43.25C190.51 43.646 190.258 44.06 190.042 44.456C189.988 43.43 189.412 43.178 189.412 43.178C188.008 42.35 185.578 45.608 185.236 47.606C185.002 48.938 185.56 49.514 185.974 49.766C186.154 49.874 186.352 49.91 186.406 49.928C186.478 49.946 186.55 49.946 186.604 49.946C186.892 49.946 187.198 49.82 187.522 49.604C187.846 49.37 188.188 49.01 188.566 48.542C188.62 49.676 189.7 49.91 190.042 49.946C190.096 49.946 190.15 49.964 190.204 49.964C190.978 49.964 191.968 49.262 193.174 47.822C194.182 46.634 194.974 45.41 195.01 45.356C195.1 45.194 195.064 45.014 194.92 44.924ZM186.622 49.316C186.568 49.28 186.1 48.902 186.568 47.516C187.054 46.076 188.53 43.916 189.196 44.006C189.826 44.096 188.836 46.85 188.53 47.516C188.404 47.696 188.26 47.912 188.098 48.11C187.504 48.866 186.964 49.298 186.622 49.316Z" fill="#737373"/>
<path d="M202.685 49.964C203.459 49.964 204.449 49.262 205.655 47.822C206.663 46.634 207.455 45.41 207.491 45.356C207.581 45.194 207.545 45.014 207.401 44.924C207.239 44.816 207.059 44.87 206.951 45.014C206.951 45.032 206.159 46.274 205.187 47.408C204.053 48.74 203.117 49.424 202.577 49.316C202.145 48.722 202.739 46.994 202.739 46.994C203.081 46.04 203.603 44.834 204.341 43.448C205.511 41.234 206.699 39.146 207.311 38.084C207.509 37.76 207.275 37.364 206.897 37.364H206.357C206.213 37.364 206.069 37.436 205.997 37.58C205.547 38.354 203.981 41.072 202.703 43.61C202.613 43.772 202.541 43.934 202.469 44.078C202.325 43.376 201.893 43.178 201.893 43.178C200.489 42.35 198.059 45.608 197.717 47.606C197.483 48.938 198.041 49.514 198.455 49.766C198.635 49.874 198.833 49.91 198.887 49.928C198.959 49.946 199.031 49.946 199.085 49.946C199.373 49.946 199.679 49.82 200.003 49.604C200.327 49.352 200.705 48.974 201.083 48.488C201.137 48.416 201.191 48.326 201.245 48.254C201.281 48.866 201.461 49.478 202.073 49.802C202.073 49.802 202.325 49.964 202.685 49.964ZM199.103 49.316C199.049 49.28 198.581 48.902 199.049 47.516C199.535 46.076 201.011 43.916 201.659 44.006C202.307 44.096 201.317 46.85 201.011 47.516C200.885 47.696 200.741 47.894 200.579 48.092C199.985 48.866 199.445 49.298 199.103 49.316Z" fill="#737373"/>
<path d="M213.707 44.924C213.563 44.816 213.383 44.852 213.275 44.996C213.275 45.014 212.483 46.166 211.493 47.264C210.899 47.912 210.413 48.362 209.891 48.758C209.891 48.758 209.189 49.316 208.415 49.334C207.749 49.352 207.371 48.992 207.371 48.992C206.795 48.452 207.101 47.408 207.281 46.94C208.811 47.12 209.801 46.436 210.143 45.842C211.313 43.916 209.891 43.178 209.891 43.178C208.739 42.494 206.921 44.528 206.093 46.382C206.093 46.382 205.229 48.29 206.219 49.334C206.651 49.802 207.443 50.216 208.757 50.018C209.459 49.91 209.819 49.676 210.323 49.28C210.827 48.884 211.349 48.362 211.961 47.678C212.987 46.544 213.761 45.41 213.797 45.356C213.905 45.212 213.851 45.014 213.707 44.924ZM209.657 44.006C209.657 44.006 210.431 44.168 209.621 45.446C209.207 46.094 208.433 46.418 207.551 46.346C208.217 45.14 209.171 43.934 209.657 44.006Z" fill="#737373"/>
<path d="M213.485 49.964C214.259 49.964 215.231 49.262 216.455 47.822C217.463 46.634 218.255 45.41 218.291 45.356C218.381 45.194 218.327 45.014 218.183 44.924C218.039 44.816 217.841 44.87 217.751 45.014C217.751 45.032 216.941 46.274 215.969 47.426C214.835 48.74 213.899 49.424 213.359 49.316C212.927 48.722 213.521 46.994 213.521 46.994C213.863 46.04 214.385 44.834 215.123 43.448C216.293 41.234 217.499 39.146 218.111 38.084C218.291 37.76 218.057 37.364 217.679 37.364H217.157C216.995 37.364 216.869 37.436 216.779 37.58C216.329 38.354 214.763 41.072 213.485 43.61C212.945 44.708 212.531 45.77 212.279 46.688C212.279 46.688 211.451 49.046 212.855 49.802C212.855 49.802 213.161 49.964 213.485 49.964Z" fill="#737373"/>
<path d="M230.674 44.924C230.53 44.816 230.332 44.87 230.242 45.014C230.224 45.032 229.432 46.274 228.46 47.408C227.344 48.722 226.408 49.406 225.868 49.316C224.806 49.064 227.02 45.158 227.794 43.934C228.064 43.52 227.92 43.034 227.542 43.034H226.948C226.786 43.034 226.642 43.106 226.552 43.25C226.264 43.646 226.012 44.06 225.796 44.456C225.742 43.43 225.166 43.178 225.166 43.178C223.762 42.35 221.332 45.608 220.99 47.606C220.756 48.938 221.314 49.514 221.728 49.766C221.908 49.874 222.106 49.91 222.16 49.928C222.232 49.946 222.304 49.946 222.358 49.946C222.646 49.946 222.952 49.82 223.276 49.604C223.6 49.37 223.942 49.01 224.32 48.542C224.374 49.676 225.454 49.91 225.796 49.946C225.85 49.946 225.904 49.964 225.958 49.964C226.732 49.964 227.722 49.262 228.928 47.822C229.936 46.634 230.728 45.41 230.764 45.356C230.854 45.194 230.818 45.014 230.674 44.924ZM222.376 49.316C222.322 49.28 221.854 48.902 222.322 47.516C222.808 46.076 224.284 43.916 224.95 44.006C225.58 44.096 224.59 46.85 224.284 47.516C224.158 47.696 224.014 47.912 223.852 48.11C223.258 48.866 222.718 49.298 222.376 49.316Z" fill="#737373"/>
<path d="M241.535 44.924C241.391 44.816 241.193 44.87 241.103 45.014C241.085 45.032 240.293 46.274 239.303 47.444C238.187 48.758 237.251 49.442 236.711 49.37C236.153 49.226 236.693 47.93 237.233 46.868C237.233 46.868 237.683 45.95 238.007 45.176C238.385 44.24 238.457 43.142 237.485 43.034C237.485 43.034 237.485 43.034 237.467 43.034C236.981 42.962 236.405 43.304 235.703 44.024C235.217 44.528 234.659 45.248 234.047 46.148C234.191 45.86 234.335 45.5 234.479 45.176C234.857 44.24 234.929 43.142 233.957 43.034C233.957 43.034 233.957 43.034 233.939 43.034C233.453 42.962 232.877 43.304 232.175 44.024C232.067 44.132 231.959 44.258 231.833 44.384C232.067 43.988 232.229 43.736 232.229 43.736C232.337 43.556 232.445 43.034 231.941 43.034H231.293C231.167 43.034 231.059 43.106 231.005 43.196C230.915 43.34 230.843 43.466 230.753 43.61C230.753 43.61 227.063 50.18 228.827 50C228.989 49.982 229.079 49.838 229.115 49.712C229.295 49.37 230.069 47.966 230.987 46.598C231.599 45.68 232.139 44.96 232.625 44.456C232.913 44.168 233.147 43.97 233.327 43.844C233.363 43.826 233.435 43.79 233.471 43.826C233.597 43.898 233.489 44.24 233.273 44.618C232.607 45.806 232.121 47.102 232.121 47.102C232.121 47.102 231.383 48.92 232.319 49.118C232.931 49.244 233.399 48.398 233.399 48.398C233.705 47.858 234.101 47.228 234.515 46.598C235.127 45.68 235.667 44.96 236.153 44.456C236.441 44.168 236.675 43.97 236.855 43.844C236.891 43.826 236.963 43.79 236.999 43.826C237.125 43.898 236.981 44.24 236.765 44.618C236.027 45.95 235.595 47.048 235.595 47.048C235.595 47.048 234.713 49.172 235.973 49.784C236.207 49.91 236.441 49.964 236.567 49.982C236.639 50 236.711 50 236.801 50C237.575 50 238.565 49.298 239.789 47.84C240.797 46.652 241.589 45.41 241.625 45.356C241.715 45.194 241.679 45.014 241.535 44.924Z" fill="#737373"/>
<path d="M244.731 48.002C245.145 47.858 245.541 47.642 245.937 47.354C246.567 46.904 247.161 46.274 247.683 45.5C247.773 45.356 247.737 45.158 247.593 45.05C247.449 44.96 247.251 44.996 247.161 45.14C246.675 45.86 246.153 46.418 245.595 46.832C245.271 47.048 244.947 47.228 244.623 47.354C245.127 46.004 245.199 44.438 244.785 43.592C244.569 43.142 244.245 42.98 244.011 42.944C243.435 42.818 242.607 42.944 241.923 44.222C240.645 44.708 240.069 46.634 240.069 46.634C240.069 46.634 239.061 49.424 241.005 49.964C242.589 50.378 243.723 49.154 244.263 48.128C244.263 48.128 244.443 48.092 244.731 48.002ZM241.365 49.46C240.717 49.136 241.221 47.408 241.329 47.048C241.365 47.156 241.401 47.246 241.455 47.336C241.707 47.732 242.103 48.002 242.661 48.146C242.715 48.164 242.985 48.236 243.399 48.236C243.435 48.236 243.489 48.236 243.525 48.218C242.823 49.352 241.887 49.712 241.365 49.46ZM242.805 47.534C242.427 47.444 242.157 47.264 242.013 47.012C241.761 46.598 241.905 46.04 241.905 46.04C241.905 46.04 241.977 45.734 242.049 45.518C242.139 45.248 242.265 44.924 242.427 44.6C242.625 44.222 242.841 43.952 243.075 43.772C243.255 43.61 243.471 43.538 243.687 43.538C243.741 43.538 243.813 43.538 243.885 43.556C244.011 43.592 244.137 43.7 244.227 43.88C244.407 44.24 244.461 44.852 244.389 45.554C244.335 46.238 244.137 46.94 243.867 47.57C243.381 47.678 242.805 47.534 242.805 47.534Z" fill="#737373"/>
<path d="M251.637 43.07C251.565 43.052 251.457 43.034 251.457 43.034C250.971 42.98 250.377 43.304 249.621 44.024C249.189 44.456 248.685 45.032 248.145 45.752C248.775 44.636 249.297 43.736 249.297 43.736C249.297 43.736 249.297 43.736 249.315 43.736C249.423 43.556 249.531 43.034 249.027 43.034H248.379C248.253 43.034 248.145 43.106 248.091 43.196C248.001 43.34 247.929 43.466 247.839 43.61C247.839 43.61 244.257 49.982 245.841 50C245.859 50 245.877 50 245.895 50C246.003 50 246.093 49.946 246.165 49.856C246.165 49.838 247.119 48.2 248.271 46.634C248.955 45.698 249.549 44.978 250.071 44.474C250.233 44.312 250.557 44.006 250.881 43.826C250.917 43.808 250.953 43.79 250.989 43.808C251.115 43.898 250.971 44.24 250.755 44.618C250.755 44.618 250.467 45.086 250.935 45.284C251.457 45.5 251.727 45.014 251.727 45.014C252.123 44.366 252.375 43.484 251.853 43.16C251.799 43.124 251.727 43.088 251.637 43.07Z" fill="#737373"/>
<path d="M261.114 49.964C261.888 49.964 262.878 49.262 264.084 47.822C265.092 46.634 265.884 45.41 265.92 45.356C266.01 45.194 265.974 45.014 265.83 44.924C265.668 44.816 265.488 44.87 265.38 45.014C265.38 45.032 264.588 46.274 263.616 47.408C262.482 48.74 261.546 49.424 261.006 49.316C260.574 48.722 261.168 46.994 261.168 46.994C261.51 46.04 262.032 44.834 262.77 43.448C263.94 41.234 265.128 39.146 265.74 38.084C265.938 37.76 265.704 37.364 265.326 37.364H264.786C264.642 37.364 264.498 37.436 264.426 37.58C263.976 38.354 262.41 41.072 261.132 43.61C261.042 43.772 260.97 43.934 260.898 44.078C260.754 43.376 260.322 43.178 260.322 43.178C258.918 42.35 256.488 45.608 256.146 47.606C255.912 48.938 256.47 49.514 256.884 49.766C257.064 49.874 257.262 49.91 257.316 49.928C257.388 49.946 257.46 49.946 257.514 49.946C257.802 49.946 258.108 49.82 258.432 49.604C258.756 49.352 259.134 48.974 259.512 48.488C259.566 48.416 259.62 48.326 259.674 48.254C259.71 48.866 259.89 49.478 260.502 49.802C260.502 49.802 260.754 49.964 261.114 49.964ZM257.532 49.316C257.478 49.28 257.01 48.902 257.478 47.516C257.964 46.076 259.44 43.916 260.088 44.006C260.736 44.096 259.746 46.85 259.44 47.516C259.314 47.696 259.17 47.894 259.008 48.092C258.414 48.866 257.874 49.298 257.532 49.316Z" fill="#737373"/>
<path d="M272.136 44.924C271.992 44.816 271.812 44.852 271.704 44.996C271.704 45.014 270.912 46.166 269.922 47.264C269.328 47.912 268.842 48.362 268.32 48.758C268.32 48.758 267.618 49.316 266.844 49.334C266.178 49.352 265.8 48.992 265.8 48.992C265.224 48.452 265.53 47.408 265.71 46.94C267.24 47.12 268.23 46.436 268.572 45.842C269.742 43.916 268.32 43.178 268.32 43.178C267.168 42.494 265.35 44.528 264.522 46.382C264.522 46.382 263.658 48.29 264.648 49.334C265.08 49.802 265.872 50.216 267.186 50.018C267.888 49.91 268.248 49.676 268.752 49.28C269.256 48.884 269.778 48.362 270.39 47.678C271.416 46.544 272.19 45.41 272.226 45.356C272.334 45.212 272.28 45.014 272.136 44.924ZM268.086 44.006C268.086 44.006 268.86 44.168 268.05 45.446C267.636 46.094 266.862 46.418 265.98 46.346C266.646 45.14 267.6 43.934 268.086 44.006Z" fill="#737373"/>
<path d="M298.753 37.31C298.915 37.364 300.283 38.048 298.393 43.538C298.393 43.538 298.105 44.402 297.529 45.554C296.395 45.824 295.369 46.166 294.433 46.58C292.759 47.336 291.445 48.362 290.833 49.388C290.491 49.982 290.401 50.504 290.599 50.882C290.923 51.512 291.499 51.854 292.237 51.854C292.309 51.854 292.363 51.854 292.435 51.836C293.623 51.746 295.081 50.882 296.431 49.478C297.151 48.74 297.799 47.876 298.375 46.922C298.555 46.598 298.753 46.274 298.915 45.932C299.977 45.77 301.093 45.662 302.263 45.644C302.443 45.644 302.569 45.5 302.569 45.32C302.569 45.14 302.425 45.014 302.245 45.014C301.219 45.032 300.211 45.104 299.257 45.248C299.491 44.726 299.707 44.168 299.887 43.61C300.391 42.08 300.643 40.766 300.625 39.704C300.625 38.822 300.445 38.102 300.085 37.58C299.545 36.752 298.771 36.662 298.681 36.644C297.961 36.59 297.097 36.968 296.143 37.778C295.603 38.246 295.027 38.858 294.415 39.596C295.117 38.318 295.747 37.238 296.143 36.554C296.323 36.23 296.089 35.834 295.711 35.834H294.919C294.901 35.834 294.883 35.834 294.847 35.834C294.829 35.834 293.695 36.014 292.003 36.392C289.195 37.058 287.035 37.814 285.739 38.336C283.057 39.416 280.897 40.658 279.313 42.044C277.315 43.79 276.235 45.77 276.091 47.93C276.073 48.002 276.019 48.686 276.163 49.604C276.253 50.144 276.397 50.666 276.613 51.152C276.865 51.728 277.207 52.25 277.639 52.682C278.683 53.726 280.177 54.248 282.085 54.248C282.445 54.248 282.823 54.23 283.201 54.194C283.237 54.194 283.291 54.194 283.291 54.194C284.029 54.086 284.209 53.42 283.903 53.492C283.597 53.564 283.093 53.852 282.643 53.888C282.625 53.888 282.607 53.888 282.589 53.888C280.537 53.978 278.953 53.492 277.891 52.43C277.009 51.53 276.649 50.378 276.523 49.55C276.379 48.668 276.433 47.966 276.433 47.966C276.523 46.886 276.829 45.842 277.405 44.87C277.909 43.97 278.629 43.106 279.547 42.314C281.095 40.946 283.219 39.722 285.865 38.678C286.135 38.57 286.405 38.462 286.675 38.354C290.113 37.166 292.921 36.734 294.235 36.572C293.587 37.724 292.309 39.956 291.247 42.08C291.247 42.08 290.653 43.25 290.185 44.6C289.519 46.418 289.033 48.56 290.041 48.47C290.275 48.452 290.329 48.074 290.329 48.074C290.383 47.552 291.157 45.896 291.895 44.42C292.183 43.898 293.119 42.332 294.271 40.802C295.099 39.704 295.873 38.858 296.557 38.264C297.367 37.562 298.069 37.22 298.627 37.274C298.663 37.292 298.717 37.292 298.753 37.31ZM291.157 50.594C291.085 50.468 291.121 50.162 291.373 49.712C291.643 49.28 292.471 48.164 294.685 47.156C295.441 46.814 296.251 46.526 297.133 46.31C296.827 46.868 296.449 47.48 296.017 48.056C294.811 49.73 293.317 51.404 291.949 51.188C291.589 51.134 291.337 50.936 291.157 50.594Z" fill="#737373"/>
<path d="M307.162 44.924C307.018 44.816 306.82 44.87 306.73 45.014C306.73 45.032 305.92 46.274 304.93 47.444C303.814 48.758 302.878 49.442 302.338 49.37C301.276 49.1 303.526 45.158 304.3 43.934C304.552 43.52 304.408 43.034 304.048 43.034H303.436C303.292 43.034 303.13 43.106 303.04 43.25C301.996 44.762 301.384 46.274 301.114 47.084C301.114 47.084 300.34 49.172 301.6 49.784C301.852 49.91 302.068 49.964 302.212 49.982C302.284 50 302.356 50 302.428 50C303.202 50 304.192 49.298 305.416 47.84C306.424 46.652 307.234 45.41 307.27 45.356C307.36 45.194 307.306 45.014 307.162 44.924ZM304.264 42.656C304.354 42.566 304.57 42.404 304.57 42.404C305.236 41.954 305.02 41.522 304.804 41.36C304.588 41.198 304.138 41.108 303.868 41.594C303.616 42.062 303.868 42.512 303.868 42.512C303.94 42.692 304.138 42.764 304.264 42.656Z" fill="#737373"/>
<path d="M310.367 48.002C310.781 47.858 311.177 47.642 311.573 47.354C312.203 46.904 312.797 46.274 313.319 45.5C313.409 45.356 313.373 45.158 313.229 45.05C313.085 44.96 312.887 44.996 312.797 45.14C312.311 45.86 311.789 46.418 311.231 46.832C310.907 47.048 310.583 47.228 310.259 47.354C310.763 46.004 310.835 44.438 310.421 43.592C310.205 43.142 309.881 42.98 309.647 42.944C309.071 42.818 308.243 42.944 307.559 44.222C306.281 44.708 305.705 46.634 305.705 46.634C305.705 46.634 304.697 49.424 306.641 49.964C308.225 50.378 309.359 49.154 309.899 48.128C309.899 48.128 310.079 48.092 310.367 48.002ZM307.001 49.46C306.353 49.136 306.857 47.408 306.965 47.048C307.001 47.156 307.037 47.246 307.091 47.336C307.343 47.732 307.739 48.002 308.297 48.146C308.351 48.164 308.621 48.236 309.035 48.236C309.071 48.236 309.125 48.236 309.161 48.218C308.459 49.352 307.523 49.712 307.001 49.46ZM308.441 47.534C308.063 47.444 307.793 47.264 307.649 47.012C307.397 46.598 307.541 46.04 307.541 46.04C307.541 46.04 307.613 45.734 307.685 45.518C307.775 45.248 307.901 44.924 308.063 44.6C308.261 44.222 308.477 43.952 308.711 43.772C308.891 43.61 309.107 43.538 309.323 43.538C309.377 43.538 309.449 43.538 309.521 43.556C309.647 43.592 309.773 43.7 309.863 43.88C310.043 44.24 310.097 44.852 310.025 45.554C309.971 46.238 309.773 46.94 309.503 47.57C309.017 47.678 308.441 47.534 308.441 47.534Z" fill="#737373"/>
<path d="M317.166 45.176C317.112 45.014 316.932 44.942 316.752 44.996C316.716 45.014 315.51 45.446 314.232 46.202C314.286 44.816 314.844 43.772 315.15 43.304C315.222 43.196 315.132 43.034 315.006 43.034H314.304C313.89 43.034 313.512 43.25 313.332 43.61C312.954 44.312 312.468 45.554 312.81 46.85C312.81 46.85 312.846 46.958 312.882 47.156C312.648 47.354 312.432 47.552 312.252 47.768C311.712 48.362 311.424 48.974 311.37 49.568C311.226 50.954 312.27 51.26 312.27 51.26C312.99 51.512 313.764 51.17 314.178 50.486C314.592 49.802 314.628 48.776 314.394 47.696C314.322 47.426 314.286 47.174 314.268 46.922C314.322 46.886 314.376 46.85 314.43 46.832C315.672 46.058 316.968 45.59 316.968 45.59C317.13 45.536 317.22 45.356 317.166 45.176ZM313.17 50.252C312.576 51.296 311.856 50.414 312.018 49.442C312.144 48.848 312.558 48.308 313.08 47.822C313.296 48.596 313.53 49.622 313.17 50.252Z" fill="#737373"/>
<path d="M103.576 62.7421C103.162 62.1841 102.604 61.7521 101.938 61.4641C101.38 61.2121 100.732 61.0861 100.102 61.0861C99.994 61.0861 99.184 61.0321 98.32 61.3741C97.78 61.5901 97.33 61.9141 96.988 62.3281C96.574 62.8501 96.304 63.5341 96.214 64.3261C96.034 65.8741 96.862 66.7561 97.582 67.2421C98.284 67.7281 99.04 67.8901 99.148 67.9081C99.22 67.9261 99.634 68.0341 100.21 68.0521C101.02 68.0701 101.758 67.8721 102.334 67.5121C102.712 67.2601 103.036 66.9361 103.27 66.5221C103.144 67.4581 102.82 68.5381 102.262 69.7261C101.056 72.2821 99.76 73.5061 98.698 74.1001C98.59 74.1541 98.392 74.2621 98.122 74.3341C97.546 74.4961 96.682 74.7301 95.926 73.9741C95.17 73.1641 95.872 71.6161 95.98 71.0401C96.124 70.2661 95.476 70.2481 95.476 70.2481C94.558 70.2481 94.72 71.9041 94.72 71.9041C94.72 71.9041 94.72 72.8761 95.188 73.7401C95.35 74.0461 95.566 74.2981 95.818 74.5141C96.466 75.0181 96.898 75.0721 97.366 75.0721C97.582 75.0721 97.726 75.0541 97.762 75.0541C98.518 74.9641 99.67 74.6401 100.822 73.6861C102.082 72.6601 103.072 71.1121 103.774 69.0781C104.26 67.6381 104.476 66.3601 104.404 65.2441C104.35 64.2721 104.062 63.4261 103.576 62.7421ZM102.064 67.1161C101.452 67.5301 100.714 67.6021 100.21 67.5841C99.652 67.5841 99.238 67.4581 99.238 67.4581H99.22C98.932 67.3861 97.06 66.7741 97.456 64.4161C97.888 61.6801 99.85 61.4641 100.75 61.6441C102.37 62.0761 103.216 63.7861 103.162 64.9021C103.126 65.9281 102.73 66.4861 102.622 66.6481C102.46 66.8281 102.28 66.9901 102.064 67.1161Z" fill="#737373"/>
<path d="M115.56 66.4321C115.326 66.1441 115.002 65.9461 114.588 65.8921C114.66 65.8201 114.696 65.7301 114.75 65.6581C115.11 65.0461 115.254 64.3621 115.2 63.6241C115.11 62.7421 114.786 62.0581 114.21 61.6081C113.292 60.8701 112.05 61.0321 111.96 61.0501C111.204 61.1401 110.052 61.4461 108.882 62.4001C107.622 63.4441 106.632 64.9921 105.948 67.0261C105.462 68.4481 105.246 69.7261 105.3 70.8241C105.354 71.7961 105.624 72.6421 106.11 73.3081C106.524 73.8841 107.064 74.3341 107.748 74.6221C108.306 74.8741 108.954 75.0001 109.602 75.0181C109.62 75.0181 109.656 75.0181 109.728 75.0181C110.052 75.0181 110.97 74.9641 112.032 74.4241C112.788 74.0281 113.472 73.4701 114.048 72.7501C114.768 71.8681 115.326 70.7341 115.722 69.3841C115.74 69.2941 116.298 67.4041 115.56 66.4321ZM109.152 74.4961C107.208 74.1361 105.678 72.0841 106.65 68.4841C110.142 68.4121 111.546 67.9081 111.708 67.8361C111.834 67.8001 112.698 67.5481 113.526 66.9541C113.796 66.7561 114.03 66.5581 114.246 66.3421H114.264C114.462 66.3421 114.948 66.5041 114.75 67.9981C114.534 69.7981 112.878 75.0181 109.152 74.4961ZM110.808 67.2781C109.458 67.6561 108.054 67.8361 106.83 67.9261C106.992 67.4401 107.19 66.9181 107.46 66.3601C108.666 63.8221 109.962 62.5801 111.006 62.0041C111.114 61.9501 111.33 61.8421 111.6 61.7521C112.194 61.5901 113.472 61.3741 114.228 62.2381C114.498 62.5801 114.66 63.0301 114.732 63.5881C114.75 64.1641 114.552 66.2161 110.808 67.2781Z" fill="#737373"/>
<path d="M118.489 74.3881C118.453 74.1361 118.309 73.9921 118.057 73.9561C117.823 73.9381 117.445 74.1361 117.481 74.5861C117.517 75.0361 118.003 74.9821 118.003 74.9821C118.363 74.9461 118.525 74.6401 118.489 74.3881Z" fill="#737373"/>
<path d="M125.887 61.2481C125.725 61.0861 125.545 61.0321 125.365 61.0321C125.077 61.0321 124.825 61.1761 124.681 61.2841C123.385 61.9141 121.963 62.2201 121.945 62.2201C121.819 62.2381 121.729 62.3641 121.765 62.4901C121.783 62.5981 121.873 62.6701 121.981 62.6701C121.999 62.6701 122.017 62.6701 122.035 62.6701C122.089 62.6521 122.899 62.4901 123.853 62.1301C123.367 62.7241 122.809 63.5521 122.197 64.7221C121.819 65.4601 121.081 66.9181 120.415 68.6641C120.253 69.0961 120.109 69.5101 119.983 69.9061C119.749 70.6261 119.605 71.2921 119.551 71.8681C119.479 72.5161 119.533 73.0921 119.677 73.5601C119.857 74.1361 120.217 74.5861 120.721 74.8561C120.811 74.9101 120.955 74.9641 120.955 74.9641C121.225 75.0721 121.657 75.1981 121.837 74.9281C121.855 74.8921 121.873 74.8741 121.873 74.8381C121.999 74.6041 121.909 74.3881 121.765 74.2621C121.585 74.1001 121.261 74.0641 121.261 74.0641C121.153 74.0461 121.063 74.0101 120.991 73.9741C120.505 73.7221 120.469 73.1281 120.487 72.7861C120.487 72.7681 120.487 72.7501 120.487 72.7321C120.577 71.9041 120.829 70.9681 121.243 69.8341C121.945 67.7641 122.773 66.1081 123.097 65.4781C124.015 63.5341 124.951 62.1301 125.905 61.4101C125.959 61.3561 125.923 61.2841 125.887 61.2481Z" fill="#737373"/>
<path d="M131.049 77.6101C131.517 77.6101 132.129 77.3581 132.669 76.4581C133.011 75.8821 133.191 75.2521 133.209 75.2161C133.533 74.0281 133.731 72.9121 133.767 71.9041C133.785 71.0761 133.713 70.3201 133.533 69.6541C133.515 69.5821 133.497 69.5281 133.479 69.4561C133.677 69.5461 133.911 69.6181 134.145 69.6901C134.613 69.8341 135.063 69.8881 135.495 69.8881C136.359 69.8881 137.133 69.6361 137.817 69.1501C137.961 69.0601 137.997 68.8621 137.889 68.7181C137.781 68.5741 137.601 68.5381 137.457 68.6461C136.575 69.2761 135.531 69.4201 134.325 69.0961C133.893 68.9701 133.515 68.8081 133.245 68.6641C133.299 68.5201 133.335 68.4481 133.335 68.4481C134.505 66.2341 135.711 64.1461 136.323 63.0841C136.503 62.7601 136.269 62.3641 135.891 62.3641H135.369C135.207 62.3641 135.081 62.4361 134.991 62.5801C134.541 63.3541 132.975 66.0721 131.697 68.6101C131.697 68.6101 127.251 77.0521 130.725 77.5741C130.725 77.5741 130.923 77.6101 131.049 77.6101ZM132.597 75.0361C132.597 75.0541 132.435 75.6301 132.111 76.1521C131.823 76.6201 131.535 76.8901 131.211 76.9621C131.211 76.9621 131.085 76.9801 130.869 76.9621C130.131 76.0261 131.931 71.6161 132.849 69.5461C132.885 69.6361 132.903 69.7621 132.939 69.8701C133.083 70.4821 133.155 71.1661 133.119 71.9221C133.101 72.7501 132.957 73.6501 132.705 74.6041C132.705 74.6041 132.633 74.8741 132.597 75.0361Z" fill="#737373"/>
<path d="M147.685 69.9241C147.541 69.8161 147.343 69.8701 147.253 70.0141C147.235 70.0321 146.443 71.2741 145.453 72.4441C144.337 73.7581 143.401 74.4421 142.861 74.3701C142.303 74.2261 142.843 72.9301 143.383 71.8681C143.383 71.8681 143.833 70.9501 144.157 70.1761C144.535 69.2401 144.607 68.1421 143.635 68.0341C143.635 68.0341 143.635 68.0341 143.617 68.0341C143.131 67.9621 142.555 68.3041 141.853 69.0241C141.367 69.5281 140.809 70.2481 140.197 71.1481C140.341 70.8601 140.485 70.5001 140.629 70.1761C141.007 69.2401 141.079 68.1421 140.107 68.0341C140.107 68.0341 140.107 68.0341 140.089 68.0341C139.603 67.9621 139.027 68.3041 138.325 69.0241C138.217 69.1321 138.109 69.2581 137.983 69.3841C138.217 68.9881 138.379 68.7361 138.379 68.7361C138.487 68.5561 138.595 68.0341 138.091 68.0341H137.443C137.317 68.0341 137.209 68.1061 137.155 68.1961C137.065 68.3401 136.993 68.4661 136.903 68.6101C136.903 68.6101 133.213 75.1801 134.977 75.0001C135.139 74.9821 135.229 74.8381 135.265 74.7121C135.445 74.3701 136.219 72.9661 137.137 71.5981C137.749 70.6801 138.289 69.9601 138.775 69.4561C139.063 69.1681 139.297 68.9701 139.477 68.8441C139.513 68.8261 139.585 68.7901 139.621 68.8261C139.747 68.8981 139.639 69.2401 139.423 69.6181C138.757 70.8061 138.271 72.1021 138.271 72.1021C138.271 72.1021 137.533 73.9201 138.469 74.1181C139.081 74.2441 139.549 73.3981 139.549 73.3981C139.855 72.8581 140.251 72.2281 140.665 71.5981C141.277 70.6801 141.817 69.9601 142.303 69.4561C142.591 69.1681 142.825 68.9701 143.005 68.8441C143.041 68.8261 143.113 68.7901 143.149 68.8261C143.275 68.8981 143.131 69.2401 142.915 69.6181C142.177 70.9501 141.745 72.0481 141.745 72.0481C141.745 72.0481 140.863 74.1721 142.123 74.7841C142.357 74.9101 142.591 74.9641 142.717 74.9821C142.789 75.0001 142.861 75.0001 142.951 75.0001C143.725 75.0001 144.715 74.2981 145.939 72.8401C146.947 71.6521 147.739 70.4101 147.775 70.3561C147.865 70.1941 147.829 70.0141 147.685 69.9241Z" fill="#737373"/>
</svg>
