<svg width="60" height="60" viewBox="0 0 60 60" fill="none" xmlns="http://www.w3.org/2000/svg">
<rect width="60" height="60" rx="30" fill="#3CD257"/>
<path d="M42.7436 17.0942C39.3404 13.6831 34.8084 11.8068 29.9919 11.8068C20.0506 11.8068 11.9611 19.8964 11.9611 29.8376C11.9611 33.0132 12.7896 36.1159 14.3653 38.853L11.8069 48.1933L21.3665 45.6836C23.998 47.1211 26.9624 47.8766 29.9839 47.8766H29.992C39.9253 47.8766 48.1934 39.787 48.1934 29.8458C48.1933 25.0294 46.1467 20.5055 42.7436 17.0942Z" fill="white"/>
<path d="M29.992 44.8389C27.2955 44.8389 24.6558 44.1161 22.3573 42.7516L21.8131 42.4267L16.1439 43.913L17.6547 38.3819L17.2973 37.8134C15.7948 35.4254 15.0068 32.6721 15.0068 29.8375C15.0068 21.5774 21.7319 14.8525 30.0001 14.8525C34.0042 14.8525 37.7646 16.4119 40.5912 19.2465C43.4176 22.0811 45.1558 25.8416 45.1477 29.8458C45.1477 38.1141 38.2519 44.8389 29.992 44.8389Z" fill="#3CD257"/>
<path d="M38.2114 33.6143C37.7647 33.3872 35.5475 32.2985 35.1332 32.1525C34.719 31.9981 34.4186 31.9251 34.1181 32.38C33.8176 32.8348 32.9566 33.8418 32.6885 34.1506C32.4286 34.4511 32.1605 34.4917 31.7138 34.2642C29.0661 32.9405 27.3281 31.9008 25.5818 28.9037C25.1188 28.1078 26.0449 28.1646 26.9057 26.4428C27.052 26.1422 26.9789 25.8823 26.865 25.6549C26.7514 25.4275 25.8498 23.2102 25.4762 22.3086C25.1108 21.4314 24.7372 21.5533 24.4609 21.537C24.2011 21.5208 23.9004 21.5208 23.6001 21.5208C23.2995 21.5208 22.8122 21.6345 22.398 22.0812C21.9838 22.536 20.8223 23.6245 20.8223 25.8418C20.8223 28.059 22.4385 30.2033 22.6578 30.5038C22.8852 30.8042 25.8336 35.3526 30.3574 37.31C33.2165 38.5446 34.3373 38.65 35.7669 38.4389C36.6358 38.3089 38.4309 37.3505 38.8044 36.2947C39.178 35.2389 39.178 34.3375 39.0643 34.1507C38.9588 33.9474 38.6581 33.8338 38.2114 33.6143Z" fill="white"/>
</svg>
